<ttFont>
    <TTGlyph name="A" xMin="14" yMin="0" xMax="556" yMax="641">
      <contour>
        <pt x="474" y="0" on="1"/>
        <pt x="459" y="64" on="1"/>
        <pt x="423" y="174" on="1"/>
        <pt x="279" y="177" on="1"/>
        <pt x="149" y="174" on="1"/>
        <pt x="110" y="68" on="1"/>
        <pt x="94" y="0" on="1"/>
        <pt x="14" y="0" on="1"/>
        <pt x="249" y="641" on="1"/>
        <pt x="342" y="641" on="1"/>
        <pt x="556" y="0" on="1"/>
      </contour>
      <contour>
        <pt x="297" y="558" on="1"/>
        <pt x="290" y="558" on="1"/>
        <pt x="174" y="242" on="1"/>
        <pt x="286" y="240" on="1"/>
        <pt x="401" y="242" on="1"/>
      </contour>
    </TTGlyph>
    <TTGlyph name="AE" xMin="-16" yMin="0" xMax="792" yMax="641">
      <contour>
        <pt x="785" y="0" on="1"/>
        <pt x="437" y="0" on="1"/>
        <pt x="432" y="64" on="1"/>
        <pt x="403" y="259" on="1"/>
        <pt x="165" y="205" on="1"/>
        <pt x="92" y="68" on="1"/>
        <pt x="67" y="0" on="1"/>
        <pt x="-16" y="0" on="1"/>
        <pt x="322" y="641" on="1"/>
        <pt x="695" y="641" on="1"/>
        <pt x="701" y="633" on="1"/>
        <pt x="693" y="571" on="1"/>
        <pt x="531" y="575" on="1"/>
        <pt x="434" y="575" on="1"/>
        <pt x="469" y="338" on="1"/>
        <pt x="684" y="383" on="1"/>
        <pt x="691" y="377" on="1"/>
        <pt x="695" y="319" on="1"/>
        <pt x="478" y="276" on="1"/>
        <pt x="509" y="65" on="1"/>
        <pt x="622" y="65" on="1"/>
        <pt x="786" y="70" on="1"/>
        <pt x="792" y="62" on="1"/>
      </contour>
      <contour>
        <pt x="358" y="558" on="1"/>
        <pt x="352" y="558" on="1"/>
        <pt x="205" y="281" on="1"/>
        <pt x="393" y="322" on="1"/>
      </contour>
    </TTGlyph>
    <TTGlyph name="AEacute" xMin="-16" yMin="0" xMax="792" yMax="863">
      <component glyphName="AE" x="0" y="0" flags="0x1000"/>
      <component glyphName="acute.cap" x="330" y="182" flags="0x1000"/>
    </TTGlyph>
    <TTGlyph name="Aacute" xMin="14" yMin="0" xMax="556" yMax="863">
      <component glyphName="A" x="0" y="0" flags="0x1000"/>
      <component glyphName="acute.cap" x="122" y="182" flags="0x1000"/>
    </TTGlyph>
    <TTGlyph name="Abreve" xMin="14" yMin="0" xMax="556" yMax="842">
      <component glyphName="A" x="0" y="0" flags="0x1000"/>
      <component glyphName="breve.cap" x="95" y="182" flags="0x1000"/>
    </TTGlyph>
    <TTGlyph name="Abreveacute" xMin="14" yMin="0" xMax="556" yMax="949">
      <component glyphName="A" x="0" y="0" flags="0x1000"/>
      <component glyphName="breveacute" x="95" y="182" flags="0x1000"/>
    </TTGlyph>
    <TTGlyph name="Abrevedotbelow" xMin="14" yMin="-163" xMax="557" yMax="841">
      <contour>
        <pt x="242" y="723" on="0"/>
        <pt x="177" y="770" on="0"/>
        <pt x="163" y="814" on="1"/>
        <pt x="185" y="841" on="1"/>
        <pt x="198" y="841" on="1"/>
        <pt x="219" y="781" on="0"/>
        <pt x="291" y="781" on="1"/>
        <pt x="358" y="781" on="0"/>
        <pt x="382" y="841" on="1"/>
        <pt x="394" y="841" on="1"/>
        <pt x="416" y="814" on="1"/>
        <pt x="401" y="770" on="0"/>
        <pt x="334" y="723" on="0"/>
        <pt x="288" y="723" on="1"/>
      </contour>
      <contour>
        <pt x="474" y="0" on="1"/>
        <pt x="460" y="64" on="1"/>
        <pt x="424" y="174" on="1"/>
        <pt x="279" y="177" on="1"/>
        <pt x="149" y="174" on="1"/>
        <pt x="110" y="68" on="1"/>
        <pt x="94" y="0" on="1"/>
        <pt x="14" y="0" on="1"/>
        <pt x="250" y="641" on="1"/>
        <pt x="343" y="641" on="1"/>
        <pt x="557" y="0" on="1"/>
      </contour>
      <contour>
        <pt x="297" y="558" on="1"/>
        <pt x="290" y="558" on="1"/>
        <pt x="174" y="242" on="1"/>
        <pt x="286" y="240" on="1"/>
        <pt x="401" y="242" on="1"/>
      </contour>
      <contour>
        <pt x="307" y="-70" on="0"/>
        <pt x="331" y="-94" on="0"/>
        <pt x="331" y="-115" on="1"/>
        <pt x="331" y="-137" on="0"/>
        <pt x="306" y="-163" on="0"/>
        <pt x="284" y="-163" on="1"/>
        <pt x="240" y="-163" on="0"/>
        <pt x="240" y="-117" on="1"/>
        <pt x="240" y="-96" on="0"/>
        <pt x="265" y="-70" on="0"/>
        <pt x="287" y="-70" on="1"/>
      </contour>
    </TTGlyph>
    <TTGlyph name="Abrevegrave" xMin="14" yMin="0" xMax="556" yMax="949">
      <component glyphName="A" x="0" y="0" flags="0x1000"/>
      <component glyphName="brevegrave" x="95" y="182" flags="0x1000"/>
    </TTGlyph>
    <TTGlyph name="Abrevehookabove" xMin="14" yMin="0" xMax="557" yMax="998">
      <contour>
        <pt x="250" y="954" on="0"/>
        <pt x="221" y="930" on="1"/>
        <pt x="205" y="956" on="1"/>
        <pt x="245" y="998" on="0"/>
        <pt x="291" y="998" on="1"/>
        <pt x="318" y="998" on="0"/>
        <pt x="354" y="965" on="0"/>
        <pt x="354" y="941" on="1"/>
        <pt x="354" y="909" on="0"/>
        <pt x="302" y="866" on="1"/>
        <pt x="322" y="832" on="1"/>
        <pt x="287" y="813" on="1"/>
        <pt x="255" y="868" on="1"/>
        <pt x="305" y="904" on="0"/>
        <pt x="305" y="933" on="1"/>
        <pt x="305" y="954" on="0"/>
        <pt x="279" y="954" on="1"/>
      </contour>
      <contour>
        <pt x="242" y="704" on="0"/>
        <pt x="178" y="750" on="0"/>
        <pt x="164" y="794" on="1"/>
        <pt x="186" y="822" on="1"/>
        <pt x="198" y="822" on="1"/>
        <pt x="220" y="761" on="0"/>
        <pt x="291" y="761" on="1"/>
        <pt x="358" y="761" on="0"/>
        <pt x="382" y="822" on="1"/>
        <pt x="394" y="822" on="1"/>
        <pt x="417" y="794" on="1"/>
        <pt x="401" y="751" on="0"/>
        <pt x="335" y="704" on="0"/>
        <pt x="288" y="704" on="1"/>
      </contour>
      <contour>
        <pt x="474" y="0" on="1"/>
        <pt x="460" y="64" on="1"/>
        <pt x="424" y="174" on="1"/>
        <pt x="279" y="177" on="1"/>
        <pt x="149" y="174" on="1"/>
        <pt x="110" y="68" on="1"/>
        <pt x="94" y="0" on="1"/>
        <pt x="14" y="0" on="1"/>
        <pt x="250" y="641" on="1"/>
        <pt x="343" y="641" on="1"/>
        <pt x="557" y="0" on="1"/>
      </contour>
      <contour>
        <pt x="297" y="558" on="1"/>
        <pt x="290" y="558" on="1"/>
        <pt x="174" y="242" on="1"/>
        <pt x="286" y="240" on="1"/>
        <pt x="401" y="242" on="1"/>
      </contour>
    </TTGlyph>
    <TTGlyph name="Abrevetilde" xMin="14" yMin="0" xMax="557" yMax="966">
      <contour>
        <pt x="146" y="879" on="1"/>
        <pt x="146" y="887" on="1"/>
        <pt x="203" y="954" on="1"/>
        <pt x="212" y="956" on="1"/>
        <pt x="236" y="954" on="0"/>
        <pt x="293" y="936" on="1"/>
        <pt x="345" y="921" on="0"/>
        <pt x="358" y="921" on="1"/>
        <pt x="366" y="921" on="0"/>
        <pt x="382" y="935" on="0"/>
        <pt x="404" y="959" on="0"/>
        <pt x="411" y="966" on="1"/>
        <pt x="419" y="966" on="1"/>
        <pt x="441" y="942" on="1"/>
        <pt x="441" y="934" on="1"/>
        <pt x="384" y="867" on="1"/>
        <pt x="375" y="864" on="1"/>
        <pt x="352" y="866" on="0"/>
        <pt x="295" y="884" on="1"/>
        <pt x="241" y="900" on="0"/>
        <pt x="230" y="900" on="1"/>
        <pt x="217" y="900" on="0"/>
        <pt x="191" y="870" on="1"/>
        <pt x="177" y="855" on="1"/>
        <pt x="169" y="855" on="1"/>
      </contour>
      <contour>
        <pt x="359" y="761" on="0"/>
        <pt x="382" y="820" on="1"/>
        <pt x="394" y="820" on="1"/>
        <pt x="415" y="793" on="1"/>
        <pt x="400" y="750" on="0"/>
        <pt x="335" y="705" on="0"/>
        <pt x="290" y="705" on="1"/>
        <pt x="196" y="705" on="0"/>
        <pt x="168" y="793" on="1"/>
        <pt x="190" y="820" on="1"/>
        <pt x="202" y="820" on="1"/>
        <pt x="222" y="761" on="0"/>
        <pt x="292" y="761" on="1"/>
      </contour>
      <contour>
        <pt x="474" y="0" on="1"/>
        <pt x="460" y="64" on="1"/>
        <pt x="424" y="174" on="1"/>
        <pt x="279" y="177" on="1"/>
        <pt x="149" y="174" on="1"/>
        <pt x="110" y="68" on="1"/>
        <pt x="94" y="0" on="1"/>
        <pt x="14" y="0" on="1"/>
        <pt x="250" y="641" on="1"/>
        <pt x="343" y="641" on="1"/>
        <pt x="557" y="0" on="1"/>
      </contour>
      <contour>
        <pt x="297" y="558" on="1"/>
        <pt x="290" y="558" on="1"/>
        <pt x="174" y="242" on="1"/>
        <pt x="286" y="240" on="1"/>
        <pt x="401" y="242" on="1"/>
      </contour>
    </TTGlyph>
    <TTGlyph name="Acaron" xMin="14" yMin="0" xMax="556" yMax="848">
      <component glyphName="A" x="0" y="0" flags="0x1000"/>
      <component glyphName="caron.cap" x="96" y="182" flags="0x1000"/>
    </TTGlyph>
    <TTGlyph name="Acircumflex" xMin="14" yMin="0" xMax="557" yMax="858">
      <contour>
        <pt x="162" y="767" on="1"/>
        <pt x="229" y="813" on="0"/>
        <pt x="278" y="858" on="1"/>
        <pt x="301" y="858" on="1"/>
        <pt x="346" y="818" on="0"/>
        <pt x="418" y="767" on="1"/>
        <pt x="402" y="733" on="1"/>
        <pt x="393" y="733" on="1"/>
        <pt x="337" y="767" on="0"/>
        <pt x="290" y="799" on="1"/>
        <pt x="251" y="772" on="0"/>
        <pt x="188" y="733" on="1"/>
        <pt x="178" y="733" on="1"/>
      </contour>
      <contour>
        <pt x="474" y="0" on="1"/>
        <pt x="460" y="64" on="1"/>
        <pt x="424" y="174" on="1"/>
        <pt x="279" y="177" on="1"/>
        <pt x="149" y="174" on="1"/>
        <pt x="110" y="68" on="1"/>
        <pt x="94" y="0" on="1"/>
        <pt x="14" y="0" on="1"/>
        <pt x="250" y="641" on="1"/>
        <pt x="343" y="641" on="1"/>
        <pt x="557" y="0" on="1"/>
      </contour>
      <contour>
        <pt x="297" y="558" on="1"/>
        <pt x="290" y="558" on="1"/>
        <pt x="174" y="242" on="1"/>
        <pt x="286" y="240" on="1"/>
        <pt x="401" y="242" on="1"/>
      </contour>
    </TTGlyph>
    <TTGlyph name="Acircumflexacute" xMin="14" yMin="0" xMax="556" yMax="947">
      <component glyphName="A" x="0" y="0" flags="0x1000"/>
      <component glyphName="circumflexacute" x="95" y="182" flags="0x1000"/>
    </TTGlyph>
    <TTGlyph name="Acircumflexdotbelow" xMin="14" yMin="-163" xMax="557" yMax="857">
      <contour>
        <pt x="161" y="766" on="1"/>
        <pt x="228" y="812" on="0"/>
        <pt x="277" y="857" on="1"/>
        <pt x="300" y="857" on="1"/>
        <pt x="345" y="817" on="0"/>
        <pt x="417" y="766" on="1"/>
        <pt x="401" y="732" on="1"/>
        <pt x="392" y="732" on="1"/>
        <pt x="336" y="766" on="0"/>
        <pt x="289" y="798" on="1"/>
        <pt x="250" y="771" on="0"/>
        <pt x="187" y="732" on="1"/>
        <pt x="177" y="732" on="1"/>
      </contour>
      <contour>
        <pt x="474" y="0" on="1"/>
        <pt x="460" y="64" on="1"/>
        <pt x="424" y="174" on="1"/>
        <pt x="279" y="177" on="1"/>
        <pt x="149" y="174" on="1"/>
        <pt x="110" y="68" on="1"/>
        <pt x="94" y="0" on="1"/>
        <pt x="14" y="0" on="1"/>
        <pt x="250" y="641" on="1"/>
        <pt x="343" y="641" on="1"/>
        <pt x="557" y="0" on="1"/>
      </contour>
      <contour>
        <pt x="297" y="558" on="1"/>
        <pt x="290" y="558" on="1"/>
        <pt x="174" y="242" on="1"/>
        <pt x="286" y="240" on="1"/>
        <pt x="401" y="242" on="1"/>
      </contour>
      <contour>
        <pt x="307" y="-70" on="0"/>
        <pt x="331" y="-94" on="0"/>
        <pt x="331" y="-115" on="1"/>
        <pt x="331" y="-137" on="0"/>
        <pt x="306" y="-163" on="0"/>
        <pt x="284" y="-163" on="1"/>
        <pt x="240" y="-163" on="0"/>
        <pt x="240" y="-117" on="1"/>
        <pt x="240" y="-96" on="0"/>
        <pt x="265" y="-70" on="0"/>
        <pt x="287" y="-70" on="1"/>
      </contour>
    </TTGlyph>
    <TTGlyph name="Acircumflexgrave" xMin="14" yMin="0" xMax="556" yMax="947">
      <component glyphName="A" x="0" y="0" flags="0x1000"/>
      <component glyphName="circumflexgrave" x="95" y="182" flags="0x1000"/>
    </TTGlyph>
    <TTGlyph name="Acircumflexhookabove" xMin="14" yMin="0" xMax="557" yMax="984">
      <contour>
        <pt x="346" y="943" on="0"/>
        <pt x="318" y="920" on="1"/>
        <pt x="303" y="945" on="1"/>
        <pt x="340" y="984" on="0"/>
        <pt x="384" y="984" on="1"/>
        <pt x="410" y="984" on="0"/>
        <pt x="444" y="954" on="0"/>
        <pt x="444" y="931" on="1"/>
        <pt x="444" y="899" on="0"/>
        <pt x="395" y="859" on="1"/>
        <pt x="414" y="827" on="1"/>
        <pt x="381" y="809" on="1"/>
        <pt x="351" y="861" on="1"/>
        <pt x="399" y="896" on="0"/>
        <pt x="399" y="923" on="1"/>
        <pt x="399" y="943" on="0"/>
        <pt x="373" y="943" on="1"/>
      </contour>
      <contour>
        <pt x="161" y="747" on="1"/>
        <pt x="228" y="793" on="0"/>
        <pt x="277" y="838" on="1"/>
        <pt x="300" y="838" on="1"/>
        <pt x="345" y="798" on="0"/>
        <pt x="417" y="747" on="1"/>
        <pt x="401" y="713" on="1"/>
        <pt x="392" y="713" on="1"/>
        <pt x="336" y="747" on="0"/>
        <pt x="289" y="779" on="1"/>
        <pt x="250" y="752" on="0"/>
        <pt x="187" y="713" on="1"/>
        <pt x="177" y="713" on="1"/>
      </contour>
      <contour>
        <pt x="474" y="0" on="1"/>
        <pt x="460" y="64" on="1"/>
        <pt x="424" y="174" on="1"/>
        <pt x="279" y="177" on="1"/>
        <pt x="149" y="174" on="1"/>
        <pt x="110" y="68" on="1"/>
        <pt x="94" y="0" on="1"/>
        <pt x="14" y="0" on="1"/>
        <pt x="250" y="641" on="1"/>
        <pt x="343" y="641" on="1"/>
        <pt x="557" y="0" on="1"/>
      </contour>
      <contour>
        <pt x="297" y="558" on="1"/>
        <pt x="290" y="558" on="1"/>
        <pt x="174" y="242" on="1"/>
        <pt x="286" y="240" on="1"/>
        <pt x="401" y="242" on="1"/>
      </contour>
    </TTGlyph>
    <TTGlyph name="Acircumflextilde" xMin="14" yMin="0" xMax="557" yMax="966">
      <contour>
        <pt x="146" y="879" on="1"/>
        <pt x="146" y="887" on="1"/>
        <pt x="203" y="954" on="1"/>
        <pt x="212" y="956" on="1"/>
        <pt x="236" y="954" on="0"/>
        <pt x="293" y="936" on="1"/>
        <pt x="345" y="921" on="0"/>
        <pt x="358" y="921" on="1"/>
        <pt x="366" y="921" on="0"/>
        <pt x="382" y="935" on="0"/>
        <pt x="404" y="959" on="0"/>
        <pt x="411" y="966" on="1"/>
        <pt x="419" y="966" on="1"/>
        <pt x="441" y="942" on="1"/>
        <pt x="441" y="934" on="1"/>
        <pt x="384" y="867" on="1"/>
        <pt x="375" y="864" on="1"/>
        <pt x="352" y="866" on="0"/>
        <pt x="295" y="884" on="1"/>
        <pt x="241" y="900" on="0"/>
        <pt x="230" y="900" on="1"/>
        <pt x="217" y="900" on="0"/>
        <pt x="191" y="870" on="1"/>
        <pt x="177" y="855" on="1"/>
        <pt x="169" y="855" on="1"/>
      </contour>
      <contour>
        <pt x="345" y="798" on="0"/>
        <pt x="417" y="747" on="1"/>
        <pt x="401" y="713" on="1"/>
        <pt x="392" y="713" on="1"/>
        <pt x="336" y="747" on="0"/>
        <pt x="289" y="779" on="1"/>
        <pt x="250" y="752" on="0"/>
        <pt x="187" y="713" on="1"/>
        <pt x="177" y="713" on="1"/>
        <pt x="161" y="747" on="1"/>
        <pt x="228" y="793" on="0"/>
        <pt x="277" y="838" on="1"/>
        <pt x="300" y="838" on="1"/>
      </contour>
      <contour>
        <pt x="474" y="0" on="1"/>
        <pt x="460" y="64" on="1"/>
        <pt x="424" y="174" on="1"/>
        <pt x="279" y="177" on="1"/>
        <pt x="149" y="174" on="1"/>
        <pt x="110" y="68" on="1"/>
        <pt x="94" y="0" on="1"/>
        <pt x="14" y="0" on="1"/>
        <pt x="250" y="641" on="1"/>
        <pt x="343" y="641" on="1"/>
        <pt x="557" y="0" on="1"/>
      </contour>
      <contour>
        <pt x="297" y="558" on="1"/>
        <pt x="290" y="558" on="1"/>
        <pt x="174" y="242" on="1"/>
        <pt x="286" y="240" on="1"/>
        <pt x="401" y="242" on="1"/>
      </contour>
    </TTGlyph>
    <TTGlyph name="Adieresis" xMin="14" yMin="0" xMax="557" yMax="833">
      <contour>
        <pt x="191" y="744" on="0"/>
        <pt x="169" y="768" on="0"/>
        <pt x="169" y="788" on="1"/>
        <pt x="169" y="808" on="0"/>
        <pt x="193" y="833" on="0"/>
        <pt x="214" y="833" on="1"/>
        <pt x="234" y="833" on="0"/>
        <pt x="256" y="811" on="0"/>
        <pt x="256" y="791" on="1"/>
        <pt x="256" y="770" on="0"/>
        <pt x="232" y="744" on="0"/>
        <pt x="211" y="744" on="1"/>
      </contour>
      <contour>
        <pt x="348" y="744" on="0"/>
        <pt x="326" y="768" on="0"/>
        <pt x="326" y="788" on="1"/>
        <pt x="326" y="808" on="0"/>
        <pt x="350" y="833" on="0"/>
        <pt x="371" y="833" on="1"/>
        <pt x="391" y="833" on="0"/>
        <pt x="413" y="811" on="0"/>
        <pt x="413" y="791" on="1"/>
        <pt x="413" y="770" on="0"/>
        <pt x="389" y="744" on="0"/>
        <pt x="368" y="744" on="1"/>
      </contour>
      <contour>
        <pt x="474" y="0" on="1"/>
        <pt x="460" y="64" on="1"/>
        <pt x="424" y="174" on="1"/>
        <pt x="279" y="177" on="1"/>
        <pt x="149" y="174" on="1"/>
        <pt x="110" y="68" on="1"/>
        <pt x="94" y="0" on="1"/>
        <pt x="14" y="0" on="1"/>
        <pt x="250" y="641" on="1"/>
        <pt x="343" y="641" on="1"/>
        <pt x="557" y="0" on="1"/>
      </contour>
      <contour>
        <pt x="297" y="558" on="1"/>
        <pt x="290" y="558" on="1"/>
        <pt x="174" y="242" on="1"/>
        <pt x="286" y="240" on="1"/>
        <pt x="401" y="242" on="1"/>
      </contour>
    </TTGlyph>
    <TTGlyph name="Adotbelow" xMin="14" yMin="-163" xMax="557" yMax="641">
      <contour>
        <pt x="474" y="0" on="1"/>
        <pt x="460" y="64" on="1"/>
        <pt x="424" y="174" on="1"/>
        <pt x="279" y="177" on="1"/>
        <pt x="149" y="174" on="1"/>
        <pt x="110" y="68" on="1"/>
        <pt x="94" y="0" on="1"/>
        <pt x="14" y="0" on="1"/>
        <pt x="250" y="641" on="1"/>
        <pt x="343" y="641" on="1"/>
        <pt x="557" y="0" on="1"/>
      </contour>
      <contour>
        <pt x="297" y="558" on="1"/>
        <pt x="290" y="558" on="1"/>
        <pt x="174" y="242" on="1"/>
        <pt x="286" y="240" on="1"/>
        <pt x="401" y="242" on="1"/>
      </contour>
      <contour>
        <pt x="307" y="-70" on="0"/>
        <pt x="331" y="-94" on="0"/>
        <pt x="331" y="-115" on="1"/>
        <pt x="331" y="-137" on="0"/>
        <pt x="306" y="-163" on="0"/>
        <pt x="284" y="-163" on="1"/>
        <pt x="240" y="-163" on="0"/>
        <pt x="240" y="-117" on="1"/>
        <pt x="240" y="-96" on="0"/>
        <pt x="265" y="-70" on="0"/>
        <pt x="287" y="-70" on="1"/>
      </contour>
    </TTGlyph>
    <TTGlyph name="Agrave" xMin="14" yMin="0" xMax="557" yMax="864">
      <contour>
        <pt x="271" y="766" on="0"/>
        <pt x="182" y="807" on="1"/>
        <pt x="180" y="815" on="1"/>
        <pt x="200" y="862" on="1"/>
        <pt x="209" y="864" on="1"/>
        <pt x="298" y="812" on="0"/>
        <pt x="401" y="761" on="1"/>
        <pt x="387" y="725" on="1"/>
        <pt x="377" y="721" on="1"/>
      </contour>
      <contour>
        <pt x="474" y="0" on="1"/>
        <pt x="460" y="64" on="1"/>
        <pt x="424" y="174" on="1"/>
        <pt x="279" y="177" on="1"/>
        <pt x="149" y="174" on="1"/>
        <pt x="110" y="68" on="1"/>
        <pt x="94" y="0" on="1"/>
        <pt x="14" y="0" on="1"/>
        <pt x="250" y="641" on="1"/>
        <pt x="343" y="641" on="1"/>
        <pt x="557" y="0" on="1"/>
      </contour>
      <contour>
        <pt x="297" y="558" on="1"/>
        <pt x="290" y="558" on="1"/>
        <pt x="174" y="242" on="1"/>
        <pt x="286" y="240" on="1"/>
        <pt x="401" y="242" on="1"/>
      </contour>
    </TTGlyph>
    <TTGlyph name="Ahookabove" xMin="14" yMin="0" xMax="556" yMax="894">
      <component glyphName="A" x="0" y="0" flags="0x1000"/>
      <component glyphName="hookabove" x="94" y="181" flags="0x1000"/>
    </TTGlyph>
    <TTGlyph name="Amacron" xMin="14" yMin="0" xMax="556" yMax="816">
      <component glyphName="A" x="0" y="0" flags="0x1000"/>
      <component glyphName="macron" x="95" y="182" flags="0x1000"/>
    </TTGlyph>
    <TTGlyph name="Aogonek" xMin="14" yMin="-197" xMax="611" yMax="641">
      <contour>
        <pt x="563" y="-197" on="0"/>
        <pt x="511" y="-197" on="1"/>
        <pt x="476" y="-197" on="0"/>
        <pt x="434" y="-155" on="0"/>
        <pt x="434" y="-119" on="1"/>
        <pt x="434" y="-96" on="0"/>
        <pt x="457" y="-44" on="0"/>
        <pt x="488" y="0" on="1"/>
        <pt x="474" y="0" on="1"/>
        <pt x="460" y="64" on="1"/>
        <pt x="424" y="174" on="1"/>
        <pt x="279" y="177" on="1"/>
        <pt x="149" y="174" on="1"/>
        <pt x="110" y="68" on="1"/>
        <pt x="94" y="0" on="1"/>
        <pt x="14" y="0" on="1"/>
        <pt x="250" y="641" on="1"/>
        <pt x="343" y="641" on="1"/>
        <pt x="557" y="0" on="1"/>
        <pt x="537" y="0" on="1"/>
        <pt x="487" y="-74" on="0"/>
        <pt x="487" y="-108" on="1"/>
        <pt x="487" y="-143" on="0"/>
        <pt x="521" y="-143" on="1"/>
        <pt x="558" y="-143" on="0"/>
        <pt x="595" y="-106" on="1"/>
        <pt x="600" y="-106" on="1"/>
        <pt x="611" y="-144" on="1"/>
      </contour>
      <contour>
        <pt x="297" y="558" on="1"/>
        <pt x="290" y="558" on="1"/>
        <pt x="174" y="242" on="1"/>
        <pt x="286" y="240" on="1"/>
        <pt x="401" y="242" on="1"/>
      </contour>
    </TTGlyph>
    <TTGlyph name="Aring" xMin="14" yMin="0" xMax="556" yMax="879">
      <component glyphName="A" x="0" y="0" flags="0x1000"/>
      <component glyphName="ring" x="95" y="182" flags="0x1000"/>
    </TTGlyph>
    <TTGlyph name="Aringacute" xMin="14" yMin="0" xMax="557" yMax="895">
      <contour>
        <pt x="204" y="825" on="1"/>
        <pt x="330" y="864" on="0"/>
        <pt x="411" y="895" on="1"/>
        <pt x="419" y="892" on="1"/>
        <pt x="432" y="843" on="1"/>
        <pt x="428" y="835" on="1"/>
        <pt x="338" y="809" on="0"/>
        <pt x="221" y="782" on="1"/>
        <pt x="213" y="787" on="1"/>
      </contour>
      <contour>
        <pt x="474" y="0" on="1"/>
        <pt x="460" y="63" on="1"/>
        <pt x="424" y="172" on="1"/>
        <pt x="279" y="175" on="1"/>
        <pt x="149" y="172" on="1"/>
        <pt x="110" y="67" on="1"/>
        <pt x="94" y="0" on="1"/>
        <pt x="14" y="0" on="1"/>
        <pt x="245" y="615" on="1"/>
        <pt x="212" y="638" on="0"/>
        <pt x="212" y="684" on="1"/>
        <pt x="212" y="722" on="0"/>
        <pt x="258" y="767" on="0"/>
        <pt x="297" y="767" on="1"/>
        <pt x="336" y="767" on="0"/>
        <pt x="380" y="722" on="0"/>
        <pt x="380" y="686" on="1"/>
        <pt x="380" y="639" on="0"/>
        <pt x="345" y="616" on="1"/>
        <pt x="557" y="0" on="1"/>
      </contour>
      <contour>
        <pt x="250" y="728" on="0"/>
        <pt x="250" y="685" on="1"/>
        <pt x="250" y="663" on="0"/>
        <pt x="275" y="640" on="0"/>
        <pt x="296" y="640" on="1"/>
        <pt x="316" y="640" on="0"/>
        <pt x="341" y="662" on="0"/>
        <pt x="341" y="683" on="1"/>
        <pt x="341" y="728" on="0"/>
        <pt x="295" y="728" on="1"/>
      </contour>
      <contour>
        <pt x="297" y="553" on="1"/>
        <pt x="290" y="553" on="1"/>
        <pt x="174" y="240" on="1"/>
        <pt x="286" y="238" on="1"/>
        <pt x="401" y="240" on="1"/>
      </contour>
    </TTGlyph>
    <TTGlyph name="Atilde" xMin="14" yMin="0" xMax="556" yMax="849">
      <component glyphName="A" x="0" y="0" flags="0x1000"/>
      <component glyphName="tilde" x="95" y="182" flags="0x1000"/>
    </TTGlyph>
    <TTGlyph name="B" xMin="93" yMin="-4" xMax="498" yMax="642">
      <contour>
        <pt x="498" y="307" on="0"/>
        <pt x="498" y="179" on="1"/>
        <pt x="498" y="-4" on="0"/>
        <pt x="235" y="-4" on="1"/>
        <pt x="147" y="-4" on="0"/>
        <pt x="94" y="0" on="1"/>
        <pt x="93" y="0" on="1"/>
        <pt x="98" y="193" on="1"/>
        <pt x="93" y="641" on="1"/>
        <pt x="271" y="642" on="1"/>
        <pt x="361" y="642" on="0"/>
        <pt x="458" y="562" on="0"/>
        <pt x="458" y="486" on="1"/>
        <pt x="458" y="432" on="0"/>
        <pt x="408" y="354" on="0"/>
        <pt x="362" y="334" on="1"/>
      </contour>
      <contour>
        <pt x="376" y="529" on="0"/>
        <pt x="319" y="576" on="0"/>
        <pt x="255" y="576" on="1"/>
        <pt x="174" y="576" on="1"/>
        <pt x="172" y="361" on="1"/>
        <pt x="282" y="358" on="1"/>
        <pt x="376" y="380" on="0"/>
        <pt x="376" y="477" on="1"/>
      </contour>
      <contour>
        <pt x="329" y="63" on="0"/>
        <pt x="417" y="125" on="0"/>
        <pt x="417" y="183" on="1"/>
        <pt x="417" y="281" on="0"/>
        <pt x="294" y="295" on="1"/>
        <pt x="171" y="294" on="1"/>
        <pt x="170" y="200" on="1"/>
        <pt x="173" y="66" on="1"/>
        <pt x="212" y="63" on="0"/>
        <pt x="247" y="63" on="1"/>
      </contour>
    </TTGlyph>
    <TTGlyph name="C" xMin="38" yMin="-7" xMax="497" yMax="646">
      <contour>
        <pt x="423" y="646" on="0"/>
        <pt x="497" y="598" on="1"/>
        <pt x="481" y="525" on="1"/>
        <pt x="472" y="523" on="1"/>
        <pt x="405" y="579" on="0"/>
        <pt x="318" y="579" on="1"/>
        <pt x="223" y="579" on="0"/>
        <pt x="121" y="448" on="0"/>
        <pt x="121" y="322" on="1"/>
        <pt x="121" y="195" on="0"/>
        <pt x="223" y="61" on="0"/>
        <pt x="316" y="61" on="1"/>
        <pt x="408" y="61" on="0"/>
        <pt x="483" y="122" on="1"/>
        <pt x="493" y="117" on="1"/>
        <pt x="486" y="41" on="1"/>
        <pt x="399" y="-7" on="0"/>
        <pt x="309" y="-7" on="1"/>
        <pt x="180" y="-7" on="0"/>
        <pt x="38" y="160" on="0"/>
        <pt x="38" y="315" on="1"/>
        <pt x="38" y="474" on="0"/>
        <pt x="186" y="646" on="0"/>
        <pt x="322" y="646" on="1"/>
      </contour>
    </TTGlyph>
    <TTGlyph name="C.ss01" xMin="-100" yMin="0" xMax="561" yMax="498">
      <contour>
        <pt x="418" y="464" on="1"/>
        <pt x="422" y="462" on="1"/>
        <pt x="408" y="395" on="1"/>
        <pt x="399" y="393" on="1"/>
        <pt x="348" y="436" on="0"/>
        <pt x="274" y="436" on="1"/>
        <pt x="202" y="436" on="0"/>
        <pt x="126" y="344" on="0"/>
        <pt x="126" y="253" on="1"/>
        <pt x="126" y="160" on="0"/>
        <pt x="202" y="63" on="0"/>
        <pt x="274" y="63" on="1"/>
        <pt x="346" y="63" on="0"/>
        <pt x="408" y="108" on="1"/>
        <pt x="416" y="104" on="1"/>
        <pt x="410" y="37" on="1"/>
        <pt x="406" y="35" on="1"/>
        <pt x="561" y="35" on="1"/>
        <pt x="561" y="0" on="1"/>
        <pt x="-100" y="0" on="1"/>
        <pt x="-100" y="35" on="1"/>
        <pt x="143" y="35" on="1"/>
        <pt x="50" y="95" on="0"/>
        <pt x="50" y="246" on="1"/>
        <pt x="50" y="404" on="0"/>
        <pt x="151" y="464" on="1"/>
        <pt x="-100" y="464" on="1"/>
        <pt x="-100" y="498" on="1"/>
        <pt x="561" y="498" on="1"/>
        <pt x="561" y="464" on="1"/>
      </contour>
    </TTGlyph>
    <TTGlyph name="Cacute" xMin="38" yMin="-7" xMax="497" yMax="863">
      <component glyphName="C" x="0" y="0" flags="0x1000"/>
      <component glyphName="acute.cap" x="146" y="182" flags="0x1000"/>
    </TTGlyph>
    <TTGlyph name="Ccaron" xMin="38" yMin="-7" xMax="497" yMax="848">
      <component glyphName="C" x="0" y="0" flags="0x1000"/>
      <component glyphName="caron.cap" x="120" y="182" flags="0x1000"/>
    </TTGlyph>
    <TTGlyph name="Ccedilla" xMin="38" yMin="-193" xMax="497" yMax="646">
      <contour>
        <pt x="408" y="61" on="0"/>
        <pt x="483" y="122" on="1"/>
        <pt x="493" y="117" on="1"/>
        <pt x="486" y="41" on="1"/>
        <pt x="410" y="-2" on="0"/>
        <pt x="330" y="-6" on="1"/>
        <pt x="317" y="-51" on="1"/>
        <pt x="351" y="-71" on="1"/>
        <pt x="389" y="-93" on="0"/>
        <pt x="389" y="-127" on="1"/>
        <pt x="389" y="-156" on="0"/>
        <pt x="344" y="-193" on="0"/>
        <pt x="308" y="-193" on="1"/>
        <pt x="265" y="-193" on="0"/>
        <pt x="236" y="-162" on="1"/>
        <pt x="243" y="-122" on="1"/>
        <pt x="248" y="-121" on="1"/>
        <pt x="276" y="-152" on="0"/>
        <pt x="305" y="-152" on="1"/>
        <pt x="319" y="-152" on="0"/>
        <pt x="336" y="-138" on="0"/>
        <pt x="336" y="-125" on="1"/>
        <pt x="336" y="-112" on="0"/>
        <pt x="315" y="-100" on="1"/>
        <pt x="267" y="-71" on="1"/>
        <pt x="285" y="-6" on="1"/>
        <pt x="167" y="2" on="0"/>
        <pt x="38" y="168" on="0"/>
        <pt x="38" y="315" on="1"/>
        <pt x="38" y="474" on="0"/>
        <pt x="186" y="646" on="0"/>
        <pt x="322" y="646" on="1"/>
        <pt x="423" y="646" on="0"/>
        <pt x="497" y="598" on="1"/>
        <pt x="481" y="525" on="1"/>
        <pt x="472" y="523" on="1"/>
        <pt x="405" y="579" on="0"/>
        <pt x="318" y="579" on="1"/>
        <pt x="223" y="579" on="0"/>
        <pt x="121" y="448" on="0"/>
        <pt x="121" y="322" on="1"/>
        <pt x="121" y="195" on="0"/>
        <pt x="223" y="61" on="0"/>
        <pt x="316" y="61" on="1"/>
      </contour>
    </TTGlyph>
    <TTGlyph name="Ccircumflex" xMin="38" yMin="-7" xMax="497" yMax="858">
      <contour>
        <pt x="253" y="813" on="0"/>
        <pt x="302" y="858" on="1"/>
        <pt x="325" y="858" on="1"/>
        <pt x="370" y="818" on="0"/>
        <pt x="442" y="767" on="1"/>
        <pt x="426" y="733" on="1"/>
        <pt x="417" y="733" on="1"/>
        <pt x="361" y="767" on="0"/>
        <pt x="314" y="799" on="1"/>
        <pt x="275" y="772" on="0"/>
        <pt x="212" y="733" on="1"/>
        <pt x="202" y="733" on="1"/>
        <pt x="186" y="767" on="1"/>
      </contour>
      <contour>
        <pt x="423" y="646" on="0"/>
        <pt x="497" y="598" on="1"/>
        <pt x="481" y="525" on="1"/>
        <pt x="472" y="523" on="1"/>
        <pt x="405" y="579" on="0"/>
        <pt x="318" y="579" on="1"/>
        <pt x="223" y="579" on="0"/>
        <pt x="121" y="448" on="0"/>
        <pt x="121" y="322" on="1"/>
        <pt x="121" y="195" on="0"/>
        <pt x="223" y="61" on="0"/>
        <pt x="316" y="61" on="1"/>
        <pt x="408" y="61" on="0"/>
        <pt x="483" y="122" on="1"/>
        <pt x="493" y="117" on="1"/>
        <pt x="486" y="41" on="1"/>
        <pt x="399" y="-7" on="0"/>
        <pt x="309" y="-7" on="1"/>
        <pt x="180" y="-7" on="0"/>
        <pt x="38" y="160" on="0"/>
        <pt x="38" y="315" on="1"/>
        <pt x="38" y="474" on="0"/>
        <pt x="186" y="646" on="0"/>
        <pt x="322" y="646" on="1"/>
      </contour>
    </TTGlyph>
    <TTGlyph name="Cdotaccent" xMin="38" yMin="-7" xMax="497" yMax="845">
      <component glyphName="C" x="0" y="0" flags="0x1000"/>
      <component glyphName="period" x="200" y="757" flags="0x1000"/>
    </TTGlyph>
    <TTGlyph name="D" xMin="93" yMin="-6" xMax="608" yMax="645">
      <contour>
        <pt x="462" y="645" on="0"/>
        <pt x="608" y="489" on="0"/>
        <pt x="608" y="343" on="1"/>
        <pt x="608" y="174" on="0"/>
        <pt x="450" y="-6" on="0"/>
        <pt x="302" y="-6" on="1"/>
        <pt x="204" y="-6" on="0"/>
        <pt x="94" y="0" on="1"/>
        <pt x="93" y="0" on="1"/>
        <pt x="98" y="193" on="1"/>
        <pt x="93" y="641" on="1"/>
        <pt x="94" y="641" on="1"/>
        <pt x="325" y="645" on="1"/>
      </contour>
      <contour>
        <pt x="417" y="61" on="0"/>
        <pt x="526" y="194" on="0"/>
        <pt x="526" y="326" on="1"/>
        <pt x="526" y="578" on="0"/>
        <pt x="319" y="578" on="1"/>
        <pt x="256" y="578" on="0"/>
        <pt x="174" y="574" on="1"/>
        <pt x="170" y="200" on="1"/>
        <pt x="173" y="67" on="1"/>
        <pt x="243" y="61" on="0"/>
        <pt x="315" y="61" on="1"/>
      </contour>
    </TTGlyph>
    <TTGlyph name="D.ss01" xMin="-100" yMin="0" xMax="666" yMax="498">
      <contour>
        <pt x="417" y="464" on="1"/>
        <pt x="514" y="408" on="0"/>
        <pt x="514" y="265" on="1"/>
        <pt x="514" y="98" on="0"/>
        <pt x="407" y="35" on="1"/>
        <pt x="666" y="35" on="1"/>
        <pt x="666" y="0" on="1"/>
        <pt x="-100" y="0" on="1"/>
        <pt x="-100" y="35" on="1"/>
        <pt x="96" y="35" on="1"/>
        <pt x="98" y="152" on="1"/>
        <pt x="95" y="464" on="1"/>
        <pt x="-100" y="464" on="1"/>
        <pt x="-100" y="498" on="1"/>
        <pt x="666" y="498" on="1"/>
        <pt x="666" y="464" on="1"/>
      </contour>
      <contour>
        <pt x="356" y="60" on="0"/>
        <pt x="440" y="155" on="0"/>
        <pt x="440" y="250" on="1"/>
        <pt x="440" y="344" on="0"/>
        <pt x="360" y="433" on="0"/>
        <pt x="280" y="433" on="1"/>
        <pt x="230" y="433" on="0"/>
        <pt x="168" y="429" on="1"/>
        <pt x="165" y="158" on="1"/>
        <pt x="167" y="66" on="1"/>
        <pt x="231" y="60" on="0"/>
        <pt x="278" y="60" on="1"/>
      </contour>
    </TTGlyph>
    <TTGlyph name="Dcaron" xMin="93" yMin="-6" xMax="608" yMax="848">
      <component glyphName="D" x="0" y="0" flags="0x1000"/>
      <component glyphName="caron.cap" x="120" y="182" flags="0x1000"/>
    </TTGlyph>
    <TTGlyph name="Dcroat" xMin="93" yMin="-6" xMax="608" yMax="816">
      <component glyphName="D" x="0" y="0" flags="0x1000"/>
      <component glyphName="macron" x="119" y="182" flags="0x1000"/>
    </TTGlyph>
    <TTGlyph name="Delta" xMin="14" yMin="0" xMax="556" yMax="641">
      <contour>
        <pt x="14" y="0" on="1"/>
        <pt x="248" y="641" on="1"/>
        <pt x="341" y="641" on="1"/>
        <pt x="556" y="0" on="1"/>
      </contour>
      <contour>
        <pt x="111" y="67" on="1"/>
        <pt x="457" y="67" on="1"/>
        <pt x="297" y="558" on="1"/>
        <pt x="290" y="558" on="1"/>
      </contour>
    </TTGlyph>
    <TTGlyph name="E" xMin="93" yMin="0" xMax="459" yMax="641">
      <contour>
        <pt x="453" y="0" on="1"/>
        <pt x="93" y="0" on="1"/>
        <pt x="98" y="193" on="1"/>
        <pt x="93" y="641" on="1"/>
        <pt x="454" y="641" on="1"/>
        <pt x="458" y="633" on="1"/>
        <pt x="452" y="571" on="1"/>
        <pt x="301" y="574" on="1"/>
        <pt x="174" y="572" on="1"/>
        <pt x="172" y="362" on="1"/>
        <pt x="292" y="360" on="1"/>
        <pt x="398" y="363" on="1"/>
        <pt x="404" y="356" on="1"/>
        <pt x="397" y="294" on="1"/>
        <pt x="285" y="296" on="1"/>
        <pt x="171" y="295" on="1"/>
        <pt x="170" y="200" on="1"/>
        <pt x="173" y="67" on="1"/>
        <pt x="300" y="66" on="1"/>
        <pt x="454" y="70" on="1"/>
        <pt x="459" y="62" on="1"/>
      </contour>
    </TTGlyph>
    <TTGlyph name="Eacute" xMin="93" yMin="0" xMax="459" yMax="863">
      <component glyphName="E" x="0" y="0" flags="0x1000"/>
      <component glyphName="acute.cap" x="107" y="182" flags="0x1000"/>
    </TTGlyph>
    <TTGlyph name="Ebreve" xMin="93" yMin="0" xMax="459" yMax="842">
      <component glyphName="E" x="0" y="0" flags="0x1000"/>
      <component glyphName="breve.cap" x="79" y="182" flags="0x1000"/>
    </TTGlyph>
    <TTGlyph name="Ecaron" xMin="93" yMin="0" xMax="459" yMax="848">
      <component glyphName="E" x="0" y="0" flags="0x1000"/>
      <component glyphName="caron.cap" x="80" y="182" flags="0x1000"/>
    </TTGlyph>
    <TTGlyph name="Ecircumflex" xMin="93" yMin="0" xMax="459" yMax="858">
      <contour>
        <pt x="146" y="767" on="1"/>
        <pt x="213" y="813" on="0"/>
        <pt x="262" y="858" on="1"/>
        <pt x="285" y="858" on="1"/>
        <pt x="330" y="818" on="0"/>
        <pt x="402" y="767" on="1"/>
        <pt x="386" y="733" on="1"/>
        <pt x="377" y="733" on="1"/>
        <pt x="321" y="767" on="0"/>
        <pt x="274" y="799" on="1"/>
        <pt x="235" y="772" on="0"/>
        <pt x="172" y="733" on="1"/>
        <pt x="162" y="733" on="1"/>
      </contour>
      <contour>
        <pt x="459" y="62" on="1"/>
        <pt x="453" y="0" on="1"/>
        <pt x="93" y="0" on="1"/>
        <pt x="98" y="193" on="1"/>
        <pt x="93" y="641" on="1"/>
        <pt x="454" y="641" on="1"/>
        <pt x="459" y="633" on="1"/>
        <pt x="452" y="571" on="1"/>
        <pt x="301" y="574" on="1"/>
        <pt x="174" y="572" on="1"/>
        <pt x="172" y="362" on="1"/>
        <pt x="292" y="360" on="1"/>
        <pt x="398" y="363" on="1"/>
        <pt x="403" y="356" on="1"/>
        <pt x="397" y="294" on="1"/>
        <pt x="285" y="296" on="1"/>
        <pt x="171" y="295" on="1"/>
        <pt x="170" y="200" on="1"/>
        <pt x="173" y="67" on="1"/>
        <pt x="301" y="66" on="1"/>
        <pt x="454" y="70" on="1"/>
      </contour>
    </TTGlyph>
    <TTGlyph name="Ecircumflexacute" xMin="93" yMin="0" xMax="459" yMax="947">
      <component glyphName="E" x="0" y="0" flags="0x1000"/>
      <component glyphName="circumflexacute" x="79" y="182" flags="0x1000"/>
    </TTGlyph>
    <TTGlyph name="Ecircumflexdotbelow" xMin="93" yMin="-163" xMax="459" yMax="858">
      <contour>
        <pt x="146" y="767" on="1"/>
        <pt x="213" y="813" on="0"/>
        <pt x="262" y="858" on="1"/>
        <pt x="285" y="858" on="1"/>
        <pt x="330" y="818" on="0"/>
        <pt x="402" y="767" on="1"/>
        <pt x="386" y="733" on="1"/>
        <pt x="377" y="733" on="1"/>
        <pt x="321" y="767" on="0"/>
        <pt x="274" y="799" on="1"/>
        <pt x="235" y="772" on="0"/>
        <pt x="172" y="733" on="1"/>
        <pt x="162" y="733" on="1"/>
      </contour>
      <contour>
        <pt x="459" y="62" on="1"/>
        <pt x="453" y="0" on="1"/>
        <pt x="93" y="0" on="1"/>
        <pt x="98" y="193" on="1"/>
        <pt x="93" y="641" on="1"/>
        <pt x="454" y="641" on="1"/>
        <pt x="459" y="633" on="1"/>
        <pt x="452" y="571" on="1"/>
        <pt x="301" y="574" on="1"/>
        <pt x="174" y="572" on="1"/>
        <pt x="172" y="362" on="1"/>
        <pt x="292" y="360" on="1"/>
        <pt x="398" y="363" on="1"/>
        <pt x="403" y="356" on="1"/>
        <pt x="397" y="294" on="1"/>
        <pt x="285" y="296" on="1"/>
        <pt x="171" y="295" on="1"/>
        <pt x="170" y="200" on="1"/>
        <pt x="173" y="67" on="1"/>
        <pt x="301" y="66" on="1"/>
        <pt x="454" y="70" on="1"/>
      </contour>
      <contour>
        <pt x="302" y="-70" on="0"/>
        <pt x="326" y="-94" on="0"/>
        <pt x="326" y="-115" on="1"/>
        <pt x="326" y="-137" on="0"/>
        <pt x="301" y="-163" on="0"/>
        <pt x="279" y="-163" on="1"/>
        <pt x="235" y="-163" on="0"/>
        <pt x="235" y="-117" on="1"/>
        <pt x="235" y="-96" on="0"/>
        <pt x="260" y="-70" on="0"/>
        <pt x="282" y="-70" on="1"/>
      </contour>
    </TTGlyph>
    <TTGlyph name="Ecircumflexgrave" xMin="93" yMin="0" xMax="459" yMax="947">
      <component glyphName="E" x="0" y="0" flags="0x1000"/>
      <component glyphName="circumflexgrave" x="79" y="182" flags="0x1000"/>
    </TTGlyph>
    <TTGlyph name="Ecircumflexhookabove" xMin="93" yMin="0" xMax="459" yMax="984">
      <contour>
        <pt x="330" y="943" on="0"/>
        <pt x="302" y="920" on="1"/>
        <pt x="287" y="945" on="1"/>
        <pt x="324" y="984" on="0"/>
        <pt x="368" y="984" on="1"/>
        <pt x="394" y="984" on="0"/>
        <pt x="428" y="954" on="0"/>
        <pt x="428" y="931" on="1"/>
        <pt x="428" y="899" on="0"/>
        <pt x="379" y="859" on="1"/>
        <pt x="398" y="827" on="1"/>
        <pt x="365" y="809" on="1"/>
        <pt x="335" y="861" on="1"/>
        <pt x="383" y="896" on="0"/>
        <pt x="383" y="923" on="1"/>
        <pt x="383" y="943" on="0"/>
        <pt x="357" y="943" on="1"/>
      </contour>
      <contour>
        <pt x="145" y="747" on="1"/>
        <pt x="212" y="793" on="0"/>
        <pt x="261" y="838" on="1"/>
        <pt x="284" y="838" on="1"/>
        <pt x="329" y="798" on="0"/>
        <pt x="401" y="747" on="1"/>
        <pt x="385" y="713" on="1"/>
        <pt x="376" y="713" on="1"/>
        <pt x="320" y="747" on="0"/>
        <pt x="273" y="779" on="1"/>
        <pt x="234" y="752" on="0"/>
        <pt x="171" y="713" on="1"/>
        <pt x="161" y="713" on="1"/>
      </contour>
      <contour>
        <pt x="459" y="62" on="1"/>
        <pt x="453" y="0" on="1"/>
        <pt x="93" y="0" on="1"/>
        <pt x="98" y="193" on="1"/>
        <pt x="93" y="641" on="1"/>
        <pt x="454" y="641" on="1"/>
        <pt x="459" y="633" on="1"/>
        <pt x="452" y="571" on="1"/>
        <pt x="301" y="574" on="1"/>
        <pt x="174" y="572" on="1"/>
        <pt x="172" y="362" on="1"/>
        <pt x="292" y="360" on="1"/>
        <pt x="398" y="363" on="1"/>
        <pt x="403" y="356" on="1"/>
        <pt x="397" y="294" on="1"/>
        <pt x="285" y="296" on="1"/>
        <pt x="171" y="295" on="1"/>
        <pt x="170" y="200" on="1"/>
        <pt x="173" y="67" on="1"/>
        <pt x="301" y="66" on="1"/>
        <pt x="454" y="70" on="1"/>
      </contour>
    </TTGlyph>
    <TTGlyph name="Ecircumflextilde" xMin="93" yMin="0" xMax="459" yMax="947">
      <component glyphName="E" x="0" y="0" flags="0x1000"/>
      <component glyphName="circumflexgrave" x="79" y="182" flags="0x1000"/>
    </TTGlyph>
    <TTGlyph name="Edieresis" xMin="93" yMin="0" xMax="459" yMax="833">
      <contour>
        <pt x="175" y="744" on="0"/>
        <pt x="153" y="768" on="0"/>
        <pt x="153" y="788" on="1"/>
        <pt x="153" y="808" on="0"/>
        <pt x="177" y="833" on="0"/>
        <pt x="198" y="833" on="1"/>
        <pt x="218" y="833" on="0"/>
        <pt x="240" y="811" on="0"/>
        <pt x="240" y="791" on="1"/>
        <pt x="240" y="770" on="0"/>
        <pt x="216" y="744" on="0"/>
        <pt x="195" y="744" on="1"/>
      </contour>
      <contour>
        <pt x="332" y="744" on="0"/>
        <pt x="310" y="768" on="0"/>
        <pt x="310" y="788" on="1"/>
        <pt x="310" y="808" on="0"/>
        <pt x="334" y="833" on="0"/>
        <pt x="355" y="833" on="1"/>
        <pt x="375" y="833" on="0"/>
        <pt x="397" y="811" on="0"/>
        <pt x="397" y="791" on="1"/>
        <pt x="397" y="770" on="0"/>
        <pt x="373" y="744" on="0"/>
        <pt x="352" y="744" on="1"/>
      </contour>
      <contour>
        <pt x="459" y="62" on="1"/>
        <pt x="453" y="0" on="1"/>
        <pt x="93" y="0" on="1"/>
        <pt x="98" y="193" on="1"/>
        <pt x="93" y="641" on="1"/>
        <pt x="454" y="641" on="1"/>
        <pt x="459" y="633" on="1"/>
        <pt x="452" y="571" on="1"/>
        <pt x="301" y="574" on="1"/>
        <pt x="174" y="572" on="1"/>
        <pt x="172" y="362" on="1"/>
        <pt x="292" y="360" on="1"/>
        <pt x="398" y="363" on="1"/>
        <pt x="403" y="356" on="1"/>
        <pt x="397" y="294" on="1"/>
        <pt x="285" y="296" on="1"/>
        <pt x="171" y="295" on="1"/>
        <pt x="170" y="200" on="1"/>
        <pt x="173" y="67" on="1"/>
        <pt x="301" y="66" on="1"/>
        <pt x="454" y="70" on="1"/>
      </contour>
    </TTGlyph>
    <TTGlyph name="Edotaccent" xMin="93" yMin="0" xMax="459" yMax="845">
      <contour>
        <pt x="229" y="752" on="0"/>
        <pt x="229" y="798" on="1"/>
        <pt x="229" y="819" on="0"/>
        <pt x="254" y="845" on="0"/>
        <pt x="276" y="845" on="1"/>
        <pt x="296" y="845" on="0"/>
        <pt x="320" y="821" on="0"/>
        <pt x="320" y="801" on="1"/>
        <pt x="320" y="778" on="0"/>
        <pt x="295" y="752" on="0"/>
        <pt x="273" y="752" on="1"/>
      </contour>
      <contour>
        <pt x="459" y="62" on="1"/>
        <pt x="453" y="0" on="1"/>
        <pt x="93" y="0" on="1"/>
        <pt x="98" y="193" on="1"/>
        <pt x="93" y="641" on="1"/>
        <pt x="454" y="641" on="1"/>
        <pt x="459" y="633" on="1"/>
        <pt x="452" y="571" on="1"/>
        <pt x="301" y="574" on="1"/>
        <pt x="174" y="572" on="1"/>
        <pt x="172" y="362" on="1"/>
        <pt x="292" y="360" on="1"/>
        <pt x="398" y="363" on="1"/>
        <pt x="403" y="356" on="1"/>
        <pt x="397" y="294" on="1"/>
        <pt x="285" y="296" on="1"/>
        <pt x="171" y="295" on="1"/>
        <pt x="170" y="200" on="1"/>
        <pt x="173" y="67" on="1"/>
        <pt x="301" y="66" on="1"/>
        <pt x="454" y="70" on="1"/>
      </contour>
    </TTGlyph>
    <TTGlyph name="Edotbelow" xMin="93" yMin="-163" xMax="459" yMax="641">
      <contour>
        <pt x="459" y="62" on="1"/>
        <pt x="453" y="0" on="1"/>
        <pt x="93" y="0" on="1"/>
        <pt x="98" y="193" on="1"/>
        <pt x="93" y="641" on="1"/>
        <pt x="454" y="641" on="1"/>
        <pt x="459" y="633" on="1"/>
        <pt x="452" y="571" on="1"/>
        <pt x="301" y="574" on="1"/>
        <pt x="174" y="572" on="1"/>
        <pt x="172" y="362" on="1"/>
        <pt x="292" y="360" on="1"/>
        <pt x="398" y="363" on="1"/>
        <pt x="403" y="356" on="1"/>
        <pt x="397" y="294" on="1"/>
        <pt x="285" y="296" on="1"/>
        <pt x="171" y="295" on="1"/>
        <pt x="170" y="200" on="1"/>
        <pt x="173" y="67" on="1"/>
        <pt x="301" y="66" on="1"/>
        <pt x="454" y="70" on="1"/>
      </contour>
      <contour>
        <pt x="302" y="-70" on="0"/>
        <pt x="326" y="-94" on="0"/>
        <pt x="326" y="-115" on="1"/>
        <pt x="326" y="-137" on="0"/>
        <pt x="301" y="-163" on="0"/>
        <pt x="279" y="-163" on="1"/>
        <pt x="235" y="-163" on="0"/>
        <pt x="235" y="-117" on="1"/>
        <pt x="235" y="-96" on="0"/>
        <pt x="260" y="-70" on="0"/>
        <pt x="282" y="-70" on="1"/>
      </contour>
    </TTGlyph>
    <TTGlyph name="Egrave" xMin="93" yMin="0" xMax="459" yMax="864">
      <contour>
        <pt x="255" y="766" on="0"/>
        <pt x="166" y="807" on="1"/>
        <pt x="164" y="815" on="1"/>
        <pt x="184" y="862" on="1"/>
        <pt x="193" y="864" on="1"/>
        <pt x="282" y="812" on="0"/>
        <pt x="385" y="761" on="1"/>
        <pt x="371" y="725" on="1"/>
        <pt x="361" y="721" on="1"/>
      </contour>
      <contour>
        <pt x="459" y="62" on="1"/>
        <pt x="453" y="0" on="1"/>
        <pt x="93" y="0" on="1"/>
        <pt x="98" y="193" on="1"/>
        <pt x="93" y="641" on="1"/>
        <pt x="454" y="641" on="1"/>
        <pt x="459" y="633" on="1"/>
        <pt x="452" y="571" on="1"/>
        <pt x="301" y="574" on="1"/>
        <pt x="174" y="572" on="1"/>
        <pt x="172" y="362" on="1"/>
        <pt x="292" y="360" on="1"/>
        <pt x="398" y="363" on="1"/>
        <pt x="403" y="356" on="1"/>
        <pt x="397" y="294" on="1"/>
        <pt x="285" y="296" on="1"/>
        <pt x="171" y="295" on="1"/>
        <pt x="170" y="200" on="1"/>
        <pt x="173" y="67" on="1"/>
        <pt x="301" y="66" on="1"/>
        <pt x="454" y="70" on="1"/>
      </contour>
    </TTGlyph>
    <TTGlyph name="Ehookabove" xMin="93" yMin="0" xMax="459" yMax="894">
      <component glyphName="E" x="0" y="0" flags="0x1000"/>
      <component glyphName="hookabove" x="78" y="181" flags="0x1000"/>
    </TTGlyph>
    <TTGlyph name="Emacron" xMin="93" yMin="0" xMax="459" yMax="816">
      <component glyphName="E" x="0" y="0" flags="0x1000"/>
      <component glyphName="macron" x="79" y="182" flags="0x1000"/>
    </TTGlyph>
    <TTGlyph name="Eng" xMin="93" yMin="-160" xMax="591" yMax="643">
      <contour>
        <pt x="586" y="56" on="1"/>
        <pt x="586" y="-18" on="0"/>
        <pt x="510" y="-116" on="0"/>
        <pt x="416" y="-160" on="1"/>
        <pt x="385" y="-116" on="1"/>
        <pt x="385" y="-106" on="1"/>
        <pt x="435" y="-79" on="0"/>
        <pt x="491" y="-29" on="0"/>
        <pt x="503" y="1" on="1"/>
        <pt x="172" y="513" on="1"/>
        <pt x="166" y="513" on="1"/>
        <pt x="165" y="211" on="1"/>
        <pt x="168" y="0" on="1"/>
        <pt x="93" y="0" on="1"/>
        <pt x="98" y="190" on="1"/>
        <pt x="95" y="641" on="1"/>
        <pt x="179" y="641" on="1"/>
        <pt x="509" y="129" on="1"/>
        <pt x="516" y="129" on="1"/>
        <pt x="515" y="637" on="1"/>
        <pt x="591" y="643" on="1"/>
        <pt x="585" y="188" on="1"/>
      </contour>
    </TTGlyph>
    <TTGlyph name="Eogonek" xMin="93" yMin="-197" xMax="466" yMax="641">
      <contour>
        <pt x="416" y="-197" on="0"/>
        <pt x="368" y="-197" on="1"/>
        <pt x="332" y="-197" on="0"/>
        <pt x="289" y="-153" on="0"/>
        <pt x="289" y="-117" on="1"/>
        <pt x="289" y="-79" on="0"/>
        <pt x="314" y="-44" on="1"/>
        <pt x="344" y="0" on="1"/>
        <pt x="93" y="0" on="1"/>
        <pt x="98" y="193" on="1"/>
        <pt x="93" y="641" on="1"/>
        <pt x="454" y="641" on="1"/>
        <pt x="459" y="633" on="1"/>
        <pt x="452" y="571" on="1"/>
        <pt x="301" y="574" on="1"/>
        <pt x="174" y="572" on="1"/>
        <pt x="172" y="362" on="1"/>
        <pt x="292" y="360" on="1"/>
        <pt x="398" y="363" on="1"/>
        <pt x="403" y="356" on="1"/>
        <pt x="397" y="294" on="1"/>
        <pt x="285" y="296" on="1"/>
        <pt x="171" y="295" on="1"/>
        <pt x="170" y="200" on="1"/>
        <pt x="173" y="67" on="1"/>
        <pt x="301" y="66" on="1"/>
        <pt x="454" y="70" on="1"/>
        <pt x="459" y="62" on="1"/>
        <pt x="453" y="0" on="1"/>
        <pt x="394" y="0" on="1"/>
        <pt x="359" y="-53" on="1"/>
        <pt x="341" y="-82" on="0"/>
        <pt x="341" y="-103" on="1"/>
        <pt x="341" y="-121" on="0"/>
        <pt x="362" y="-143" on="0"/>
        <pt x="381" y="-143" on="1"/>
        <pt x="415" y="-143" on="0"/>
        <pt x="450" y="-105" on="1"/>
        <pt x="455" y="-105" on="1"/>
        <pt x="466" y="-145" on="1"/>
      </contour>
    </TTGlyph>
    <TTGlyph name="Eth" xMin="12" yMin="-6" xMax="630" yMax="645">
      <contour>
        <pt x="483" y="645" on="0"/>
        <pt x="630" y="489" on="0"/>
        <pt x="630" y="343" on="1"/>
        <pt x="630" y="174" on="0"/>
        <pt x="471" y="-6" on="0"/>
        <pt x="323" y="-6" on="1"/>
        <pt x="225" y="-6" on="0"/>
        <pt x="115" y="0" on="1"/>
        <pt x="114" y="0" on="1"/>
        <pt x="120" y="193" on="1"/>
        <pt x="119" y="296" on="1"/>
        <pt x="16" y="296" on="1"/>
        <pt x="12" y="303" on="1"/>
        <pt x="15" y="353" on="1"/>
        <pt x="118" y="353" on="1"/>
        <pt x="114" y="641" on="1"/>
        <pt x="115" y="641" on="1"/>
        <pt x="346" y="645" on="1"/>
      </contour>
      <contour>
        <pt x="439" y="61" on="0"/>
        <pt x="548" y="194" on="0"/>
        <pt x="548" y="326" on="1"/>
        <pt x="548" y="578" on="0"/>
        <pt x="341" y="578" on="1"/>
        <pt x="275" y="578" on="0"/>
        <pt x="195" y="574" on="1"/>
        <pt x="193" y="353" on="1"/>
        <pt x="338" y="353" on="1"/>
        <pt x="342" y="346" on="1"/>
        <pt x="339" y="296" on="1"/>
        <pt x="193" y="296" on="1"/>
        <pt x="192" y="200" on="1"/>
        <pt x="194" y="67" on="1"/>
        <pt x="266" y="61" on="0"/>
        <pt x="336" y="61" on="1"/>
      </contour>
    </TTGlyph>
    <TTGlyph name="Etilde" xMin="93" yMin="0" xMax="459" yMax="849">
      <component glyphName="E" x="0" y="0" flags="0x1000"/>
      <component glyphName="tilde" x="79" y="182" flags="0x1000"/>
    </TTGlyph>
    <TTGlyph name="Euro" xMin="16" yMin="-6" xMax="451" yMax="501">
      <contour>
        <pt x="381" y="50" on="0"/>
        <pt x="438" y="90" on="1"/>
        <pt x="447" y="85" on="1"/>
        <pt x="441" y="33" on="1"/>
        <pt x="375" y="-6" on="0"/>
        <pt x="306" y="-6" on="1"/>
        <pt x="130" y="-6" on="0"/>
        <pt x="94" y="161" on="1"/>
        <pt x="20" y="161" on="1"/>
        <pt x="16" y="166" on="1"/>
        <pt x="19" y="208" on="1"/>
        <pt x="88" y="208" on="1"/>
        <pt x="87" y="242" on="1"/>
        <pt x="87" y="264" on="0"/>
        <pt x="88" y="275" on="1"/>
        <pt x="20" y="275" on="1"/>
        <pt x="16" y="280" on="1"/>
        <pt x="19" y="322" on="1"/>
        <pt x="94" y="322" on="1"/>
        <pt x="112" y="409" on="0"/>
        <pt x="226" y="501" on="0"/>
        <pt x="318" y="501" on="1"/>
        <pt x="392" y="501" on="0"/>
        <pt x="451" y="465" on="1"/>
        <pt x="439" y="412" on="1"/>
        <pt x="432" y="410" on="1"/>
        <pt x="381" y="447" on="0"/>
        <pt x="314" y="447" on="1"/>
        <pt x="189" y="447" on="0"/>
        <pt x="162" y="322" on="1"/>
        <pt x="348" y="322" on="1"/>
        <pt x="352" y="317" on="1"/>
        <pt x="349" y="275" on="1"/>
        <pt x="157" y="275" on="1"/>
        <pt x="156" y="247" on="1"/>
        <pt x="156" y="220" on="0"/>
        <pt x="157" y="208" on="1"/>
        <pt x="348" y="208" on="1"/>
        <pt x="352" y="203" on="1"/>
        <pt x="349" y="161" on="1"/>
        <pt x="165" y="161" on="1"/>
        <pt x="197" y="50" on="0"/>
        <pt x="309" y="50" on="1"/>
      </contour>
    </TTGlyph>
    <TTGlyph name="F" xMin="93" yMin="0" xMax="440" yMax="641">
      <contour>
        <pt x="172" y="349" on="1"/>
        <pt x="280" y="347" on="1"/>
        <pt x="384" y="350" on="1"/>
        <pt x="390" y="342" on="1"/>
        <pt x="383" y="281" on="1"/>
        <pt x="272" y="284" on="1"/>
        <pt x="171" y="283" on="1"/>
        <pt x="170" y="200" on="1"/>
        <pt x="174" y="0" on="1"/>
        <pt x="93" y="0" on="1"/>
        <pt x="98" y="193" on="1"/>
        <pt x="93" y="641" on="1"/>
        <pt x="434" y="641" on="1"/>
        <pt x="440" y="633" on="1"/>
        <pt x="433" y="569" on="1"/>
        <pt x="286" y="574" on="1"/>
        <pt x="174" y="572" on="1"/>
      </contour>
    </TTGlyph>
    <TTGlyph name="G" xMin="38" yMin="-7" xMax="538" yMax="646">
      <contour>
        <pt x="451" y="646" on="0"/>
        <pt x="538" y="601" on="1"/>
        <pt x="522" y="525" on="1"/>
        <pt x="512" y="523" on="1"/>
        <pt x="464" y="553" on="0"/>
        <pt x="383" y="579" on="0"/>
        <pt x="338" y="579" on="1"/>
        <pt x="121" y="579" on="0"/>
        <pt x="121" y="311" on="1"/>
        <pt x="121" y="182" on="0"/>
        <pt x="222" y="61" on="0"/>
        <pt x="328" y="61" on="1"/>
        <pt x="378" y="61" on="0"/>
        <pt x="458" y="85" on="1"/>
        <pt x="460" y="160" on="1"/>
        <pt x="459" y="251" on="1"/>
        <pt x="534" y="257" on="1"/>
        <pt x="532" y="171" on="1"/>
        <pt x="536" y="31" on="1"/>
        <pt x="414" y="-7" on="0"/>
        <pt x="324" y="-7" on="1"/>
        <pt x="181" y="-7" on="0"/>
        <pt x="38" y="155" on="0"/>
        <pt x="38" y="308" on="1"/>
        <pt x="38" y="473" on="0"/>
        <pt x="200" y="646" on="0"/>
        <pt x="350" y="646" on="1"/>
      </contour>
    </TTGlyph>
    <TTGlyph name="Gbreve" xMin="38" yMin="-7" xMax="538" yMax="842">
      <component glyphName="G" x="0" y="0" flags="0x1000"/>
      <component glyphName="breve.cap" x="131" y="182" flags="0x1000"/>
    </TTGlyph>
    <TTGlyph name="Gcircumflex" xMin="38" yMin="-7" xMax="539" yMax="858">
      <contour>
        <pt x="265" y="813" on="0"/>
        <pt x="314" y="858" on="1"/>
        <pt x="337" y="858" on="1"/>
        <pt x="382" y="818" on="0"/>
        <pt x="454" y="767" on="1"/>
        <pt x="438" y="733" on="1"/>
        <pt x="429" y="733" on="1"/>
        <pt x="373" y="767" on="0"/>
        <pt x="326" y="799" on="1"/>
        <pt x="287" y="772" on="0"/>
        <pt x="224" y="733" on="1"/>
        <pt x="214" y="733" on="1"/>
        <pt x="198" y="767" on="1"/>
      </contour>
      <contour>
        <pt x="450" y="646" on="0"/>
        <pt x="539" y="601" on="1"/>
        <pt x="522" y="525" on="1"/>
        <pt x="512" y="523" on="1"/>
        <pt x="464" y="553" on="0"/>
        <pt x="383" y="579" on="0"/>
        <pt x="338" y="579" on="1"/>
        <pt x="121" y="579" on="0"/>
        <pt x="121" y="311" on="1"/>
        <pt x="121" y="182" on="0"/>
        <pt x="222" y="61" on="0"/>
        <pt x="328" y="61" on="1"/>
        <pt x="378" y="61" on="0"/>
        <pt x="458" y="85" on="1"/>
        <pt x="461" y="160" on="1"/>
        <pt x="459" y="251" on="1"/>
        <pt x="534" y="257" on="1"/>
        <pt x="532" y="171" on="1"/>
        <pt x="536" y="31" on="1"/>
        <pt x="414" y="-7" on="0"/>
        <pt x="324" y="-7" on="1"/>
        <pt x="181" y="-7" on="0"/>
        <pt x="38" y="155" on="0"/>
        <pt x="38" y="308" on="1"/>
        <pt x="38" y="473" on="0"/>
        <pt x="200" y="646" on="0"/>
        <pt x="350" y="646" on="1"/>
      </contour>
    </TTGlyph>
    <TTGlyph name="Gcommaaccent" xMin="38" yMin="-243" xMax="539" yMax="646">
      <contour>
        <pt x="450" y="646" on="0"/>
        <pt x="539" y="601" on="1"/>
        <pt x="522" y="525" on="1"/>
        <pt x="512" y="523" on="1"/>
        <pt x="464" y="553" on="0"/>
        <pt x="383" y="579" on="0"/>
        <pt x="338" y="579" on="1"/>
        <pt x="121" y="579" on="0"/>
        <pt x="121" y="311" on="1"/>
        <pt x="121" y="182" on="0"/>
        <pt x="222" y="61" on="0"/>
        <pt x="328" y="61" on="1"/>
        <pt x="378" y="61" on="0"/>
        <pt x="458" y="85" on="1"/>
        <pt x="461" y="160" on="1"/>
        <pt x="459" y="251" on="1"/>
        <pt x="534" y="257" on="1"/>
        <pt x="532" y="171" on="1"/>
        <pt x="536" y="31" on="1"/>
        <pt x="414" y="-7" on="0"/>
        <pt x="324" y="-7" on="1"/>
        <pt x="181" y="-7" on="0"/>
        <pt x="38" y="155" on="0"/>
        <pt x="38" y="308" on="1"/>
        <pt x="38" y="473" on="0"/>
        <pt x="200" y="646" on="0"/>
        <pt x="350" y="646" on="1"/>
      </contour>
      <contour>
        <pt x="365" y="-82" on="0"/>
        <pt x="365" y="-118" on="1"/>
        <pt x="365" y="-179" on="0"/>
        <pt x="277" y="-243" on="1"/>
        <pt x="251" y="-220" on="1"/>
        <pt x="251" y="-214" on="1"/>
        <pt x="303" y="-173" on="0"/>
        <pt x="303" y="-132" on="1"/>
        <pt x="303" y="-108" on="0"/>
        <pt x="274" y="-87" on="1"/>
        <pt x="274" y="-80" on="1"/>
        <pt x="298" y="-64" on="0"/>
        <pt x="326" y="-55" on="1"/>
      </contour>
    </TTGlyph>
    <TTGlyph name="Gdieresis" xMin="38" yMin="-7" xMax="539" yMax="833">
      <contour>
        <pt x="270" y="833" on="0"/>
        <pt x="292" y="811" on="0"/>
        <pt x="292" y="791" on="1"/>
        <pt x="292" y="770" on="0"/>
        <pt x="268" y="744" on="0"/>
        <pt x="247" y="744" on="1"/>
        <pt x="227" y="744" on="0"/>
        <pt x="205" y="768" on="0"/>
        <pt x="205" y="788" on="1"/>
        <pt x="205" y="808" on="0"/>
        <pt x="229" y="833" on="0"/>
        <pt x="250" y="833" on="1"/>
      </contour>
      <contour>
        <pt x="427" y="833" on="0"/>
        <pt x="449" y="811" on="0"/>
        <pt x="449" y="791" on="1"/>
        <pt x="449" y="770" on="0"/>
        <pt x="425" y="744" on="0"/>
        <pt x="404" y="744" on="1"/>
        <pt x="384" y="744" on="0"/>
        <pt x="362" y="768" on="0"/>
        <pt x="362" y="788" on="1"/>
        <pt x="362" y="808" on="0"/>
        <pt x="386" y="833" on="0"/>
        <pt x="407" y="833" on="1"/>
      </contour>
      <contour>
        <pt x="450" y="646" on="0"/>
        <pt x="539" y="601" on="1"/>
        <pt x="522" y="525" on="1"/>
        <pt x="512" y="523" on="1"/>
        <pt x="464" y="553" on="0"/>
        <pt x="383" y="579" on="0"/>
        <pt x="338" y="579" on="1"/>
        <pt x="121" y="579" on="0"/>
        <pt x="121" y="311" on="1"/>
        <pt x="121" y="182" on="0"/>
        <pt x="222" y="61" on="0"/>
        <pt x="328" y="61" on="1"/>
        <pt x="378" y="61" on="0"/>
        <pt x="458" y="85" on="1"/>
        <pt x="461" y="160" on="1"/>
        <pt x="459" y="251" on="1"/>
        <pt x="534" y="257" on="1"/>
        <pt x="532" y="171" on="1"/>
        <pt x="536" y="31" on="1"/>
        <pt x="414" y="-7" on="0"/>
        <pt x="324" y="-7" on="1"/>
        <pt x="181" y="-7" on="0"/>
        <pt x="38" y="155" on="0"/>
        <pt x="38" y="308" on="1"/>
        <pt x="38" y="473" on="0"/>
        <pt x="200" y="646" on="0"/>
        <pt x="350" y="646" on="1"/>
      </contour>
    </TTGlyph>
    <TTGlyph name="Gdotaccent" xMin="38" yMin="-7" xMax="538" yMax="845">
      <component glyphName="G" x="0" y="0" flags="0x1000"/>
      <component glyphName="period" x="212" y="757" flags="0x1000"/>
    </TTGlyph>
    <TTGlyph name="Gtilde" xMin="38" yMin="-7" xMax="538" yMax="849">
      <component glyphName="G" x="0" y="0" flags="0x1000"/>
      <component glyphName="tilde" x="131" y="182" flags="0x1000"/>
    </TTGlyph>
    <TTGlyph name="H" xMin="93" yMin="0" xMax="590" yMax="641">
      <contour>
        <pt x="589" y="0" on="1"/>
        <pt x="508" y="0" on="1"/>
        <pt x="514" y="193" on="1"/>
        <pt x="513" y="289" on="1"/>
        <pt x="333" y="292" on="1"/>
        <pt x="171" y="289" on="1"/>
        <pt x="170" y="200" on="1"/>
        <pt x="174" y="0" on="1"/>
        <pt x="93" y="0" on="1"/>
        <pt x="98" y="193" on="1"/>
        <pt x="93" y="641" on="1"/>
        <pt x="175" y="641" on="1"/>
        <pt x="172" y="359" on="1"/>
        <pt x="340" y="356" on="1"/>
        <pt x="512" y="359" on="1"/>
        <pt x="508" y="641" on="1"/>
        <pt x="590" y="641" on="1"/>
        <pt x="586" y="200" on="1"/>
      </contour>
    </TTGlyph>
    <TTGlyph name="Hbar" xMin="40" yMin="0" xMax="675" yMax="641">
      <contour>
        <pt x="600" y="200" on="1"/>
        <pt x="603" y="0" on="1"/>
        <pt x="522" y="0" on="1"/>
        <pt x="528" y="193" on="1"/>
        <pt x="527" y="289" on="1"/>
        <pt x="348" y="292" on="1"/>
        <pt x="185" y="289" on="1"/>
        <pt x="184" y="200" on="1"/>
        <pt x="188" y="0" on="1"/>
        <pt x="107" y="0" on="1"/>
        <pt x="112" y="193" on="1"/>
        <pt x="109" y="478" on="1"/>
        <pt x="45" y="478" on="1"/>
        <pt x="40" y="482" on="1"/>
        <pt x="44" y="534" on="1"/>
        <pt x="108" y="534" on="1"/>
        <pt x="107" y="641" on="1"/>
        <pt x="189" y="641" on="1"/>
        <pt x="188" y="534" on="1"/>
        <pt x="523" y="534" on="1"/>
        <pt x="522" y="641" on="1"/>
        <pt x="604" y="641" on="1"/>
        <pt x="603" y="534" on="1"/>
        <pt x="670" y="534" on="1"/>
        <pt x="675" y="528" on="1"/>
        <pt x="671" y="478" on="1"/>
        <pt x="603" y="478" on="1"/>
      </contour>
      <contour>
        <pt x="187" y="478" on="1"/>
        <pt x="186" y="359" on="1"/>
        <pt x="354" y="356" on="1"/>
        <pt x="526" y="359" on="1"/>
        <pt x="524" y="478" on="1"/>
      </contour>
    </TTGlyph>
    <TTGlyph name="Hcircumflex" xMin="93" yMin="0" xMax="590" yMax="858">
      <contour>
        <pt x="210" y="767" on="1"/>
        <pt x="277" y="813" on="0"/>
        <pt x="326" y="858" on="1"/>
        <pt x="349" y="858" on="1"/>
        <pt x="394" y="818" on="0"/>
        <pt x="466" y="767" on="1"/>
        <pt x="450" y="733" on="1"/>
        <pt x="441" y="733" on="1"/>
        <pt x="385" y="767" on="0"/>
        <pt x="338" y="799" on="1"/>
        <pt x="299" y="772" on="0"/>
        <pt x="236" y="733" on="1"/>
        <pt x="226" y="733" on="1"/>
      </contour>
      <contour>
        <pt x="589" y="0" on="1"/>
        <pt x="508" y="0" on="1"/>
        <pt x="513" y="193" on="1"/>
        <pt x="512" y="289" on="1"/>
        <pt x="334" y="292" on="1"/>
        <pt x="171" y="289" on="1"/>
        <pt x="170" y="200" on="1"/>
        <pt x="174" y="0" on="1"/>
        <pt x="93" y="0" on="1"/>
        <pt x="98" y="193" on="1"/>
        <pt x="93" y="641" on="1"/>
        <pt x="175" y="641" on="1"/>
        <pt x="172" y="359" on="1"/>
        <pt x="341" y="356" on="1"/>
        <pt x="511" y="359" on="1"/>
        <pt x="508" y="641" on="1"/>
        <pt x="590" y="641" on="1"/>
        <pt x="585" y="200" on="1"/>
      </contour>
    </TTGlyph>
    <TTGlyph name="I" xMin="93" yMin="0" xMax="175" yMax="641">
      <contour>
        <pt x="174" y="0" on="1"/>
        <pt x="93" y="0" on="1"/>
        <pt x="98" y="193" on="1"/>
        <pt x="93" y="641" on="1"/>
        <pt x="175" y="641" on="1"/>
        <pt x="170" y="200" on="1"/>
      </contour>
    </TTGlyph>
    <TTGlyph name="I.ss01" xMin="-100" yMin="0" xMax="359" yMax="498">
      <contour>
        <pt x="164" y="35" on="1"/>
        <pt x="359" y="35" on="1"/>
        <pt x="359" y="0" on="1"/>
        <pt x="-100" y="0" on="1"/>
        <pt x="-100" y="35" on="1"/>
        <pt x="91" y="35" on="1"/>
        <pt x="93" y="150" on="1"/>
        <pt x="90" y="464" on="1"/>
        <pt x="-100" y="464" on="1"/>
        <pt x="-100" y="498" on="1"/>
        <pt x="359" y="498" on="1"/>
        <pt x="359" y="464" on="1"/>
        <pt x="165" y="464" on="1"/>
        <pt x="162" y="157" on="1"/>
      </contour>
    </TTGlyph>
    <TTGlyph name="IJ" xMin="93" yMin="-102" xMax="485" yMax="641">
      <component glyphName="I" x="0" y="0" flags="0x1000"/>
      <component glyphName="J" x="268" y="0" flags="0x1000"/>
    </TTGlyph>
    <TTGlyph name="Iacute" xMin="50" yMin="0" xMax="271" yMax="863">
      <component glyphName="I" x="0" y="0" flags="0x1000"/>
      <component glyphName="acute.cap" x="-34" y="182" flags="0x1000"/>
    </TTGlyph>
    <TTGlyph name="Iacute_J.loclNLD" xMin="50" yMin="-102" xMax="538" yMax="863">
      <component glyphName="I" x="0" y="0" flags="0x1000"/>
      <component glyphName="acute.cap" x="-34" y="182" flags="0x1000"/>
      <component glyphName="J" x="268" y="0" flags="0x1000"/>
      <component glyphName="acute.cap" x="233" y="182" flags="0x1000"/>
    </TTGlyph>
    <TTGlyph name="Ibreve" xMin="8" yMin="0" xMax="261" yMax="842">
      <component glyphName="I" x="0" y="0" flags="0x1000"/>
      <component glyphName="breve.cap" x="-61" y="182" flags="0x1000"/>
    </TTGlyph>
    <TTGlyph name="Icaron" xMin="7" yMin="0" xMax="263" yMax="848">
      <component glyphName="I" x="0" y="0" flags="0x1000"/>
      <component glyphName="caron.cap" x="-60" y="182" flags="0x1000"/>
    </TTGlyph>
    <TTGlyph name="Icircumflex" xMin="6" yMin="0" xMax="262" yMax="858">
      <contour>
        <pt x="73" y="813" on="0"/>
        <pt x="122" y="858" on="1"/>
        <pt x="145" y="858" on="1"/>
        <pt x="190" y="818" on="0"/>
        <pt x="262" y="767" on="1"/>
        <pt x="246" y="733" on="1"/>
        <pt x="237" y="733" on="1"/>
        <pt x="181" y="767" on="0"/>
        <pt x="134" y="799" on="1"/>
        <pt x="95" y="772" on="0"/>
        <pt x="32" y="733" on="1"/>
        <pt x="22" y="733" on="1"/>
        <pt x="6" y="767" on="1"/>
      </contour>
      <contour>
        <pt x="174" y="0" on="1"/>
        <pt x="93" y="0" on="1"/>
        <pt x="98" y="193" on="1"/>
        <pt x="93" y="641" on="1"/>
        <pt x="175" y="641" on="1"/>
        <pt x="170" y="200" on="1"/>
      </contour>
    </TTGlyph>
    <TTGlyph name="Idieresis" xMin="27" yMin="0" xMax="242" yMax="833">
      <contour>
        <pt x="92" y="833" on="0"/>
        <pt x="114" y="811" on="0"/>
        <pt x="114" y="791" on="1"/>
        <pt x="114" y="770" on="0"/>
        <pt x="90" y="744" on="0"/>
        <pt x="69" y="744" on="1"/>
        <pt x="49" y="744" on="0"/>
        <pt x="27" y="768" on="0"/>
        <pt x="27" y="788" on="1"/>
        <pt x="27" y="808" on="0"/>
        <pt x="51" y="833" on="0"/>
        <pt x="72" y="833" on="1"/>
      </contour>
      <contour>
        <pt x="220" y="833" on="0"/>
        <pt x="242" y="811" on="0"/>
        <pt x="242" y="791" on="1"/>
        <pt x="242" y="770" on="0"/>
        <pt x="218" y="744" on="0"/>
        <pt x="197" y="744" on="1"/>
        <pt x="177" y="744" on="0"/>
        <pt x="155" y="768" on="0"/>
        <pt x="155" y="788" on="1"/>
        <pt x="155" y="808" on="0"/>
        <pt x="179" y="833" on="0"/>
        <pt x="200" y="833" on="1"/>
      </contour>
      <contour>
        <pt x="174" y="0" on="1"/>
        <pt x="93" y="0" on="1"/>
        <pt x="98" y="193" on="1"/>
        <pt x="93" y="641" on="1"/>
        <pt x="175" y="641" on="1"/>
        <pt x="170" y="200" on="1"/>
      </contour>
    </TTGlyph>
    <TTGlyph name="Idotaccent" xMin="88" yMin="0" xMax="179" yMax="845">
      <contour>
        <pt x="155" y="845" on="0"/>
        <pt x="179" y="821" on="0"/>
        <pt x="179" y="801" on="1"/>
        <pt x="179" y="778" on="0"/>
        <pt x="154" y="752" on="0"/>
        <pt x="132" y="752" on="1"/>
        <pt x="88" y="752" on="0"/>
        <pt x="88" y="798" on="1"/>
        <pt x="88" y="819" on="0"/>
        <pt x="113" y="845" on="0"/>
        <pt x="135" y="845" on="1"/>
      </contour>
      <contour>
        <pt x="174" y="0" on="1"/>
        <pt x="93" y="0" on="1"/>
        <pt x="98" y="193" on="1"/>
        <pt x="93" y="641" on="1"/>
        <pt x="175" y="641" on="1"/>
        <pt x="170" y="200" on="1"/>
      </contour>
    </TTGlyph>
    <TTGlyph name="Idotbelow" xMin="83" yMin="-163" xMax="175" yMax="641">
      <contour>
        <pt x="174" y="0" on="1"/>
        <pt x="93" y="0" on="1"/>
        <pt x="98" y="193" on="1"/>
        <pt x="93" y="641" on="1"/>
        <pt x="175" y="641" on="1"/>
        <pt x="170" y="200" on="1"/>
      </contour>
      <contour>
        <pt x="150" y="-70" on="0"/>
        <pt x="174" y="-94" on="0"/>
        <pt x="174" y="-115" on="1"/>
        <pt x="174" y="-137" on="0"/>
        <pt x="149" y="-163" on="0"/>
        <pt x="127" y="-163" on="1"/>
        <pt x="83" y="-163" on="0"/>
        <pt x="83" y="-117" on="1"/>
        <pt x="83" y="-96" on="0"/>
        <pt x="108" y="-70" on="0"/>
        <pt x="130" y="-70" on="1"/>
      </contour>
    </TTGlyph>
    <TTGlyph name="Igrave" xMin="24" yMin="0" xMax="245" yMax="864">
      <contour>
        <pt x="142" y="812" on="0"/>
        <pt x="245" y="761" on="1"/>
        <pt x="231" y="725" on="1"/>
        <pt x="221" y="721" on="1"/>
        <pt x="115" y="766" on="0"/>
        <pt x="26" y="807" on="1"/>
        <pt x="24" y="815" on="1"/>
        <pt x="44" y="862" on="1"/>
        <pt x="53" y="864" on="1"/>
      </contour>
      <contour>
        <pt x="174" y="0" on="1"/>
        <pt x="93" y="0" on="1"/>
        <pt x="98" y="193" on="1"/>
        <pt x="93" y="641" on="1"/>
        <pt x="175" y="641" on="1"/>
        <pt x="170" y="200" on="1"/>
      </contour>
    </TTGlyph>
    <TTGlyph name="Ihookabove" xMin="44" yMin="0" xMax="193" yMax="894">
      <component glyphName="I" x="0" y="0" flags="0x1000"/>
      <component glyphName="hookabove" x="-62" y="181" flags="0x1000"/>
    </TTGlyph>
    <TTGlyph name="Imacron" xMin="21" yMin="0" xMax="247" yMax="816">
      <component glyphName="I" x="0" y="0" flags="0x1000"/>
      <component glyphName="macron.i" x="-61" y="182" flags="0x1000"/>
    </TTGlyph>
    <TTGlyph name="Iogonek" xMin="36" yMin="-197" xMax="180" yMax="641">
      <contour>
        <pt x="147" y="-197" on="0"/>
        <pt x="110" y="-197" on="1"/>
        <pt x="77" y="-197" on="0"/>
        <pt x="36" y="-156" on="0"/>
        <pt x="36" y="-121" on="1"/>
        <pt x="36" y="-97" on="0"/>
        <pt x="60" y="-44" on="0"/>
        <pt x="92" y="0" on="1"/>
        <pt x="93" y="0" on="1"/>
        <pt x="98" y="193" on="1"/>
        <pt x="93" y="641" on="1"/>
        <pt x="175" y="641" on="1"/>
        <pt x="170" y="200" on="1"/>
        <pt x="174" y="0" on="1"/>
        <pt x="142" y="0" on="1"/>
        <pt x="89" y="-76" on="0"/>
        <pt x="89" y="-109" on="1"/>
        <pt x="89" y="-143" on="0"/>
        <pt x="121" y="-143" on="1"/>
        <pt x="143" y="-143" on="0"/>
        <pt x="164" y="-119" on="1"/>
        <pt x="170" y="-119" on="1"/>
        <pt x="180" y="-166" on="1"/>
      </contour>
    </TTGlyph>
    <TTGlyph name="Itilde" xMin="-5" yMin="0" xMax="274" yMax="846">
      <component glyphName="I" x="0" y="0" flags="0x1000"/>
      <component glyphName="tilde.i" x="-60" y="182" flags="0x1000"/>
    </TTGlyph>
    <TTGlyph name="J" xMin="6" yMin="-102" xMax="217" yMax="641">
      <contour>
        <pt x="215" y="118" on="1"/>
        <pt x="215" y="42" on="0"/>
        <pt x="139" y="-57" on="0"/>
        <pt x="45" y="-102" on="1"/>
        <pt x="14" y="-57" on="1"/>
        <pt x="14" y="-47" on="1"/>
        <pt x="83" y="-10" on="0"/>
        <pt x="141" y="62" on="0"/>
        <pt x="141" y="117" on="1"/>
        <pt x="141" y="204" on="1"/>
        <pt x="137" y="576" on="1"/>
        <pt x="14" y="575" on="1"/>
        <pt x="6" y="582" on="1"/>
        <pt x="11" y="641" on="1"/>
        <pt x="217" y="641" on="1"/>
        <pt x="213" y="212" on="1"/>
      </contour>
    </TTGlyph>
    <TTGlyph name="Jcircumflex" xMin="5" yMin="-102" xMax="261" yMax="858">
      <component glyphName="J" x="0" y="0" flags="0x1000"/>
      <component glyphName="caron.cap" x="328" y="1399" scale="-1.0" flags="0x1000"/>
    </TTGlyph>
    <TTGlyph name="K" xMin="92" yMin="-9" xMax="546" yMax="641">
      <contour>
        <pt x="173" y="0" on="1"/>
        <pt x="92" y="0" on="1"/>
        <pt x="97" y="193" on="1"/>
        <pt x="92" y="641" on="1"/>
        <pt x="174" y="641" on="1"/>
        <pt x="169" y="200" on="1"/>
      </contour>
      <contour>
        <pt x="406" y="163" on="0"/>
        <pt x="546" y="17" on="1"/>
        <pt x="545" y="7" on="1"/>
        <pt x="514" y="-2" on="0"/>
        <pt x="469" y="-9" on="1"/>
        <pt x="460" y="-4" on="1"/>
        <pt x="298" y="180" on="0"/>
        <pt x="184" y="335" on="1"/>
        <pt x="184" y="341" on="1"/>
        <pt x="398" y="585" on="1"/>
        <pt x="437" y="641" on="1"/>
        <pt x="528" y="641" on="1"/>
        <pt x="269" y="340" on="1"/>
      </contour>
    </TTGlyph>
    <TTGlyph name="Kcommaaccent" xMin="92" yMin="-243" xMax="547" yMax="641">
      <contour>
        <pt x="173" y="0" on="1"/>
        <pt x="92" y="0" on="1"/>
        <pt x="97" y="193" on="1"/>
        <pt x="92" y="641" on="1"/>
        <pt x="174" y="641" on="1"/>
        <pt x="169" y="200" on="1"/>
      </contour>
      <contour>
        <pt x="402" y="168" on="0"/>
        <pt x="547" y="17" on="1"/>
        <pt x="546" y="7" on="1"/>
        <pt x="512" y="-3" on="0"/>
        <pt x="470" y="-9" on="1"/>
        <pt x="460" y="-4" on="1"/>
        <pt x="289" y="192" on="0"/>
        <pt x="184" y="335" on="1"/>
        <pt x="184" y="341" on="1"/>
        <pt x="398" y="585" on="1"/>
        <pt x="438" y="641" on="1"/>
        <pt x="529" y="641" on="1"/>
        <pt x="269" y="340" on="1"/>
      </contour>
      <contour>
        <pt x="345" y="-82" on="0"/>
        <pt x="345" y="-118" on="1"/>
        <pt x="345" y="-179" on="0"/>
        <pt x="257" y="-243" on="1"/>
        <pt x="231" y="-220" on="1"/>
        <pt x="231" y="-214" on="1"/>
        <pt x="283" y="-173" on="0"/>
        <pt x="283" y="-132" on="1"/>
        <pt x="283" y="-108" on="0"/>
        <pt x="254" y="-87" on="1"/>
        <pt x="254" y="-80" on="1"/>
        <pt x="278" y="-64" on="0"/>
        <pt x="306" y="-55" on="1"/>
      </contour>
    </TTGlyph>
    <TTGlyph name="L" xMin="90" yMin="0" xMax="413" yMax="641">
      <contour>
        <pt x="406" y="0" on="1"/>
        <pt x="90" y="0" on="1"/>
        <pt x="95" y="193" on="1"/>
        <pt x="90" y="641" on="1"/>
        <pt x="172" y="641" on="1"/>
        <pt x="167" y="200" on="1"/>
        <pt x="170" y="67" on="1"/>
        <pt x="407" y="67" on="1"/>
        <pt x="413" y="60" on="1"/>
      </contour>
    </TTGlyph>
    <TTGlyph name="L.ss01" xMin="-100" yMin="0" xMax="493" yMax="498">
      <contour>
        <pt x="160" y="64" on="1"/>
        <pt x="318" y="64" on="1"/>
        <pt x="323" y="149" on="1"/>
        <pt x="375" y="152" on="1"/>
        <pt x="373" y="35" on="1"/>
        <pt x="493" y="35" on="1"/>
        <pt x="493" y="0" on="1"/>
        <pt x="-100" y="0" on="1"/>
        <pt x="-100" y="35" on="1"/>
        <pt x="90" y="35" on="1"/>
        <pt x="92" y="161" on="1"/>
        <pt x="89" y="464" on="1"/>
        <pt x="-100" y="464" on="1"/>
        <pt x="-100" y="498" on="1"/>
        <pt x="493" y="498" on="1"/>
        <pt x="493" y="464" on="1"/>
        <pt x="163" y="464" on="1"/>
        <pt x="160" y="168" on="1"/>
      </contour>
    </TTGlyph>
    <TTGlyph name="Lacute" xMin="90" yMin="0" xMax="413" yMax="863">
      <component glyphName="L" x="0" y="0" flags="0x1000"/>
      <component glyphName="acute.cap" x="37" y="182" flags="0x1000"/>
    </TTGlyph>
    <TTGlyph name="Lcaron" xMin="90" yMin="0" xMax="413" yMax="641">
      <contour>
        <pt x="406" y="0" on="1"/>
        <pt x="90" y="0" on="1"/>
        <pt x="95" y="193" on="1"/>
        <pt x="90" y="641" on="1"/>
        <pt x="172" y="641" on="1"/>
        <pt x="167" y="200" on="1"/>
        <pt x="170" y="67" on="1"/>
        <pt x="407" y="67" on="1"/>
        <pt x="413" y="60" on="1"/>
      </contour>
      <contour>
        <pt x="312" y="404" on="1"/>
        <pt x="317" y="579" on="1"/>
        <pt x="374" y="583" on="1"/>
        <pt x="380" y="576" on="1"/>
        <pt x="357" y="404" on="1"/>
        <pt x="319" y="398" on="1"/>
      </contour>
    </TTGlyph>
    <TTGlyph name="Lcommaaccent" xMin="90" yMin="-243" xMax="413" yMax="641">
      <contour>
        <pt x="406" y="0" on="1"/>
        <pt x="90" y="0" on="1"/>
        <pt x="95" y="193" on="1"/>
        <pt x="90" y="641" on="1"/>
        <pt x="172" y="641" on="1"/>
        <pt x="167" y="200" on="1"/>
        <pt x="170" y="67" on="1"/>
        <pt x="407" y="67" on="1"/>
        <pt x="413" y="60" on="1"/>
      </contour>
      <contour>
        <pt x="293" y="-82" on="0"/>
        <pt x="293" y="-118" on="1"/>
        <pt x="293" y="-179" on="0"/>
        <pt x="205" y="-243" on="1"/>
        <pt x="179" y="-220" on="1"/>
        <pt x="179" y="-214" on="1"/>
        <pt x="231" y="-173" on="0"/>
        <pt x="231" y="-132" on="1"/>
        <pt x="231" y="-108" on="0"/>
        <pt x="202" y="-87" on="1"/>
        <pt x="202" y="-80" on="1"/>
        <pt x="226" y="-64" on="0"/>
        <pt x="254" y="-55" on="1"/>
      </contour>
    </TTGlyph>
    <TTGlyph name="Ldot" xMin="90" yMin="0" xMax="413" yMax="641">
      <component glyphName="L" x="0" y="0" flags="0x1000"/>
      <component glyphName="period" x="223" y="337" flags="0x1000"/>
    </TTGlyph>
    <TTGlyph name="Lslash" xMin="10" yMin="0" xMax="427" yMax="641">
      <contour>
        <pt x="420" y="0" on="1"/>
        <pt x="104" y="0" on="1"/>
        <pt x="109" y="193" on="1"/>
        <pt x="108" y="289" on="1"/>
        <pt x="35" y="250" on="1"/>
        <pt x="25" y="255" on="1"/>
        <pt x="10" y="303" on="1"/>
        <pt x="107" y="354" on="1"/>
        <pt x="104" y="641" on="1"/>
        <pt x="185" y="641" on="1"/>
        <pt x="183" y="394" on="1"/>
        <pt x="313" y="462" on="1"/>
        <pt x="322" y="458" on="1"/>
        <pt x="337" y="411" on="1"/>
        <pt x="182" y="328" on="1"/>
        <pt x="181" y="200" on="1"/>
        <pt x="184" y="67" on="1"/>
        <pt x="421" y="67" on="1"/>
        <pt x="427" y="60" on="1"/>
      </contour>
    </TTGlyph>
    <TTGlyph name="M" xMin="60" yMin="0" xMax="728" yMax="641">
      <contour>
        <pt x="656" y="0" on="1"/>
        <pt x="641" y="195" on="1"/>
        <pt x="607" y="514" on="1"/>
        <pt x="600" y="514" on="1"/>
        <pt x="422" y="74" on="1"/>
        <pt x="356" y="74" on="1"/>
        <pt x="187" y="514" on="1"/>
        <pt x="179" y="514" on="1"/>
        <pt x="145" y="201" on="1"/>
        <pt x="128" y="0" on="1"/>
        <pt x="60" y="0" on="1"/>
        <pt x="127" y="641" on="1"/>
        <pt x="218" y="641" on="1"/>
        <pt x="251" y="543" on="1"/>
        <pt x="390" y="178" on="1"/>
        <pt x="396" y="178" on="1"/>
        <pt x="542" y="549" on="1"/>
        <pt x="575" y="641" on="1"/>
        <pt x="665" y="641" on="1"/>
        <pt x="728" y="0" on="1"/>
      </contour>
    </TTGlyph>
    <TTGlyph name="M.ss01" xMin="-100" yMin="0" xMax="783" yMax="498">
      <contour>
        <pt x="603" y="35" on="1"/>
        <pt x="783" y="35" on="1"/>
        <pt x="783" y="0" on="1"/>
        <pt x="-100" y="0" on="1"/>
        <pt x="-100" y="35" on="1"/>
        <pt x="75" y="35" on="1"/>
        <pt x="122" y="464" on="1"/>
        <pt x="-100" y="464" on="1"/>
        <pt x="-100" y="498" on="1"/>
        <pt x="783" y="498" on="1"/>
        <pt x="783" y="464" on="1"/>
        <pt x="559" y="464" on="1"/>
      </contour>
      <contour>
        <pt x="217" y="464" on="1"/>
        <pt x="232" y="421" on="1"/>
        <pt x="336" y="176" on="1"/>
        <pt x="342" y="176" on="1"/>
        <pt x="450" y="424" on="1"/>
        <pt x="467" y="464" on="1"/>
      </contour>
      <contour>
        <pt x="530" y="164" on="1"/>
        <pt x="506" y="384" on="1"/>
        <pt x="501" y="384" on="1"/>
        <pt x="364" y="84" on="1"/>
        <pt x="306" y="84" on="1"/>
        <pt x="176" y="384" on="1"/>
        <pt x="172" y="384" on="1"/>
        <pt x="147" y="169" on="1"/>
        <pt x="136" y="35" on="1"/>
        <pt x="540" y="35" on="1"/>
      </contour>
    </TTGlyph>
    <TTGlyph name="N" xMin="93" yMin="0" xMax="591" yMax="643">
      <contour>
        <pt x="587" y="0" on="1"/>
        <pt x="503" y="0" on="1"/>
        <pt x="172" y="513" on="1"/>
        <pt x="166" y="513" on="1"/>
        <pt x="165" y="211" on="1"/>
        <pt x="168" y="0" on="1"/>
        <pt x="93" y="0" on="1"/>
        <pt x="98" y="190" on="1"/>
        <pt x="95" y="641" on="1"/>
        <pt x="179" y="641" on="1"/>
        <pt x="509" y="128" on="1"/>
        <pt x="516" y="128" on="1"/>
        <pt x="515" y="637" on="1"/>
        <pt x="591" y="643" on="1"/>
        <pt x="585" y="188" on="1"/>
      </contour>
    </TTGlyph>
    <TTGlyph name="Nacute" xMin="93" yMin="0" xMax="591" yMax="863">
      <component glyphName="N" x="0" y="0" flags="0x1000"/>
      <component glyphName="acute.cap" x="172" y="182" flags="0x1000"/>
    </TTGlyph>
    <TTGlyph name="Ncaron" xMin="93" yMin="0" xMax="591" yMax="848">
      <component glyphName="N" x="0" y="0" flags="0x1000"/>
      <component glyphName="caron.cap" x="145" y="182" flags="0x1000"/>
    </TTGlyph>
    <TTGlyph name="Ncommaaccent" xMin="93" yMin="-243" xMax="591" yMax="643">
      <contour>
        <pt x="587" y="0" on="1"/>
        <pt x="503" y="0" on="1"/>
        <pt x="173" y="513" on="1"/>
        <pt x="166" y="513" on="1"/>
        <pt x="165" y="211" on="1"/>
        <pt x="169" y="0" on="1"/>
        <pt x="93" y="0" on="1"/>
        <pt x="98" y="190" on="1"/>
        <pt x="95" y="641" on="1"/>
        <pt x="179" y="641" on="1"/>
        <pt x="510" y="128" on="1"/>
        <pt x="516" y="128" on="1"/>
        <pt x="515" y="637" on="1"/>
        <pt x="591" y="643" on="1"/>
        <pt x="585" y="188" on="1"/>
      </contour>
      <contour>
        <pt x="396" y="-82" on="0"/>
        <pt x="396" y="-118" on="1"/>
        <pt x="396" y="-179" on="0"/>
        <pt x="308" y="-243" on="1"/>
        <pt x="282" y="-220" on="1"/>
        <pt x="282" y="-214" on="1"/>
        <pt x="334" y="-173" on="0"/>
        <pt x="334" y="-132" on="1"/>
        <pt x="334" y="-108" on="0"/>
        <pt x="305" y="-87" on="1"/>
        <pt x="305" y="-80" on="1"/>
        <pt x="329" y="-64" on="0"/>
        <pt x="357" y="-55" on="1"/>
      </contour>
    </TTGlyph>
    <TTGlyph name="Ntilde" xMin="93" yMin="0" xMax="591" yMax="849">
      <component glyphName="N" x="0" y="0" flags="0x1000"/>
      <component glyphName="tilde" x="144" y="182" flags="0x1000"/>
    </TTGlyph>
    <TTGlyph name="O" xMin="38" yMin="-8" xMax="598" yMax="647">
      <contour>
        <pt x="457" y="647" on="0"/>
        <pt x="598" y="485" on="0"/>
        <pt x="598" y="333" on="1"/>
        <pt x="598" y="170" on="0"/>
        <pt x="448" y="-8" on="0"/>
        <pt x="310" y="-8" on="1"/>
        <pt x="180" y="-8" on="0"/>
        <pt x="38" y="160" on="0"/>
        <pt x="38" y="315" on="1"/>
        <pt x="38" y="475" on="0"/>
        <pt x="187" y="647" on="0"/>
        <pt x="326" y="647" on="1"/>
      </contour>
      <contour>
        <pt x="120" y="581" on="0"/>
        <pt x="120" y="325" on="1"/>
        <pt x="120" y="59" on="0"/>
        <pt x="315" y="59" on="1"/>
        <pt x="515" y="59" on="0"/>
        <pt x="515" y="319" on="1"/>
        <pt x="515" y="452" on="0"/>
        <pt x="418" y="581" on="0"/>
        <pt x="319" y="581" on="1"/>
      </contour>
    </TTGlyph>
    <TTGlyph name="OE" xMin="38" yMin="-12" xMax="828" yMax="653">
      <contour>
        <pt x="388" y="653" on="0"/>
        <pt x="444" y="647" on="1"/>
        <pt x="498" y="641" on="0"/>
        <pt x="524" y="641" on="1"/>
        <pt x="822" y="641" on="1"/>
        <pt x="827" y="633" on="1"/>
        <pt x="821" y="571" on="1"/>
        <pt x="677" y="574" on="1"/>
        <pt x="542" y="574" on="1"/>
        <pt x="541" y="362" on="1"/>
        <pt x="655" y="360" on="1"/>
        <pt x="768" y="363" on="1"/>
        <pt x="773" y="356" on="1"/>
        <pt x="766" y="294" on="1"/>
        <pt x="649" y="296" on="1"/>
        <pt x="539" y="295" on="1"/>
        <pt x="539" y="195" on="1"/>
        <pt x="540" y="67" on="1"/>
        <pt x="665" y="66" on="1"/>
        <pt x="822" y="70" on="1"/>
        <pt x="828" y="62" on="1"/>
        <pt x="821" y="0" on="1"/>
        <pt x="524" y="0" on="1"/>
        <pt x="502" y="1" on="0"/>
        <pt x="430" y="-6" on="1"/>
        <pt x="370" y="-12" on="0"/>
        <pt x="340" y="-12" on="1"/>
        <pt x="196" y="-12" on="0"/>
        <pt x="38" y="160" on="0"/>
        <pt x="38" y="316" on="1"/>
        <pt x="38" y="476" on="0"/>
        <pt x="204" y="653" on="0"/>
        <pt x="355" y="653" on="1"/>
      </contour>
      <contour>
        <pt x="236" y="586" on="0"/>
        <pt x="120" y="452" on="0"/>
        <pt x="120" y="321" on="1"/>
        <pt x="120" y="54" on="0"/>
        <pt x="348" y="54" on="1"/>
        <pt x="405" y="54" on="0"/>
        <pt x="442" y="64" on="1"/>
        <pt x="467" y="72" on="0"/>
        <pt x="467" y="99" on="1"/>
        <pt x="463" y="536" on="1"/>
        <pt x="463" y="569" on="0"/>
        <pt x="449" y="573" on="1"/>
        <pt x="438" y="578" on="0"/>
        <pt x="379" y="586" on="0"/>
        <pt x="349" y="586" on="1"/>
      </contour>
    </TTGlyph>
    <TTGlyph name="Oacute" xMin="38" yMin="-8" xMax="598" yMax="863">
      <component glyphName="O" x="0" y="0" flags="0x1000"/>
      <component glyphName="acute.cap" x="151" y="182" flags="0x1000"/>
    </TTGlyph>
    <TTGlyph name="Obreve" xMin="38" yMin="-8" xMax="598" yMax="842">
      <component glyphName="O" x="0" y="0" flags="0x1000"/>
      <component glyphName="breve.cap" x="124" y="182" flags="0x1000"/>
    </TTGlyph>
    <TTGlyph name="Ocaron" xMin="38" yMin="-8" xMax="598" yMax="848">
      <component glyphName="O" x="0" y="0" flags="0x1000"/>
      <component glyphName="caron.cap" x="124" y="182" flags="0x1000"/>
    </TTGlyph>
    <TTGlyph name="Ocircumflex" xMin="38" yMin="-8" xMax="598" yMax="858">
      <contour>
        <pt x="257" y="813" on="0"/>
        <pt x="306" y="858" on="1"/>
        <pt x="329" y="858" on="1"/>
        <pt x="374" y="818" on="0"/>
        <pt x="446" y="767" on="1"/>
        <pt x="430" y="733" on="1"/>
        <pt x="421" y="733" on="1"/>
        <pt x="365" y="767" on="0"/>
        <pt x="318" y="799" on="1"/>
        <pt x="279" y="772" on="0"/>
        <pt x="216" y="733" on="1"/>
        <pt x="206" y="733" on="1"/>
        <pt x="190" y="767" on="1"/>
      </contour>
      <contour>
        <pt x="457" y="647" on="0"/>
        <pt x="598" y="485" on="0"/>
        <pt x="598" y="333" on="1"/>
        <pt x="598" y="170" on="0"/>
        <pt x="448" y="-8" on="0"/>
        <pt x="310" y="-8" on="1"/>
        <pt x="180" y="-8" on="0"/>
        <pt x="38" y="160" on="0"/>
        <pt x="38" y="315" on="1"/>
        <pt x="38" y="475" on="0"/>
        <pt x="187" y="647" on="0"/>
        <pt x="326" y="647" on="1"/>
      </contour>
      <contour>
        <pt x="120" y="581" on="0"/>
        <pt x="120" y="325" on="1"/>
        <pt x="120" y="59" on="0"/>
        <pt x="315" y="59" on="1"/>
        <pt x="515" y="59" on="0"/>
        <pt x="515" y="319" on="1"/>
        <pt x="515" y="452" on="0"/>
        <pt x="418" y="581" on="0"/>
        <pt x="319" y="581" on="1"/>
      </contour>
    </TTGlyph>
    <TTGlyph name="Ocircumflexacute" xMin="38" yMin="-8" xMax="598" yMax="947">
      <component glyphName="O" x="0" y="0" flags="0x1000"/>
      <component glyphName="circumflexacute" x="124" y="182" flags="0x1000"/>
    </TTGlyph>
    <TTGlyph name="Ocircumflexdotbelow" xMin="38" yMin="-163" xMax="598" yMax="851">
      <contour>
        <pt x="267" y="806" on="0"/>
        <pt x="316" y="851" on="1"/>
        <pt x="339" y="851" on="1"/>
        <pt x="384" y="811" on="0"/>
        <pt x="456" y="760" on="1"/>
        <pt x="440" y="726" on="1"/>
        <pt x="431" y="726" on="1"/>
        <pt x="375" y="760" on="0"/>
        <pt x="328" y="792" on="1"/>
        <pt x="289" y="765" on="0"/>
        <pt x="226" y="726" on="1"/>
        <pt x="216" y="726" on="1"/>
        <pt x="200" y="760" on="1"/>
      </contour>
      <contour>
        <pt x="457" y="647" on="0"/>
        <pt x="598" y="485" on="0"/>
        <pt x="598" y="333" on="1"/>
        <pt x="598" y="170" on="0"/>
        <pt x="448" y="-8" on="0"/>
        <pt x="310" y="-8" on="1"/>
        <pt x="180" y="-8" on="0"/>
        <pt x="38" y="160" on="0"/>
        <pt x="38" y="315" on="1"/>
        <pt x="38" y="475" on="0"/>
        <pt x="187" y="647" on="0"/>
        <pt x="326" y="647" on="1"/>
      </contour>
      <contour>
        <pt x="120" y="581" on="0"/>
        <pt x="120" y="325" on="1"/>
        <pt x="120" y="59" on="0"/>
        <pt x="315" y="59" on="1"/>
        <pt x="515" y="59" on="0"/>
        <pt x="515" y="319" on="1"/>
        <pt x="515" y="452" on="0"/>
        <pt x="418" y="581" on="0"/>
        <pt x="319" y="581" on="1"/>
      </contour>
      <contour>
        <pt x="338" y="-70" on="0"/>
        <pt x="362" y="-94" on="0"/>
        <pt x="362" y="-115" on="1"/>
        <pt x="362" y="-137" on="0"/>
        <pt x="337" y="-163" on="0"/>
        <pt x="315" y="-163" on="1"/>
        <pt x="271" y="-163" on="0"/>
        <pt x="271" y="-117" on="1"/>
        <pt x="271" y="-96" on="0"/>
        <pt x="296" y="-70" on="0"/>
        <pt x="318" y="-70" on="1"/>
      </contour>
    </TTGlyph>
    <TTGlyph name="Ocircumflexgrave" xMin="38" yMin="-8" xMax="598" yMax="947">
      <component glyphName="O" x="0" y="0" flags="0x1000"/>
      <component glyphName="circumflexgrave" x="124" y="182" flags="0x1000"/>
    </TTGlyph>
    <TTGlyph name="Ocircumflexhookabove" xMin="38" yMin="-8" xMax="598" yMax="984">
      <contour>
        <pt x="439" y="984" on="0"/>
        <pt x="473" y="954" on="0"/>
        <pt x="473" y="931" on="1"/>
        <pt x="473" y="899" on="0"/>
        <pt x="424" y="859" on="1"/>
        <pt x="443" y="827" on="1"/>
        <pt x="410" y="809" on="1"/>
        <pt x="380" y="861" on="1"/>
        <pt x="428" y="896" on="0"/>
        <pt x="428" y="923" on="1"/>
        <pt x="428" y="943" on="0"/>
        <pt x="402" y="943" on="1"/>
        <pt x="375" y="943" on="0"/>
        <pt x="347" y="920" on="1"/>
        <pt x="332" y="945" on="1"/>
        <pt x="369" y="984" on="0"/>
        <pt x="413" y="984" on="1"/>
      </contour>
      <contour>
        <pt x="257" y="793" on="0"/>
        <pt x="306" y="838" on="1"/>
        <pt x="329" y="838" on="1"/>
        <pt x="374" y="798" on="0"/>
        <pt x="446" y="747" on="1"/>
        <pt x="430" y="713" on="1"/>
        <pt x="421" y="713" on="1"/>
        <pt x="365" y="747" on="0"/>
        <pt x="318" y="779" on="1"/>
        <pt x="279" y="752" on="0"/>
        <pt x="216" y="713" on="1"/>
        <pt x="206" y="713" on="1"/>
        <pt x="190" y="747" on="1"/>
      </contour>
      <contour>
        <pt x="457" y="647" on="0"/>
        <pt x="598" y="485" on="0"/>
        <pt x="598" y="333" on="1"/>
        <pt x="598" y="170" on="0"/>
        <pt x="448" y="-8" on="0"/>
        <pt x="310" y="-8" on="1"/>
        <pt x="180" y="-8" on="0"/>
        <pt x="38" y="160" on="0"/>
        <pt x="38" y="315" on="1"/>
        <pt x="38" y="475" on="0"/>
        <pt x="187" y="647" on="0"/>
        <pt x="326" y="647" on="1"/>
      </contour>
      <contour>
        <pt x="120" y="581" on="0"/>
        <pt x="120" y="325" on="1"/>
        <pt x="120" y="59" on="0"/>
        <pt x="315" y="59" on="1"/>
        <pt x="515" y="59" on="0"/>
        <pt x="515" y="319" on="1"/>
        <pt x="515" y="452" on="0"/>
        <pt x="418" y="581" on="0"/>
        <pt x="319" y="581" on="1"/>
      </contour>
    </TTGlyph>
    <TTGlyph name="Ocircumflextilde" xMin="38" yMin="-8" xMax="598" yMax="966">
      <contour>
        <pt x="470" y="934" on="1"/>
        <pt x="413" y="867" on="1"/>
        <pt x="404" y="864" on="1"/>
        <pt x="381" y="866" on="0"/>
        <pt x="324" y="884" on="1"/>
        <pt x="270" y="900" on="0"/>
        <pt x="259" y="900" on="1"/>
        <pt x="246" y="900" on="0"/>
        <pt x="220" y="870" on="1"/>
        <pt x="206" y="855" on="1"/>
        <pt x="198" y="855" on="1"/>
        <pt x="175" y="879" on="1"/>
        <pt x="175" y="887" on="1"/>
        <pt x="232" y="954" on="1"/>
        <pt x="241" y="956" on="1"/>
        <pt x="265" y="954" on="0"/>
        <pt x="322" y="936" on="1"/>
        <pt x="375" y="921" on="0"/>
        <pt x="387" y="921" on="1"/>
        <pt x="395" y="921" on="0"/>
        <pt x="411" y="935" on="0"/>
        <pt x="433" y="959" on="0"/>
        <pt x="440" y="966" on="1"/>
        <pt x="448" y="966" on="1"/>
        <pt x="470" y="942" on="1"/>
      </contour>
      <contour>
        <pt x="257" y="793" on="0"/>
        <pt x="306" y="838" on="1"/>
        <pt x="329" y="838" on="1"/>
        <pt x="374" y="798" on="0"/>
        <pt x="446" y="747" on="1"/>
        <pt x="430" y="713" on="1"/>
        <pt x="421" y="713" on="1"/>
        <pt x="365" y="747" on="0"/>
        <pt x="318" y="779" on="1"/>
        <pt x="279" y="752" on="0"/>
        <pt x="216" y="713" on="1"/>
        <pt x="206" y="713" on="1"/>
        <pt x="190" y="747" on="1"/>
      </contour>
      <contour>
        <pt x="457" y="647" on="0"/>
        <pt x="598" y="485" on="0"/>
        <pt x="598" y="333" on="1"/>
        <pt x="598" y="170" on="0"/>
        <pt x="448" y="-8" on="0"/>
        <pt x="310" y="-8" on="1"/>
        <pt x="180" y="-8" on="0"/>
        <pt x="38" y="160" on="0"/>
        <pt x="38" y="315" on="1"/>
        <pt x="38" y="475" on="0"/>
        <pt x="187" y="647" on="0"/>
        <pt x="326" y="647" on="1"/>
      </contour>
      <contour>
        <pt x="120" y="581" on="0"/>
        <pt x="120" y="325" on="1"/>
        <pt x="120" y="59" on="0"/>
        <pt x="315" y="59" on="1"/>
        <pt x="515" y="59" on="0"/>
        <pt x="515" y="319" on="1"/>
        <pt x="515" y="452" on="0"/>
        <pt x="418" y="581" on="0"/>
        <pt x="319" y="581" on="1"/>
      </contour>
    </TTGlyph>
    <TTGlyph name="Odieresis" xMin="38" yMin="-8" xMax="598" yMax="833">
      <contour>
        <pt x="263" y="833" on="0"/>
        <pt x="285" y="811" on="0"/>
        <pt x="285" y="791" on="1"/>
        <pt x="285" y="770" on="0"/>
        <pt x="261" y="744" on="0"/>
        <pt x="240" y="744" on="1"/>
        <pt x="220" y="744" on="0"/>
        <pt x="198" y="768" on="0"/>
        <pt x="198" y="788" on="1"/>
        <pt x="198" y="808" on="0"/>
        <pt x="222" y="833" on="0"/>
        <pt x="243" y="833" on="1"/>
      </contour>
      <contour>
        <pt x="420" y="833" on="0"/>
        <pt x="442" y="811" on="0"/>
        <pt x="442" y="791" on="1"/>
        <pt x="442" y="770" on="0"/>
        <pt x="418" y="744" on="0"/>
        <pt x="397" y="744" on="1"/>
        <pt x="377" y="744" on="0"/>
        <pt x="355" y="768" on="0"/>
        <pt x="355" y="788" on="1"/>
        <pt x="355" y="808" on="0"/>
        <pt x="379" y="833" on="0"/>
        <pt x="400" y="833" on="1"/>
      </contour>
      <contour>
        <pt x="457" y="647" on="0"/>
        <pt x="598" y="485" on="0"/>
        <pt x="598" y="333" on="1"/>
        <pt x="598" y="170" on="0"/>
        <pt x="448" y="-8" on="0"/>
        <pt x="310" y="-8" on="1"/>
        <pt x="180" y="-8" on="0"/>
        <pt x="38" y="160" on="0"/>
        <pt x="38" y="315" on="1"/>
        <pt x="38" y="475" on="0"/>
        <pt x="187" y="647" on="0"/>
        <pt x="326" y="647" on="1"/>
      </contour>
      <contour>
        <pt x="120" y="581" on="0"/>
        <pt x="120" y="325" on="1"/>
        <pt x="120" y="59" on="0"/>
        <pt x="315" y="59" on="1"/>
        <pt x="515" y="59" on="0"/>
        <pt x="515" y="319" on="1"/>
        <pt x="515" y="452" on="0"/>
        <pt x="418" y="581" on="0"/>
        <pt x="319" y="581" on="1"/>
      </contour>
    </TTGlyph>
    <TTGlyph name="Odotbelow" xMin="38" yMin="-163" xMax="598" yMax="647">
      <contour>
        <pt x="457" y="647" on="0"/>
        <pt x="598" y="485" on="0"/>
        <pt x="598" y="333" on="1"/>
        <pt x="598" y="170" on="0"/>
        <pt x="448" y="-8" on="0"/>
        <pt x="310" y="-8" on="1"/>
        <pt x="180" y="-8" on="0"/>
        <pt x="38" y="160" on="0"/>
        <pt x="38" y="315" on="1"/>
        <pt x="38" y="475" on="0"/>
        <pt x="187" y="647" on="0"/>
        <pt x="326" y="647" on="1"/>
      </contour>
      <contour>
        <pt x="120" y="581" on="0"/>
        <pt x="120" y="325" on="1"/>
        <pt x="120" y="59" on="0"/>
        <pt x="315" y="59" on="1"/>
        <pt x="515" y="59" on="0"/>
        <pt x="515" y="319" on="1"/>
        <pt x="515" y="452" on="0"/>
        <pt x="418" y="581" on="0"/>
        <pt x="319" y="581" on="1"/>
      </contour>
      <contour>
        <pt x="338" y="-70" on="0"/>
        <pt x="362" y="-94" on="0"/>
        <pt x="362" y="-115" on="1"/>
        <pt x="362" y="-137" on="0"/>
        <pt x="337" y="-163" on="0"/>
        <pt x="315" y="-163" on="1"/>
        <pt x="271" y="-163" on="0"/>
        <pt x="271" y="-117" on="1"/>
        <pt x="271" y="-96" on="0"/>
        <pt x="296" y="-70" on="0"/>
        <pt x="318" y="-70" on="1"/>
      </contour>
    </TTGlyph>
    <TTGlyph name="Ograve" xMin="38" yMin="-8" xMax="598" yMax="864">
      <contour>
        <pt x="326" y="812" on="0"/>
        <pt x="429" y="761" on="1"/>
        <pt x="415" y="725" on="1"/>
        <pt x="405" y="721" on="1"/>
        <pt x="299" y="766" on="0"/>
        <pt x="210" y="807" on="1"/>
        <pt x="208" y="815" on="1"/>
        <pt x="228" y="862" on="1"/>
        <pt x="237" y="864" on="1"/>
      </contour>
      <contour>
        <pt x="457" y="647" on="0"/>
        <pt x="598" y="485" on="0"/>
        <pt x="598" y="333" on="1"/>
        <pt x="598" y="170" on="0"/>
        <pt x="448" y="-8" on="0"/>
        <pt x="310" y="-8" on="1"/>
        <pt x="180" y="-8" on="0"/>
        <pt x="38" y="160" on="0"/>
        <pt x="38" y="315" on="1"/>
        <pt x="38" y="475" on="0"/>
        <pt x="187" y="647" on="0"/>
        <pt x="326" y="647" on="1"/>
      </contour>
      <contour>
        <pt x="120" y="581" on="0"/>
        <pt x="120" y="325" on="1"/>
        <pt x="120" y="59" on="0"/>
        <pt x="315" y="59" on="1"/>
        <pt x="515" y="59" on="0"/>
        <pt x="515" y="319" on="1"/>
        <pt x="515" y="452" on="0"/>
        <pt x="418" y="581" on="0"/>
        <pt x="319" y="581" on="1"/>
      </contour>
    </TTGlyph>
    <TTGlyph name="Ohm" xMin="37" yMin="-4" xMax="706" yMax="647">
      <component glyphName="Omega" x="0" y="0" flags="0x1000"/>
    </TTGlyph>
    <TTGlyph name="Ohookabove" xMin="38" yMin="-8" xMax="598" yMax="894">
      <component glyphName="O" x="0" y="0" flags="0x1000"/>
      <component glyphName="hookabove" x="123" y="181" flags="0x1000"/>
    </TTGlyph>
    <TTGlyph name="Ohorn" xMin="38" yMin="-8" xMax="631" yMax="765">
      <contour>
        <pt x="596" y="765" on="0"/>
        <pt x="631" y="714" on="0"/>
        <pt x="631" y="679" on="1"/>
        <pt x="631" y="632" on="0"/>
        <pt x="566" y="576" on="0"/>
        <pt x="514" y="573" on="1"/>
        <pt x="598" y="492" on="0"/>
        <pt x="598" y="329" on="1"/>
        <pt x="598" y="170" on="0"/>
        <pt x="448" y="-8" on="0"/>
        <pt x="311" y="-8" on="1"/>
        <pt x="180" y="-8" on="0"/>
        <pt x="38" y="160" on="0"/>
        <pt x="38" y="315" on="1"/>
        <pt x="38" y="475" on="0"/>
        <pt x="187" y="647" on="0"/>
        <pt x="322" y="647" on="1"/>
        <pt x="373" y="647" on="0"/>
        <pt x="438" y="626" on="1"/>
        <pt x="477" y="613" on="0"/>
        <pt x="496" y="613" on="1"/>
        <pt x="526" y="613" on="0"/>
        <pt x="567" y="645" on="0"/>
        <pt x="567" y="673" on="1"/>
        <pt x="567" y="711" on="0"/>
        <pt x="535" y="741" on="1"/>
        <pt x="537" y="749" on="1"/>
        <pt x="558" y="765" on="0"/>
        <pt x="576" y="765" on="1"/>
      </contour>
      <contour>
        <pt x="120" y="581" on="0"/>
        <pt x="120" y="325" on="1"/>
        <pt x="120" y="59" on="0"/>
        <pt x="315" y="59" on="1"/>
        <pt x="515" y="59" on="0"/>
        <pt x="515" y="319" on="1"/>
        <pt x="515" y="452" on="0"/>
        <pt x="418" y="581" on="0"/>
        <pt x="319" y="581" on="1"/>
      </contour>
    </TTGlyph>
    <TTGlyph name="Ohornacute" xMin="38" yMin="-8" xMax="631" yMax="863">
      <component glyphName="Ohorn" x="0" y="0" flags="0x1000"/>
      <component glyphName="acute.cap" x="151" y="182" flags="0x1000"/>
    </TTGlyph>
    <TTGlyph name="Ohorndotbelow" xMin="38" yMin="-163" xMax="631" yMax="765">
      <contour>
        <pt x="596" y="765" on="0"/>
        <pt x="631" y="714" on="0"/>
        <pt x="631" y="679" on="1"/>
        <pt x="631" y="632" on="0"/>
        <pt x="566" y="576" on="0"/>
        <pt x="514" y="573" on="1"/>
        <pt x="598" y="492" on="0"/>
        <pt x="598" y="329" on="1"/>
        <pt x="598" y="170" on="0"/>
        <pt x="448" y="-8" on="0"/>
        <pt x="311" y="-8" on="1"/>
        <pt x="180" y="-8" on="0"/>
        <pt x="38" y="160" on="0"/>
        <pt x="38" y="315" on="1"/>
        <pt x="38" y="475" on="0"/>
        <pt x="187" y="647" on="0"/>
        <pt x="322" y="647" on="1"/>
        <pt x="373" y="647" on="0"/>
        <pt x="438" y="626" on="1"/>
        <pt x="477" y="613" on="0"/>
        <pt x="496" y="613" on="1"/>
        <pt x="526" y="613" on="0"/>
        <pt x="567" y="645" on="0"/>
        <pt x="567" y="673" on="1"/>
        <pt x="567" y="711" on="0"/>
        <pt x="535" y="741" on="1"/>
        <pt x="537" y="749" on="1"/>
        <pt x="558" y="765" on="0"/>
        <pt x="576" y="765" on="1"/>
      </contour>
      <contour>
        <pt x="120" y="581" on="0"/>
        <pt x="120" y="325" on="1"/>
        <pt x="120" y="59" on="0"/>
        <pt x="315" y="59" on="1"/>
        <pt x="515" y="59" on="0"/>
        <pt x="515" y="319" on="1"/>
        <pt x="515" y="452" on="0"/>
        <pt x="418" y="581" on="0"/>
        <pt x="319" y="581" on="1"/>
      </contour>
      <contour>
        <pt x="338" y="-70" on="0"/>
        <pt x="362" y="-94" on="0"/>
        <pt x="362" y="-115" on="1"/>
        <pt x="362" y="-137" on="0"/>
        <pt x="337" y="-163" on="0"/>
        <pt x="315" y="-163" on="1"/>
        <pt x="271" y="-163" on="0"/>
        <pt x="271" y="-117" on="1"/>
        <pt x="271" y="-96" on="0"/>
        <pt x="296" y="-70" on="0"/>
        <pt x="318" y="-70" on="1"/>
      </contour>
    </TTGlyph>
    <TTGlyph name="Ohorngrave" xMin="38" yMin="-8" xMax="631" yMax="864">
      <contour>
        <pt x="326" y="812" on="0"/>
        <pt x="429" y="761" on="1"/>
        <pt x="415" y="725" on="1"/>
        <pt x="405" y="721" on="1"/>
        <pt x="299" y="766" on="0"/>
        <pt x="210" y="807" on="1"/>
        <pt x="208" y="815" on="1"/>
        <pt x="228" y="862" on="1"/>
        <pt x="237" y="864" on="1"/>
      </contour>
      <contour>
        <pt x="596" y="765" on="0"/>
        <pt x="631" y="714" on="0"/>
        <pt x="631" y="679" on="1"/>
        <pt x="631" y="632" on="0"/>
        <pt x="566" y="576" on="0"/>
        <pt x="514" y="573" on="1"/>
        <pt x="598" y="492" on="0"/>
        <pt x="598" y="329" on="1"/>
        <pt x="598" y="170" on="0"/>
        <pt x="448" y="-8" on="0"/>
        <pt x="311" y="-8" on="1"/>
        <pt x="180" y="-8" on="0"/>
        <pt x="38" y="160" on="0"/>
        <pt x="38" y="315" on="1"/>
        <pt x="38" y="475" on="0"/>
        <pt x="187" y="647" on="0"/>
        <pt x="322" y="647" on="1"/>
        <pt x="373" y="647" on="0"/>
        <pt x="438" y="626" on="1"/>
        <pt x="477" y="613" on="0"/>
        <pt x="496" y="613" on="1"/>
        <pt x="526" y="613" on="0"/>
        <pt x="567" y="645" on="0"/>
        <pt x="567" y="673" on="1"/>
        <pt x="567" y="711" on="0"/>
        <pt x="535" y="741" on="1"/>
        <pt x="537" y="749" on="1"/>
        <pt x="558" y="765" on="0"/>
        <pt x="576" y="765" on="1"/>
      </contour>
      <contour>
        <pt x="120" y="581" on="0"/>
        <pt x="120" y="325" on="1"/>
        <pt x="120" y="59" on="0"/>
        <pt x="315" y="59" on="1"/>
        <pt x="515" y="59" on="0"/>
        <pt x="515" y="319" on="1"/>
        <pt x="515" y="452" on="0"/>
        <pt x="418" y="581" on="0"/>
        <pt x="319" y="581" on="1"/>
      </contour>
    </TTGlyph>
    <TTGlyph name="Ohornhookabove" xMin="38" yMin="-8" xMax="631" yMax="894">
      <component glyphName="Ohorn" x="0" y="0" flags="0x1000"/>
      <component glyphName="hookabove" x="123" y="181" flags="0x1000"/>
    </TTGlyph>
    <TTGlyph name="Ohorntilde" xMin="38" yMin="-8" xMax="631" yMax="849">
      <component glyphName="Ohorn" x="0" y="0" flags="0x1000"/>
      <component glyphName="tilde" x="124" y="182" flags="0x1000"/>
    </TTGlyph>
    <TTGlyph name="Ohungarumlaut" xMin="38" yMin="-8" xMax="598" yMax="863">
      <component glyphName="O" x="0" y="0" flags="0x1000"/>
      <component glyphName="hungarumlaut.cap" x="150" y="182" flags="0x1000"/>
    </TTGlyph>
    <TTGlyph name="Omacron" xMin="38" yMin="-8" xMax="598" yMax="816">
      <component glyphName="O" x="0" y="0" flags="0x1000"/>
      <component glyphName="macron" x="124" y="182" flags="0x1000"/>
    </TTGlyph>
    <TTGlyph name="Omega" xMin="37" yMin="-4" xMax="706" yMax="647">
      <contour>
        <pt x="469" y="647" on="0"/>
        <pt x="594" y="572" on="0"/>
        <pt x="655" y="444" on="0"/>
        <pt x="655" y="367" on="1"/>
        <pt x="655" y="283" on="0"/>
        <pt x="584" y="123" on="0"/>
        <pt x="517" y="66" on="1"/>
        <pt x="519" y="62" on="1"/>
        <pt x="619" y="62" on="1"/>
        <pt x="701" y="69" on="1"/>
        <pt x="706" y="63" on="1"/>
        <pt x="696" y="-4" on="1"/>
        <pt x="597" y="0" on="1"/>
        <pt x="465" y="0" on="1"/>
        <pt x="427" y="-2" on="1"/>
        <pt x="422" y="2" on="1"/>
        <pt x="422" y="66" on="1"/>
        <pt x="493" y="117" on="0"/>
        <pt x="572" y="279" on="0"/>
        <pt x="572" y="362" on="1"/>
        <pt x="572" y="458" on="0"/>
        <pt x="470" y="582" on="0"/>
        <pt x="372" y="582" on="1"/>
        <pt x="274" y="582" on="0"/>
        <pt x="172" y="459" on="0"/>
        <pt x="172" y="363" on="1"/>
        <pt x="172" y="280" on="0"/>
        <pt x="250" y="117" on="0"/>
        <pt x="320" y="66" on="1"/>
        <pt x="320" y="2" on="1"/>
        <pt x="316" y="-2" on="1"/>
        <pt x="277" y="0" on="1"/>
        <pt x="131" y="0" on="1"/>
        <pt x="43" y="-3" on="1"/>
        <pt x="37" y="4" on="1"/>
        <pt x="48" y="68" on="1"/>
        <pt x="134" y="62" on="1"/>
        <pt x="224" y="62" on="1"/>
        <pt x="225" y="66" on="1"/>
        <pt x="159" y="121" on="0"/>
        <pt x="89" y="275" on="0"/>
        <pt x="89" y="357" on="1"/>
        <pt x="89" y="436" on="0"/>
        <pt x="155" y="569" on="0"/>
        <pt x="286" y="647" on="0"/>
        <pt x="379" y="647" on="1"/>
      </contour>
    </TTGlyph>
    <TTGlyph name="Oogonek" xMin="38" yMin="-197" xMax="598" yMax="647">
      <contour>
        <pt x="372" y="-82" on="0"/>
        <pt x="372" y="-103" on="1"/>
        <pt x="372" y="-121" on="0"/>
        <pt x="393" y="-143" on="0"/>
        <pt x="412" y="-143" on="1"/>
        <pt x="446" y="-143" on="0"/>
        <pt x="481" y="-105" on="1"/>
        <pt x="486" y="-105" on="1"/>
        <pt x="497" y="-145" on="1"/>
        <pt x="447" y="-197" on="0"/>
        <pt x="399" y="-197" on="1"/>
        <pt x="363" y="-197" on="0"/>
        <pt x="320" y="-153" on="0"/>
        <pt x="320" y="-117" on="1"/>
        <pt x="320" y="-79" on="0"/>
        <pt x="345" y="-44" on="1"/>
        <pt x="374" y="-3" on="1"/>
        <pt x="341" y="-8" on="0"/>
        <pt x="310" y="-8" on="1"/>
        <pt x="180" y="-8" on="0"/>
        <pt x="38" y="160" on="0"/>
        <pt x="38" y="315" on="1"/>
        <pt x="38" y="475" on="0"/>
        <pt x="187" y="647" on="0"/>
        <pt x="326" y="647" on="1"/>
        <pt x="457" y="647" on="0"/>
        <pt x="598" y="485" on="0"/>
        <pt x="598" y="333" on="1"/>
        <pt x="598" y="212" on="0"/>
        <pt x="514" y="50" on="0"/>
        <pt x="435" y="16" on="1"/>
        <pt x="390" y="-53" on="1"/>
      </contour>
      <contour>
        <pt x="120" y="59" on="0"/>
        <pt x="315" y="59" on="1"/>
        <pt x="515" y="59" on="0"/>
        <pt x="515" y="319" on="1"/>
        <pt x="515" y="452" on="0"/>
        <pt x="418" y="581" on="0"/>
        <pt x="319" y="581" on="1"/>
        <pt x="120" y="581" on="0"/>
        <pt x="120" y="325" on="1"/>
      </contour>
    </TTGlyph>
    <TTGlyph name="Oslash" xMin="38" yMin="-102" xMax="598" yMax="724">
      <contour>
        <pt x="598" y="530" on="0"/>
        <pt x="598" y="333" on="1"/>
        <pt x="598" y="170" on="0"/>
        <pt x="448" y="-8" on="0"/>
        <pt x="310" y="-8" on="1"/>
        <pt x="249" y="-8" on="0"/>
        <pt x="203" y="10" on="1"/>
        <pt x="150" y="-102" on="1"/>
        <pt x="101" y="-85" on="1"/>
        <pt x="97" y="-77" on="1"/>
        <pt x="151" y="38" on="1"/>
        <pt x="38" y="117" on="0"/>
        <pt x="38" y="315" on="1"/>
        <pt x="38" y="475" on="0"/>
        <pt x="187" y="647" on="0"/>
        <pt x="326" y="647" on="1"/>
        <pt x="383" y="647" on="0"/>
        <pt x="428" y="632" on="1"/>
        <pt x="471" y="724" on="1"/>
        <pt x="519" y="706" on="1"/>
        <pt x="524" y="696" on="1"/>
        <pt x="482" y="606" on="1"/>
      </contour>
      <contour>
        <pt x="120" y="173" on="0"/>
        <pt x="183" y="108" on="1"/>
        <pt x="398" y="568" on="1"/>
        <pt x="365" y="581" on="0"/>
        <pt x="319" y="581" on="1"/>
        <pt x="120" y="581" on="0"/>
        <pt x="120" y="325" on="1"/>
      </contour>
      <contour>
        <pt x="515" y="59" on="0"/>
        <pt x="515" y="319" on="1"/>
        <pt x="515" y="473" on="0"/>
        <pt x="449" y="536" on="1"/>
        <pt x="232" y="74" on="1"/>
        <pt x="268" y="59" on="0"/>
        <pt x="315" y="59" on="1"/>
      </contour>
    </TTGlyph>
    <TTGlyph name="Oslashacute" xMin="38" yMin="-102" xMax="598" yMax="865">
      <component glyphName="Oslash" x="0" y="0" flags="0x1000"/>
      <component glyphName="acute.cap" x="149" y="184" flags="0x1000"/>
    </TTGlyph>
    <TTGlyph name="Otilde" xMin="38" yMin="-8" xMax="598" yMax="849">
      <component glyphName="O" x="0" y="0" flags="0x1000"/>
      <component glyphName="tilde" x="124" y="182" flags="0x1000"/>
    </TTGlyph>
    <TTGlyph name="P" xMin="93" yMin="0" xMax="485" yMax="642">
      <contour>
        <pt x="383" y="642" on="0"/>
        <pt x="485" y="545" on="0"/>
        <pt x="485" y="454" on="1"/>
        <pt x="485" y="347" on="0"/>
        <pt x="358" y="225" on="0"/>
        <pt x="246" y="225" on="1"/>
        <pt x="170" y="225" on="1"/>
        <pt x="170" y="200" on="1"/>
        <pt x="174" y="0" on="1"/>
        <pt x="93" y="0" on="1"/>
        <pt x="98" y="193" on="1"/>
        <pt x="93" y="641" on="1"/>
        <pt x="289" y="642" on="1"/>
      </contour>
      <contour>
        <pt x="403" y="310" on="0"/>
        <pt x="403" y="447" on="1"/>
        <pt x="403" y="571" on="0"/>
        <pt x="271" y="576" on="1"/>
        <pt x="174" y="573" on="1"/>
        <pt x="171" y="292" on="1"/>
        <pt x="276" y="290" on="1"/>
      </contour>
    </TTGlyph>
    <TTGlyph name="Q" xMin="38" yMin="-192" xMax="733" yMax="647">
      <contour>
        <pt x="715" y="-172" on="0"/>
        <pt x="696" y="-189" on="1"/>
        <pt x="689" y="-192" on="1"/>
        <pt x="488" y="-140" on="0"/>
        <pt x="336" y="-7" on="1"/>
        <pt x="312" y="-8" on="1"/>
        <pt x="180" y="-8" on="0"/>
        <pt x="38" y="160" on="0"/>
        <pt x="38" y="315" on="1"/>
        <pt x="38" y="475" on="0"/>
        <pt x="187" y="647" on="0"/>
        <pt x="326" y="647" on="1"/>
        <pt x="457" y="647" on="0"/>
        <pt x="598" y="484" on="0"/>
        <pt x="598" y="330" on="1"/>
        <pt x="598" y="201" on="0"/>
        <pt x="500" y="35" on="0"/>
        <pt x="409" y="6" on="1"/>
        <pt x="553" y="-95" on="0"/>
        <pt x="730" y="-128" on="1"/>
        <pt x="733" y="-138" on="1"/>
      </contour>
      <contour>
        <pt x="120" y="59" on="0"/>
        <pt x="317" y="59" on="1"/>
        <pt x="515" y="59" on="0"/>
        <pt x="515" y="323" on="1"/>
        <pt x="515" y="581" on="0"/>
        <pt x="318" y="581" on="1"/>
        <pt x="218" y="581" on="0"/>
        <pt x="120" y="453" on="0"/>
        <pt x="120" y="322" on="1"/>
      </contour>
    </TTGlyph>
    <TTGlyph name="R" xMin="93" yMin="-9" xMax="520" yMax="642">
      <contour>
        <pt x="420" y="150" on="0"/>
        <pt x="520" y="19" on="1"/>
        <pt x="519" y="9" on="1"/>
        <pt x="483" y="-5" on="0"/>
        <pt x="445" y="-9" on="1"/>
        <pt x="434" y="-2" on="1"/>
        <pt x="352" y="121" on="0"/>
        <pt x="287" y="238" on="1"/>
        <pt x="170" y="238" on="1"/>
        <pt x="170" y="200" on="1"/>
        <pt x="174" y="0" on="1"/>
        <pt x="93" y="0" on="1"/>
        <pt x="98" y="193" on="1"/>
        <pt x="93" y="641" on="1"/>
        <pt x="289" y="642" on="1"/>
        <pt x="383" y="642" on="0"/>
        <pt x="486" y="547" on="0"/>
        <pt x="486" y="459" on="1"/>
        <pt x="486" y="393" on="0"/>
        <pt x="417" y="288" on="0"/>
        <pt x="354" y="259" on="1"/>
      </contour>
      <contour>
        <pt x="291" y="303" on="1"/>
        <pt x="403" y="335" on="0"/>
        <pt x="403" y="452" on="1"/>
        <pt x="403" y="571" on="0"/>
        <pt x="271" y="576" on="1"/>
        <pt x="174" y="573" on="1"/>
        <pt x="171" y="306" on="1"/>
      </contour>
    </TTGlyph>
    <TTGlyph name="Racute" xMin="93" yMin="-9" xMax="520" yMax="879">
      <component glyphName="R" x="0" y="0" flags="0x1000"/>
      <component glyphName="acute" x="110" y="182" flags="0x1000"/>
    </TTGlyph>
    <TTGlyph name="Rcaron" xMin="93" yMin="-9" xMax="520" yMax="870">
      <component glyphName="R" x="0" y="0" flags="0x1000"/>
      <component glyphName="caron" x="84" y="182" flags="0x1000"/>
    </TTGlyph>
    <TTGlyph name="Rcommaaccent" xMin="93" yMin="-243" xMax="520" yMax="642">
      <contour>
        <pt x="434" y="130" on="0"/>
        <pt x="520" y="19" on="1"/>
        <pt x="519" y="9" on="1"/>
        <pt x="483" y="-5" on="0"/>
        <pt x="445" y="-9" on="1"/>
        <pt x="434" y="-2" on="1"/>
        <pt x="352" y="121" on="0"/>
        <pt x="287" y="238" on="1"/>
        <pt x="170" y="238" on="1"/>
        <pt x="170" y="200" on="1"/>
        <pt x="174" y="0" on="1"/>
        <pt x="93" y="0" on="1"/>
        <pt x="98" y="193" on="1"/>
        <pt x="93" y="641" on="1"/>
        <pt x="290" y="642" on="1"/>
        <pt x="384" y="642" on="0"/>
        <pt x="486" y="547" on="0"/>
        <pt x="486" y="459" on="1"/>
        <pt x="486" y="392" on="0"/>
        <pt x="417" y="287" on="0"/>
        <pt x="354" y="258" on="1"/>
      </contour>
      <contour>
        <pt x="292" y="303" on="1"/>
        <pt x="403" y="335" on="0"/>
        <pt x="403" y="452" on="1"/>
        <pt x="403" y="571" on="0"/>
        <pt x="271" y="576" on="1"/>
        <pt x="174" y="573" on="1"/>
        <pt x="171" y="306" on="1"/>
      </contour>
      <contour>
        <pt x="336" y="-82" on="0"/>
        <pt x="336" y="-118" on="1"/>
        <pt x="336" y="-179" on="0"/>
        <pt x="248" y="-243" on="1"/>
        <pt x="222" y="-220" on="1"/>
        <pt x="222" y="-214" on="1"/>
        <pt x="274" y="-173" on="0"/>
        <pt x="274" y="-132" on="1"/>
        <pt x="274" y="-108" on="0"/>
        <pt x="245" y="-87" on="1"/>
        <pt x="245" y="-80" on="1"/>
        <pt x="269" y="-64" on="0"/>
        <pt x="297" y="-55" on="1"/>
      </contour>
    </TTGlyph>
    <TTGlyph name="S" xMin="42" yMin="-7" xMax="429" yMax="646">
      <contour>
        <pt x="336" y="646" on="0"/>
        <pt x="410" y="616" on="1"/>
        <pt x="397" y="539" on="1"/>
        <pt x="383" y="535" on="1"/>
        <pt x="323" y="581" on="0"/>
        <pt x="257" y="581" on="1"/>
        <pt x="220" y="581" on="0"/>
        <pt x="165" y="551" on="0"/>
        <pt x="136" y="503" on="0"/>
        <pt x="136" y="477" on="1"/>
        <pt x="136" y="450" on="0"/>
        <pt x="169" y="409" on="0"/>
        <pt x="219" y="379" on="0"/>
        <pt x="262" y="358" on="1"/>
        <pt x="316" y="333" on="0"/>
        <pt x="382" y="290" on="0"/>
        <pt x="429" y="224" on="0"/>
        <pt x="429" y="177" on="1"/>
        <pt x="429" y="127" on="0"/>
        <pt x="375" y="43" on="0"/>
        <pt x="277" y="-7" on="0"/>
        <pt x="214" y="-7" on="1"/>
        <pt x="122" y="-7" on="0"/>
        <pt x="42" y="38" on="1"/>
        <pt x="52" y="120" on="1"/>
        <pt x="63" y="125" on="1"/>
        <pt x="98" y="91" on="0"/>
        <pt x="183" y="58" on="0"/>
        <pt x="222" y="58" on="1"/>
        <pt x="260" y="58" on="0"/>
        <pt x="319" y="88" on="0"/>
        <pt x="350" y="138" on="0"/>
        <pt x="350" y="166" on="1"/>
        <pt x="350" y="208" on="0"/>
        <pt x="286" y="259" on="0"/>
        <pt x="221" y="289" on="1"/>
        <pt x="168" y="315" on="0"/>
        <pt x="104" y="356" on="0"/>
        <pt x="58" y="421" on="0"/>
        <pt x="58" y="468" on="1"/>
        <pt x="58" y="517" on="0"/>
        <pt x="111" y="599" on="0"/>
        <pt x="206" y="646" on="0"/>
        <pt x="267" y="646" on="1"/>
      </contour>
    </TTGlyph>
    <TTGlyph name="Sacute" xMin="42" yMin="-7" xMax="429" yMax="879">
      <component glyphName="S" x="0" y="0" flags="0x1000"/>
      <component glyphName="acute" x="80" y="182" flags="0x1000"/>
    </TTGlyph>
    <TTGlyph name="Scaron" xMin="42" yMin="-7" xMax="429" yMax="870">
      <component glyphName="S" x="0" y="0" flags="0x1000"/>
      <component glyphName="caron" x="53" y="182" flags="0x1000"/>
    </TTGlyph>
    <TTGlyph name="Scedilla" xMin="42" yMin="-193" xMax="429" yMax="646">
      <contour>
        <pt x="429" y="109" on="0"/>
        <pt x="332" y="7" on="0"/>
        <pt x="253" y="-4" on="1"/>
        <pt x="239" y="-51" on="1"/>
        <pt x="273" y="-71" on="1"/>
        <pt x="311" y="-93" on="0"/>
        <pt x="311" y="-127" on="1"/>
        <pt x="311" y="-156" on="0"/>
        <pt x="266" y="-193" on="0"/>
        <pt x="230" y="-193" on="1"/>
        <pt x="187" y="-193" on="0"/>
        <pt x="158" y="-162" on="1"/>
        <pt x="165" y="-122" on="1"/>
        <pt x="170" y="-121" on="1"/>
        <pt x="198" y="-152" on="0"/>
        <pt x="227" y="-152" on="1"/>
        <pt x="241" y="-152" on="0"/>
        <pt x="258" y="-138" on="0"/>
        <pt x="258" y="-125" on="1"/>
        <pt x="258" y="-112" on="0"/>
        <pt x="237" y="-100" on="1"/>
        <pt x="189" y="-71" on="1"/>
        <pt x="207" y="-7" on="1"/>
        <pt x="118" y="-5" on="0"/>
        <pt x="42" y="38" on="1"/>
        <pt x="52" y="120" on="1"/>
        <pt x="63" y="125" on="1"/>
        <pt x="98" y="91" on="0"/>
        <pt x="183" y="58" on="0"/>
        <pt x="222" y="58" on="1"/>
        <pt x="260" y="58" on="0"/>
        <pt x="319" y="88" on="0"/>
        <pt x="350" y="138" on="0"/>
        <pt x="350" y="166" on="1"/>
        <pt x="350" y="208" on="0"/>
        <pt x="286" y="259" on="0"/>
        <pt x="221" y="289" on="1"/>
        <pt x="168" y="315" on="0"/>
        <pt x="104" y="356" on="0"/>
        <pt x="58" y="421" on="0"/>
        <pt x="58" y="468" on="1"/>
        <pt x="58" y="517" on="0"/>
        <pt x="111" y="599" on="0"/>
        <pt x="206" y="646" on="0"/>
        <pt x="267" y="646" on="1"/>
        <pt x="336" y="646" on="0"/>
        <pt x="410" y="616" on="1"/>
        <pt x="397" y="539" on="1"/>
        <pt x="383" y="535" on="1"/>
        <pt x="323" y="581" on="0"/>
        <pt x="257" y="581" on="1"/>
        <pt x="220" y="581" on="0"/>
        <pt x="165" y="551" on="0"/>
        <pt x="136" y="503" on="0"/>
        <pt x="136" y="477" on="1"/>
        <pt x="136" y="450" on="0"/>
        <pt x="169" y="409" on="0"/>
        <pt x="219" y="379" on="0"/>
        <pt x="262" y="358" on="1"/>
        <pt x="316" y="333" on="0"/>
        <pt x="382" y="290" on="0"/>
        <pt x="429" y="224" on="0"/>
        <pt x="429" y="177" on="1"/>
      </contour>
    </TTGlyph>
    <TTGlyph name="Scircumflex" xMin="42" yMin="-7" xMax="429" yMax="871">
      <contour>
        <pt x="172" y="794" on="0"/>
        <pt x="236" y="871" on="1"/>
        <pt x="260" y="871" on="1"/>
        <pt x="322" y="794" on="0"/>
        <pt x="381" y="737" on="1"/>
        <pt x="359" y="705" on="1"/>
        <pt x="350" y="705" on="1"/>
        <pt x="288" y="764" on="0"/>
        <pt x="248" y="809" on="1"/>
        <pt x="210" y="767" on="0"/>
        <pt x="146" y="705" on="1"/>
        <pt x="136" y="705" on="1"/>
        <pt x="114" y="737" on="1"/>
      </contour>
      <contour>
        <pt x="336" y="646" on="0"/>
        <pt x="410" y="616" on="1"/>
        <pt x="397" y="539" on="1"/>
        <pt x="383" y="535" on="1"/>
        <pt x="323" y="581" on="0"/>
        <pt x="257" y="581" on="1"/>
        <pt x="220" y="581" on="0"/>
        <pt x="165" y="551" on="0"/>
        <pt x="136" y="503" on="0"/>
        <pt x="136" y="477" on="1"/>
        <pt x="136" y="450" on="0"/>
        <pt x="169" y="409" on="0"/>
        <pt x="219" y="379" on="0"/>
        <pt x="262" y="358" on="1"/>
        <pt x="316" y="333" on="0"/>
        <pt x="382" y="290" on="0"/>
        <pt x="429" y="224" on="0"/>
        <pt x="429" y="177" on="1"/>
        <pt x="429" y="127" on="0"/>
        <pt x="375" y="43" on="0"/>
        <pt x="277" y="-7" on="0"/>
        <pt x="214" y="-7" on="1"/>
        <pt x="122" y="-7" on="0"/>
        <pt x="42" y="38" on="1"/>
        <pt x="52" y="120" on="1"/>
        <pt x="63" y="125" on="1"/>
        <pt x="98" y="91" on="0"/>
        <pt x="183" y="58" on="0"/>
        <pt x="222" y="58" on="1"/>
        <pt x="260" y="58" on="0"/>
        <pt x="319" y="88" on="0"/>
        <pt x="350" y="138" on="0"/>
        <pt x="350" y="166" on="1"/>
        <pt x="350" y="208" on="0"/>
        <pt x="286" y="259" on="0"/>
        <pt x="221" y="289" on="1"/>
        <pt x="168" y="315" on="0"/>
        <pt x="104" y="356" on="0"/>
        <pt x="58" y="421" on="0"/>
        <pt x="58" y="468" on="1"/>
        <pt x="58" y="517" on="0"/>
        <pt x="111" y="599" on="0"/>
        <pt x="206" y="646" on="0"/>
        <pt x="267" y="646" on="1"/>
      </contour>
    </TTGlyph>
    <TTGlyph name="Scommaaccent" xMin="42" yMin="-243" xMax="429" yMax="646">
      <contour>
        <pt x="336" y="646" on="0"/>
        <pt x="410" y="616" on="1"/>
        <pt x="397" y="539" on="1"/>
        <pt x="383" y="535" on="1"/>
        <pt x="323" y="581" on="0"/>
        <pt x="257" y="581" on="1"/>
        <pt x="220" y="581" on="0"/>
        <pt x="165" y="551" on="0"/>
        <pt x="136" y="503" on="0"/>
        <pt x="136" y="477" on="1"/>
        <pt x="136" y="450" on="0"/>
        <pt x="169" y="409" on="0"/>
        <pt x="219" y="379" on="0"/>
        <pt x="262" y="358" on="1"/>
        <pt x="316" y="333" on="0"/>
        <pt x="382" y="290" on="0"/>
        <pt x="429" y="224" on="0"/>
        <pt x="429" y="177" on="1"/>
        <pt x="429" y="127" on="0"/>
        <pt x="375" y="43" on="0"/>
        <pt x="277" y="-7" on="0"/>
        <pt x="214" y="-7" on="1"/>
        <pt x="122" y="-7" on="0"/>
        <pt x="42" y="38" on="1"/>
        <pt x="52" y="120" on="1"/>
        <pt x="63" y="125" on="1"/>
        <pt x="98" y="91" on="0"/>
        <pt x="183" y="58" on="0"/>
        <pt x="222" y="58" on="1"/>
        <pt x="260" y="58" on="0"/>
        <pt x="319" y="88" on="0"/>
        <pt x="350" y="138" on="0"/>
        <pt x="350" y="166" on="1"/>
        <pt x="350" y="208" on="0"/>
        <pt x="286" y="259" on="0"/>
        <pt x="221" y="289" on="1"/>
        <pt x="168" y="315" on="0"/>
        <pt x="104" y="356" on="0"/>
        <pt x="58" y="421" on="0"/>
        <pt x="58" y="468" on="1"/>
        <pt x="58" y="517" on="0"/>
        <pt x="111" y="599" on="0"/>
        <pt x="206" y="646" on="0"/>
        <pt x="267" y="646" on="1"/>
      </contour>
      <contour>
        <pt x="286" y="-82" on="0"/>
        <pt x="286" y="-118" on="1"/>
        <pt x="286" y="-179" on="0"/>
        <pt x="198" y="-243" on="1"/>
        <pt x="172" y="-220" on="1"/>
        <pt x="172" y="-214" on="1"/>
        <pt x="224" y="-173" on="0"/>
        <pt x="224" y="-132" on="1"/>
        <pt x="224" y="-108" on="0"/>
        <pt x="195" y="-87" on="1"/>
        <pt x="195" y="-80" on="1"/>
        <pt x="219" y="-64" on="0"/>
        <pt x="247" y="-55" on="1"/>
      </contour>
    </TTGlyph>
    <TTGlyph name="T" xMin="22" yMin="0" xMax="469" yMax="641">
      <contour>
        <pt x="463" y="571" on="1"/>
        <pt x="351" y="577" on="1"/>
        <pt x="286" y="577" on="1"/>
        <pt x="283" y="200" on="1"/>
        <pt x="286" y="0" on="1"/>
        <pt x="205" y="0" on="1"/>
        <pt x="211" y="193" on="1"/>
        <pt x="206" y="577" on="1"/>
        <pt x="141" y="577" on="1"/>
        <pt x="27" y="571" on="1"/>
        <pt x="22" y="579" on="1"/>
        <pt x="28" y="641" on="1"/>
        <pt x="463" y="641" on="1"/>
        <pt x="469" y="633" on="1"/>
      </contour>
    </TTGlyph>
    <TTGlyph name="Tbar" xMin="22" yMin="0" xMax="469" yMax="641">
      <contour>
        <pt x="284" y="345" on="1"/>
        <pt x="388" y="345" on="1"/>
        <pt x="395" y="340" on="1"/>
        <pt x="391" y="295" on="1"/>
        <pt x="283" y="295" on="1"/>
        <pt x="282" y="200" on="1"/>
        <pt x="286" y="0" on="1"/>
        <pt x="205" y="0" on="1"/>
        <pt x="210" y="193" on="1"/>
        <pt x="209" y="295" on="1"/>
        <pt x="114" y="295" on="1"/>
        <pt x="108" y="301" on="1"/>
        <pt x="112" y="345" on="1"/>
        <pt x="208" y="345" on="1"/>
        <pt x="206" y="577" on="1"/>
        <pt x="142" y="577" on="1"/>
        <pt x="28" y="571" on="1"/>
        <pt x="22" y="579" on="1"/>
        <pt x="29" y="641" on="1"/>
        <pt x="464" y="641" on="1"/>
        <pt x="469" y="633" on="1"/>
        <pt x="463" y="571" on="1"/>
        <pt x="351" y="577" on="1"/>
        <pt x="286" y="577" on="1"/>
      </contour>
    </TTGlyph>
    <TTGlyph name="Tcaron" xMin="22" yMin="0" xMax="469" yMax="870">
      <component glyphName="T" x="0" y="0" flags="0x1000"/>
      <component glyphName="caron" x="54" y="182" flags="0x1000"/>
    </TTGlyph>
    <TTGlyph name="Tcedilla" xMin="22" yMin="-193" xMax="469" yMax="641">
      <contour>
        <pt x="463" y="571" on="1"/>
        <pt x="351" y="577" on="1"/>
        <pt x="286" y="577" on="1"/>
        <pt x="282" y="200" on="1"/>
        <pt x="286" y="0" on="1"/>
        <pt x="265" y="0" on="1"/>
        <pt x="250" y="-51" on="1"/>
        <pt x="284" y="-71" on="1"/>
        <pt x="322" y="-93" on="0"/>
        <pt x="322" y="-127" on="1"/>
        <pt x="322" y="-156" on="0"/>
        <pt x="277" y="-193" on="0"/>
        <pt x="241" y="-193" on="1"/>
        <pt x="198" y="-193" on="0"/>
        <pt x="169" y="-162" on="1"/>
        <pt x="176" y="-122" on="1"/>
        <pt x="181" y="-121" on="1"/>
        <pt x="209" y="-152" on="0"/>
        <pt x="238" y="-152" on="1"/>
        <pt x="252" y="-152" on="0"/>
        <pt x="269" y="-138" on="0"/>
        <pt x="269" y="-125" on="1"/>
        <pt x="269" y="-112" on="0"/>
        <pt x="248" y="-100" on="1"/>
        <pt x="200" y="-71" on="1"/>
        <pt x="220" y="0" on="1"/>
        <pt x="205" y="0" on="1"/>
        <pt x="210" y="193" on="1"/>
        <pt x="206" y="577" on="1"/>
        <pt x="142" y="577" on="1"/>
        <pt x="28" y="571" on="1"/>
        <pt x="22" y="579" on="1"/>
        <pt x="29" y="641" on="1"/>
        <pt x="464" y="641" on="1"/>
        <pt x="469" y="633" on="1"/>
      </contour>
    </TTGlyph>
    <TTGlyph name="Thorn" xMin="94" yMin="0" xMax="488" yMax="641">
      <contour>
        <pt x="386" y="531" on="0"/>
        <pt x="488" y="434" on="0"/>
        <pt x="488" y="342" on="1"/>
        <pt x="488" y="234" on="0"/>
        <pt x="363" y="116" on="0"/>
        <pt x="248" y="116" on="1"/>
        <pt x="172" y="115" on="1"/>
        <pt x="174" y="0" on="1"/>
        <pt x="94" y="0" on="1"/>
        <pt x="97" y="193" on="1"/>
        <pt x="94" y="641" on="1"/>
        <pt x="175" y="641" on="1"/>
        <pt x="174" y="530" on="1"/>
        <pt x="291" y="531" on="1"/>
      </contour>
      <contour>
        <pt x="405" y="203" on="0"/>
        <pt x="405" y="336" on="1"/>
        <pt x="405" y="460" on="0"/>
        <pt x="273" y="466" on="1"/>
        <pt x="173" y="463" on="1"/>
        <pt x="171" y="200" on="1"/>
        <pt x="171" y="182" on="1"/>
        <pt x="277" y="180" on="1"/>
      </contour>
    </TTGlyph>
    <TTGlyph name="U" xMin="76" yMin="-7" xMax="554" yMax="641">
      <contour>
        <pt x="552" y="243" on="1"/>
        <pt x="554" y="125" on="0"/>
        <pt x="426" y="-7" on="0"/>
        <pt x="308" y="-7" on="1"/>
        <pt x="195" y="-7" on="0"/>
        <pt x="74" y="119" on="0"/>
        <pt x="76" y="234" on="1"/>
        <pt x="77" y="321" on="1"/>
        <pt x="76" y="641" on="1"/>
        <pt x="155" y="641" on="1"/>
        <pt x="152" y="244" on="1"/>
        <pt x="150" y="63" on="0"/>
        <pt x="314" y="63" on="1"/>
        <pt x="480" y="63" on="0"/>
        <pt x="478" y="234" on="1"/>
        <pt x="474" y="641" on="1"/>
        <pt x="554" y="641" on="1"/>
        <pt x="553" y="315" on="1"/>
      </contour>
    </TTGlyph>
    <TTGlyph name="Uacute" xMin="76" yMin="-7" xMax="554" yMax="863">
      <component glyphName="U" x="0" y="0" flags="0x1000"/>
      <component glyphName="acute.cap" x="148" y="182" flags="0x1000"/>
    </TTGlyph>
    <TTGlyph name="Ubreve" xMin="76" yMin="-7" xMax="554" yMax="853">
      <component glyphName="U" x="0" y="0" flags="0x1000"/>
      <component glyphName="breve" x="121" y="182" flags="0x1000"/>
    </TTGlyph>
    <TTGlyph name="Ucaron" xMin="76" yMin="-7" xMax="554" yMax="870">
      <component glyphName="U" x="0" y="0" flags="0x1000"/>
      <component glyphName="caron" x="121" y="182" flags="0x1000"/>
    </TTGlyph>
    <TTGlyph name="Ucircumflex" xMin="76" yMin="-7" xMax="554" yMax="858">
      <contour>
        <pt x="256" y="813" on="0"/>
        <pt x="305" y="858" on="1"/>
        <pt x="328" y="858" on="1"/>
        <pt x="373" y="818" on="0"/>
        <pt x="445" y="767" on="1"/>
        <pt x="429" y="733" on="1"/>
        <pt x="420" y="733" on="1"/>
        <pt x="364" y="767" on="0"/>
        <pt x="317" y="799" on="1"/>
        <pt x="278" y="772" on="0"/>
        <pt x="215" y="733" on="1"/>
        <pt x="205" y="733" on="1"/>
        <pt x="189" y="767" on="1"/>
      </contour>
      <contour>
        <pt x="551" y="243" on="1"/>
        <pt x="553" y="124" on="0"/>
        <pt x="426" y="-7" on="0"/>
        <pt x="308" y="-7" on="1"/>
        <pt x="194" y="-7" on="0"/>
        <pt x="74" y="118" on="0"/>
        <pt x="76" y="234" on="1"/>
        <pt x="77" y="321" on="1"/>
        <pt x="76" y="641" on="1"/>
        <pt x="155" y="641" on="1"/>
        <pt x="151" y="244" on="1"/>
        <pt x="149" y="63" on="0"/>
        <pt x="314" y="63" on="1"/>
        <pt x="478" y="63" on="0"/>
        <pt x="478" y="234" on="1"/>
        <pt x="474" y="641" on="1"/>
        <pt x="554" y="641" on="1"/>
        <pt x="552" y="315" on="1"/>
      </contour>
    </TTGlyph>
    <TTGlyph name="Udieresis" xMin="76" yMin="-7" xMax="554" yMax="833">
      <contour>
        <pt x="261" y="833" on="0"/>
        <pt x="283" y="811" on="0"/>
        <pt x="283" y="791" on="1"/>
        <pt x="283" y="770" on="0"/>
        <pt x="259" y="744" on="0"/>
        <pt x="238" y="744" on="1"/>
        <pt x="218" y="744" on="0"/>
        <pt x="196" y="768" on="0"/>
        <pt x="196" y="788" on="1"/>
        <pt x="196" y="808" on="0"/>
        <pt x="220" y="833" on="0"/>
        <pt x="241" y="833" on="1"/>
      </contour>
      <contour>
        <pt x="418" y="833" on="0"/>
        <pt x="440" y="811" on="0"/>
        <pt x="440" y="791" on="1"/>
        <pt x="440" y="770" on="0"/>
        <pt x="416" y="744" on="0"/>
        <pt x="395" y="744" on="1"/>
        <pt x="375" y="744" on="0"/>
        <pt x="353" y="768" on="0"/>
        <pt x="353" y="788" on="1"/>
        <pt x="353" y="808" on="0"/>
        <pt x="377" y="833" on="0"/>
        <pt x="398" y="833" on="1"/>
      </contour>
      <contour>
        <pt x="551" y="243" on="1"/>
        <pt x="553" y="124" on="0"/>
        <pt x="426" y="-7" on="0"/>
        <pt x="308" y="-7" on="1"/>
        <pt x="194" y="-7" on="0"/>
        <pt x="74" y="118" on="0"/>
        <pt x="76" y="234" on="1"/>
        <pt x="77" y="321" on="1"/>
        <pt x="76" y="641" on="1"/>
        <pt x="155" y="641" on="1"/>
        <pt x="151" y="244" on="1"/>
        <pt x="149" y="63" on="0"/>
        <pt x="314" y="63" on="1"/>
        <pt x="478" y="63" on="0"/>
        <pt x="478" y="234" on="1"/>
        <pt x="474" y="641" on="1"/>
        <pt x="554" y="641" on="1"/>
        <pt x="552" y="315" on="1"/>
      </contour>
    </TTGlyph>
    <TTGlyph name="Udieresisacute" xMin="76" yMin="-7" xMax="554" yMax="974">
      <component glyphName="U" x="0" y="0" flags="0x1000"/>
      <component glyphName="dieresisacute" x="120" y="182" flags="0x1000"/>
    </TTGlyph>
    <TTGlyph name="Udieresiscaron" xMin="76" yMin="-7" xMax="554" yMax="958">
      <component glyphName="U" x="0" y="0" flags="0x1000"/>
      <component glyphName="dieresiscaron" x="120" y="182" flags="0x1000"/>
    </TTGlyph>
    <TTGlyph name="Udieresisgrave" xMin="76" yMin="-7" xMax="554" yMax="974">
      <component glyphName="U" x="0" y="0" flags="0x1000"/>
      <component glyphName="dieresisgrave" x="120" y="182" flags="0x1000"/>
    </TTGlyph>
    <TTGlyph name="Udieresismacron" xMin="76" yMin="-7" xMax="554" yMax="930">
      <component glyphName="U" x="0" y="0" flags="0x1000"/>
      <component glyphName="dieresismacron" x="120" y="182" flags="0x1000"/>
    </TTGlyph>
    <TTGlyph name="Udotbelow" xMin="76" yMin="-163" xMax="554" yMax="641">
      <contour>
        <pt x="551" y="243" on="1"/>
        <pt x="553" y="124" on="0"/>
        <pt x="426" y="-7" on="0"/>
        <pt x="308" y="-7" on="1"/>
        <pt x="194" y="-7" on="0"/>
        <pt x="74" y="118" on="0"/>
        <pt x="76" y="234" on="1"/>
        <pt x="77" y="321" on="1"/>
        <pt x="76" y="641" on="1"/>
        <pt x="155" y="641" on="1"/>
        <pt x="151" y="244" on="1"/>
        <pt x="149" y="63" on="0"/>
        <pt x="314" y="63" on="1"/>
        <pt x="478" y="63" on="0"/>
        <pt x="478" y="234" on="1"/>
        <pt x="474" y="641" on="1"/>
        <pt x="554" y="641" on="1"/>
        <pt x="552" y="315" on="1"/>
      </contour>
      <contour>
        <pt x="333" y="-70" on="0"/>
        <pt x="357" y="-94" on="0"/>
        <pt x="357" y="-115" on="1"/>
        <pt x="357" y="-137" on="0"/>
        <pt x="332" y="-163" on="0"/>
        <pt x="310" y="-163" on="1"/>
        <pt x="266" y="-163" on="0"/>
        <pt x="266" y="-117" on="1"/>
        <pt x="266" y="-96" on="0"/>
        <pt x="291" y="-70" on="0"/>
        <pt x="313" y="-70" on="1"/>
      </contour>
    </TTGlyph>
    <TTGlyph name="Ugrave" xMin="76" yMin="-7" xMax="554" yMax="864">
      <contour>
        <pt x="325" y="812" on="0"/>
        <pt x="428" y="761" on="1"/>
        <pt x="414" y="725" on="1"/>
        <pt x="404" y="721" on="1"/>
        <pt x="298" y="766" on="0"/>
        <pt x="209" y="807" on="1"/>
        <pt x="207" y="815" on="1"/>
        <pt x="227" y="862" on="1"/>
        <pt x="236" y="864" on="1"/>
      </contour>
      <contour>
        <pt x="551" y="243" on="1"/>
        <pt x="553" y="124" on="0"/>
        <pt x="426" y="-7" on="0"/>
        <pt x="308" y="-7" on="1"/>
        <pt x="194" y="-7" on="0"/>
        <pt x="74" y="118" on="0"/>
        <pt x="76" y="234" on="1"/>
        <pt x="77" y="321" on="1"/>
        <pt x="76" y="641" on="1"/>
        <pt x="155" y="641" on="1"/>
        <pt x="151" y="244" on="1"/>
        <pt x="149" y="63" on="0"/>
        <pt x="314" y="63" on="1"/>
        <pt x="478" y="63" on="0"/>
        <pt x="478" y="234" on="1"/>
        <pt x="474" y="641" on="1"/>
        <pt x="554" y="641" on="1"/>
        <pt x="552" y="315" on="1"/>
      </contour>
    </TTGlyph>
    <TTGlyph name="Uhookabove" xMin="76" yMin="-7" xMax="554" yMax="894">
      <component glyphName="U" x="0" y="0" flags="0x1000"/>
      <component glyphName="hookabove" x="120" y="181" flags="0x1000"/>
    </TTGlyph>
    <TTGlyph name="Uhorn" xMin="76" yMin="-7" xMax="640" yMax="776">
      <contour>
        <pt x="640" y="663" on="0"/>
        <pt x="593" y="612" on="0"/>
        <pt x="554" y="602" on="1"/>
        <pt x="552" y="315" on="1"/>
        <pt x="551" y="243" on="1"/>
        <pt x="553" y="124" on="0"/>
        <pt x="426" y="-7" on="0"/>
        <pt x="308" y="-7" on="1"/>
        <pt x="194" y="-7" on="0"/>
        <pt x="74" y="118" on="0"/>
        <pt x="76" y="234" on="1"/>
        <pt x="77" y="321" on="1"/>
        <pt x="76" y="641" on="1"/>
        <pt x="155" y="641" on="1"/>
        <pt x="151" y="244" on="1"/>
        <pt x="149" y="63" on="0"/>
        <pt x="314" y="63" on="1"/>
        <pt x="478" y="63" on="0"/>
        <pt x="478" y="234" on="1"/>
        <pt x="474" y="641" on="1"/>
        <pt x="512" y="641" on="1"/>
        <pt x="577" y="641" on="0"/>
        <pt x="577" y="692" on="1"/>
        <pt x="577" y="723" on="0"/>
        <pt x="544" y="752" on="1"/>
        <pt x="547" y="760" on="1"/>
        <pt x="570" y="776" on="0"/>
        <pt x="586" y="776" on="1"/>
        <pt x="605" y="776" on="0"/>
        <pt x="640" y="729" on="0"/>
        <pt x="640" y="697" on="1"/>
      </contour>
    </TTGlyph>
    <TTGlyph name="Uhornacute" xMin="76" yMin="-7" xMax="640" yMax="864">
      <component glyphName="Uhorn" x="0" y="0" flags="0x1000"/>
      <component glyphName="acute.cap" x="147" y="183" flags="0x1000"/>
    </TTGlyph>
    <TTGlyph name="Uhorndotbelow" xMin="76" yMin="-163" xMax="640" yMax="776">
      <contour>
        <pt x="640" y="663" on="0"/>
        <pt x="593" y="612" on="0"/>
        <pt x="554" y="602" on="1"/>
        <pt x="552" y="315" on="1"/>
        <pt x="551" y="243" on="1"/>
        <pt x="553" y="124" on="0"/>
        <pt x="426" y="-7" on="0"/>
        <pt x="308" y="-7" on="1"/>
        <pt x="194" y="-7" on="0"/>
        <pt x="74" y="118" on="0"/>
        <pt x="76" y="234" on="1"/>
        <pt x="77" y="321" on="1"/>
        <pt x="76" y="641" on="1"/>
        <pt x="155" y="641" on="1"/>
        <pt x="151" y="244" on="1"/>
        <pt x="149" y="63" on="0"/>
        <pt x="314" y="63" on="1"/>
        <pt x="478" y="63" on="0"/>
        <pt x="478" y="234" on="1"/>
        <pt x="474" y="641" on="1"/>
        <pt x="512" y="641" on="1"/>
        <pt x="577" y="641" on="0"/>
        <pt x="577" y="692" on="1"/>
        <pt x="577" y="723" on="0"/>
        <pt x="544" y="752" on="1"/>
        <pt x="547" y="760" on="1"/>
        <pt x="570" y="776" on="0"/>
        <pt x="586" y="776" on="1"/>
        <pt x="605" y="776" on="0"/>
        <pt x="640" y="729" on="0"/>
        <pt x="640" y="697" on="1"/>
      </contour>
      <contour>
        <pt x="336" y="-70" on="0"/>
        <pt x="360" y="-94" on="0"/>
        <pt x="360" y="-115" on="1"/>
        <pt x="360" y="-137" on="0"/>
        <pt x="335" y="-163" on="0"/>
        <pt x="313" y="-163" on="1"/>
        <pt x="269" y="-163" on="0"/>
        <pt x="269" y="-117" on="1"/>
        <pt x="269" y="-96" on="0"/>
        <pt x="294" y="-70" on="0"/>
        <pt x="316" y="-70" on="1"/>
      </contour>
    </TTGlyph>
    <TTGlyph name="Uhorngrave" xMin="76" yMin="-7" xMax="640" yMax="865">
      <contour>
        <pt x="298" y="767" on="0"/>
        <pt x="209" y="808" on="1"/>
        <pt x="207" y="816" on="1"/>
        <pt x="227" y="863" on="1"/>
        <pt x="236" y="865" on="1"/>
        <pt x="325" y="813" on="0"/>
        <pt x="428" y="762" on="1"/>
        <pt x="414" y="726" on="1"/>
        <pt x="404" y="722" on="1"/>
      </contour>
      <contour>
        <pt x="640" y="663" on="0"/>
        <pt x="593" y="612" on="0"/>
        <pt x="554" y="602" on="1"/>
        <pt x="552" y="315" on="1"/>
        <pt x="551" y="243" on="1"/>
        <pt x="553" y="124" on="0"/>
        <pt x="426" y="-7" on="0"/>
        <pt x="308" y="-7" on="1"/>
        <pt x="194" y="-7" on="0"/>
        <pt x="74" y="118" on="0"/>
        <pt x="76" y="234" on="1"/>
        <pt x="77" y="321" on="1"/>
        <pt x="76" y="641" on="1"/>
        <pt x="155" y="641" on="1"/>
        <pt x="151" y="244" on="1"/>
        <pt x="149" y="63" on="0"/>
        <pt x="314" y="63" on="1"/>
        <pt x="478" y="63" on="0"/>
        <pt x="478" y="234" on="1"/>
        <pt x="474" y="641" on="1"/>
        <pt x="512" y="641" on="1"/>
        <pt x="577" y="641" on="0"/>
        <pt x="577" y="692" on="1"/>
        <pt x="577" y="723" on="0"/>
        <pt x="544" y="752" on="1"/>
        <pt x="547" y="760" on="1"/>
        <pt x="570" y="776" on="0"/>
        <pt x="586" y="776" on="1"/>
        <pt x="605" y="776" on="0"/>
        <pt x="640" y="729" on="0"/>
        <pt x="640" y="697" on="1"/>
      </contour>
    </TTGlyph>
    <TTGlyph name="Uhornhookabove" xMin="76" yMin="-7" xMax="640" yMax="895">
      <component glyphName="Uhorn" x="0" y="0" flags="0x1000"/>
      <component glyphName="hookabove" x="119" y="182" flags="0x1000"/>
    </TTGlyph>
    <TTGlyph name="Uhorntilde" xMin="76" yMin="-7" xMax="640" yMax="850">
      <component glyphName="Uhorn" x="0" y="0" flags="0x1000"/>
      <component glyphName="tilde" x="120" y="183" flags="0x1000"/>
    </TTGlyph>
    <TTGlyph name="Uhungarumlaut" xMin="76" yMin="-7" xMax="554" yMax="863">
      <component glyphName="U" x="0" y="0" flags="0x1000"/>
      <component glyphName="hungarumlaut.cap" x="147" y="182" flags="0x1000"/>
    </TTGlyph>
    <TTGlyph name="Umacron" xMin="76" yMin="-7" xMax="554" yMax="816">
      <component glyphName="U" x="0" y="0" flags="0x1000"/>
      <component glyphName="macron" x="120" y="182" flags="0x1000"/>
    </TTGlyph>
    <TTGlyph name="Uogonek" xMin="76" yMin="-197" xMax="554" yMax="641">
      <contour>
        <pt x="551" y="243" on="1"/>
        <pt x="554" y="102" on="0"/>
        <pt x="465" y="38" on="1"/>
        <pt x="405" y="-60" on="1"/>
        <pt x="388" y="-86" on="0"/>
        <pt x="388" y="-110" on="1"/>
        <pt x="388" y="-144" on="0"/>
        <pt x="425" y="-144" on="1"/>
        <pt x="463" y="-144" on="0"/>
        <pt x="498" y="-106" on="1"/>
        <pt x="502" y="-106" on="1"/>
        <pt x="514" y="-144" on="1"/>
        <pt x="466" y="-197" on="0"/>
        <pt x="415" y="-197" on="1"/>
        <pt x="380" y="-197" on="0"/>
        <pt x="337" y="-153" on="0"/>
        <pt x="337" y="-117" on="1"/>
        <pt x="337" y="-84" on="0"/>
        <pt x="359" y="-51" on="1"/>
        <pt x="395" y="4" on="1"/>
        <pt x="354" y="-7" on="0"/>
        <pt x="308" y="-7" on="1"/>
        <pt x="194" y="-7" on="0"/>
        <pt x="74" y="118" on="0"/>
        <pt x="76" y="234" on="1"/>
        <pt x="77" y="321" on="1"/>
        <pt x="76" y="641" on="1"/>
        <pt x="155" y="641" on="1"/>
        <pt x="151" y="244" on="1"/>
        <pt x="149" y="63" on="0"/>
        <pt x="314" y="63" on="1"/>
        <pt x="478" y="63" on="0"/>
        <pt x="478" y="234" on="1"/>
        <pt x="474" y="641" on="1"/>
        <pt x="554" y="641" on="1"/>
        <pt x="552" y="315" on="1"/>
      </contour>
    </TTGlyph>
    <TTGlyph name="Uring" xMin="76" yMin="-7" xMax="554" yMax="879">
      <component glyphName="U" x="0" y="0" flags="0x1000"/>
      <component glyphName="ring" x="120" y="182" flags="0x1000"/>
    </TTGlyph>
    <TTGlyph name="Utilde" xMin="76" yMin="-7" xMax="554" yMax="849">
      <component glyphName="U" x="0" y="0" flags="0x1000"/>
      <component glyphName="tilde" x="120" y="182" flags="0x1000"/>
    </TTGlyph>
    <TTGlyph name="V" xMin="15" yMin="0" xMax="557" yMax="641">
      <contour>
        <pt x="229" y="0" on="1"/>
        <pt x="15" y="641" on="1"/>
        <pt x="97" y="641" on="1"/>
        <pt x="112" y="576" on="1"/>
        <pt x="275" y="81" on="1"/>
        <pt x="281" y="81" on="1"/>
        <pt x="461" y="572" on="1"/>
        <pt x="477" y="641" on="1"/>
        <pt x="557" y="641" on="1"/>
        <pt x="322" y="0" on="1"/>
      </contour>
    </TTGlyph>
    <TTGlyph name="V.ss01" xMin="-100" yMin="0" xMax="600" yMax="498">
      <contour>
        <pt x="301" y="35" on="1"/>
        <pt x="600" y="35" on="1"/>
        <pt x="600" y="0" on="1"/>
        <pt x="-100" y="0" on="1"/>
        <pt x="-100" y="35" on="1"/>
        <pt x="193" y="35" on="1"/>
        <pt x="43" y="464" on="1"/>
        <pt x="-100" y="464" on="1"/>
        <pt x="-100" y="498" on="1"/>
        <pt x="600" y="498" on="1"/>
        <pt x="600" y="464" on="1"/>
        <pt x="465" y="464" on="1"/>
      </contour>
      <contour>
        <pt x="114" y="464" on="1"/>
        <pt x="120" y="439" on="1"/>
        <pt x="246" y="78" on="1"/>
        <pt x="251" y="78" on="1"/>
        <pt x="390" y="435" on="1"/>
        <pt x="396" y="464" on="1"/>
      </contour>
    </TTGlyph>
    <TTGlyph name="W" xMin="21" yMin="0" xMax="885" yMax="641">
      <contour>
        <pt x="572" y="0" on="1"/>
        <pt x="447" y="372" on="1"/>
        <pt x="440" y="372" on="1"/>
        <pt x="308" y="0" on="1"/>
        <pt x="225" y="0" on="1"/>
        <pt x="21" y="641" on="1"/>
        <pt x="101" y="641" on="1"/>
        <pt x="112" y="579" on="1"/>
        <pt x="268" y="89" on="1"/>
        <pt x="275" y="89" on="1"/>
        <pt x="413" y="479" on="1"/>
        <pt x="359" y="641" on="1"/>
        <pt x="441" y="641" on="1"/>
        <pt x="456" y="572" on="1"/>
        <pt x="614" y="89" on="1"/>
        <pt x="620" y="89" on="1"/>
        <pt x="794" y="575" on="1"/>
        <pt x="809" y="641" on="1"/>
        <pt x="885" y="641" on="1"/>
        <pt x="655" y="0" on="1"/>
      </contour>
    </TTGlyph>
    <TTGlyph name="Wacute" xMin="21" yMin="0" xMax="885" yMax="863">
      <component glyphName="W" x="0" y="0" flags="0x1000"/>
      <component glyphName="acute.cap" x="272" y="182" flags="0x1000"/>
    </TTGlyph>
    <TTGlyph name="Wcircumflex" xMin="21" yMin="0" xMax="884" yMax="858">
      <contour>
        <pt x="378" y="813" on="0"/>
        <pt x="427" y="858" on="1"/>
        <pt x="450" y="858" on="1"/>
        <pt x="495" y="818" on="0"/>
        <pt x="567" y="767" on="1"/>
        <pt x="551" y="733" on="1"/>
        <pt x="542" y="733" on="1"/>
        <pt x="486" y="767" on="0"/>
        <pt x="439" y="799" on="1"/>
        <pt x="400" y="772" on="0"/>
        <pt x="337" y="733" on="1"/>
        <pt x="327" y="733" on="1"/>
        <pt x="311" y="767" on="1"/>
      </contour>
      <contour>
        <pt x="572" y="0" on="1"/>
        <pt x="447" y="372" on="1"/>
        <pt x="440" y="372" on="1"/>
        <pt x="308" y="0" on="1"/>
        <pt x="225" y="0" on="1"/>
        <pt x="21" y="641" on="1"/>
        <pt x="100" y="641" on="1"/>
        <pt x="112" y="579" on="1"/>
        <pt x="268" y="89" on="1"/>
        <pt x="275" y="89" on="1"/>
        <pt x="413" y="479" on="1"/>
        <pt x="358" y="641" on="1"/>
        <pt x="440" y="641" on="1"/>
        <pt x="456" y="572" on="1"/>
        <pt x="614" y="89" on="1"/>
        <pt x="620" y="89" on="1"/>
        <pt x="794" y="575" on="1"/>
        <pt x="809" y="641" on="1"/>
        <pt x="884" y="641" on="1"/>
        <pt x="655" y="0" on="1"/>
      </contour>
    </TTGlyph>
    <TTGlyph name="Wdieresis" xMin="21" yMin="0" xMax="884" yMax="833">
      <contour>
        <pt x="383" y="833" on="0"/>
        <pt x="405" y="811" on="0"/>
        <pt x="405" y="791" on="1"/>
        <pt x="405" y="770" on="0"/>
        <pt x="381" y="744" on="0"/>
        <pt x="360" y="744" on="1"/>
        <pt x="340" y="744" on="0"/>
        <pt x="318" y="768" on="0"/>
        <pt x="318" y="788" on="1"/>
        <pt x="318" y="808" on="0"/>
        <pt x="342" y="833" on="0"/>
        <pt x="363" y="833" on="1"/>
      </contour>
      <contour>
        <pt x="540" y="833" on="0"/>
        <pt x="562" y="811" on="0"/>
        <pt x="562" y="791" on="1"/>
        <pt x="562" y="770" on="0"/>
        <pt x="538" y="744" on="0"/>
        <pt x="517" y="744" on="1"/>
        <pt x="497" y="744" on="0"/>
        <pt x="475" y="768" on="0"/>
        <pt x="475" y="788" on="1"/>
        <pt x="475" y="808" on="0"/>
        <pt x="499" y="833" on="0"/>
        <pt x="520" y="833" on="1"/>
      </contour>
      <contour>
        <pt x="572" y="0" on="1"/>
        <pt x="447" y="372" on="1"/>
        <pt x="440" y="372" on="1"/>
        <pt x="308" y="0" on="1"/>
        <pt x="225" y="0" on="1"/>
        <pt x="21" y="641" on="1"/>
        <pt x="100" y="641" on="1"/>
        <pt x="112" y="579" on="1"/>
        <pt x="268" y="89" on="1"/>
        <pt x="275" y="89" on="1"/>
        <pt x="413" y="479" on="1"/>
        <pt x="358" y="641" on="1"/>
        <pt x="440" y="641" on="1"/>
        <pt x="456" y="572" on="1"/>
        <pt x="614" y="89" on="1"/>
        <pt x="620" y="89" on="1"/>
        <pt x="794" y="575" on="1"/>
        <pt x="809" y="641" on="1"/>
        <pt x="884" y="641" on="1"/>
        <pt x="655" y="0" on="1"/>
      </contour>
    </TTGlyph>
    <TTGlyph name="Wgrave" xMin="21" yMin="0" xMax="884" yMax="864">
      <contour>
        <pt x="447" y="812" on="0"/>
        <pt x="550" y="761" on="1"/>
        <pt x="536" y="725" on="1"/>
        <pt x="526" y="721" on="1"/>
        <pt x="420" y="766" on="0"/>
        <pt x="331" y="807" on="1"/>
        <pt x="329" y="815" on="1"/>
        <pt x="349" y="862" on="1"/>
        <pt x="358" y="864" on="1"/>
      </contour>
      <contour>
        <pt x="572" y="0" on="1"/>
        <pt x="447" y="372" on="1"/>
        <pt x="440" y="372" on="1"/>
        <pt x="308" y="0" on="1"/>
        <pt x="225" y="0" on="1"/>
        <pt x="21" y="641" on="1"/>
        <pt x="100" y="641" on="1"/>
        <pt x="112" y="579" on="1"/>
        <pt x="268" y="89" on="1"/>
        <pt x="275" y="89" on="1"/>
        <pt x="413" y="479" on="1"/>
        <pt x="358" y="641" on="1"/>
        <pt x="440" y="641" on="1"/>
        <pt x="456" y="572" on="1"/>
        <pt x="614" y="89" on="1"/>
        <pt x="620" y="89" on="1"/>
        <pt x="794" y="575" on="1"/>
        <pt x="809" y="641" on="1"/>
        <pt x="884" y="641" on="1"/>
        <pt x="655" y="0" on="1"/>
      </contour>
    </TTGlyph>
    <TTGlyph name="X" xMin="23" yMin="0" xMax="560" yMax="641">
      <contour>
        <pt x="560" y="0" on="1"/>
        <pt x="463" y="0" on="1"/>
        <pt x="435" y="52" on="1"/>
        <pt x="287" y="271" on="1"/>
        <pt x="134" y="47" on="1"/>
        <pt x="108" y="0" on="1"/>
        <pt x="23" y="0" on="1"/>
        <pt x="240" y="324" on="1"/>
        <pt x="31" y="641" on="1"/>
        <pt x="128" y="641" on="1"/>
        <pt x="154" y="590" on="1"/>
        <pt x="292" y="385" on="1"/>
        <pt x="431" y="591" on="1"/>
        <pt x="457" y="641" on="1"/>
        <pt x="544" y="641" on="1"/>
        <pt x="341" y="334" on="1"/>
      </contour>
    </TTGlyph>
    <TTGlyph name="X.ss01" xMin="-100" yMin="0" xMax="620" yMax="498">
      <contour>
        <pt x="461" y="35" on="1"/>
        <pt x="620" y="35" on="1"/>
        <pt x="620" y="0" on="1"/>
        <pt x="-100" y="0" on="1"/>
        <pt x="-100" y="35" on="1"/>
        <pt x="61" y="35" on="1"/>
        <pt x="215" y="251" on="1"/>
        <pt x="65" y="464" on="1"/>
        <pt x="-100" y="464" on="1"/>
        <pt x="-100" y="498" on="1"/>
        <pt x="620" y="498" on="1"/>
        <pt x="620" y="464" on="1"/>
        <pt x="448" y="464" on="1"/>
        <pt x="305" y="261" on="1"/>
      </contour>
      <contour>
        <pt x="366" y="447" on="1"/>
        <pt x="375" y="464" on="1"/>
        <pt x="150" y="464" on="1"/>
        <pt x="159" y="446" on="1"/>
        <pt x="262" y="305" on="1"/>
      </contour>
      <contour>
        <pt x="141" y="51" on="1"/>
        <pt x="132" y="35" on="1"/>
        <pt x="378" y="35" on="1"/>
        <pt x="368" y="54" on="1"/>
        <pt x="257" y="205" on="1"/>
      </contour>
    </TTGlyph>
    <TTGlyph name="Y" xMin="15" yMin="0" xMax="515" yMax="641">
      <contour>
        <pt x="295" y="0" on="1"/>
        <pt x="214" y="0" on="1"/>
        <pt x="220" y="187" on="1"/>
        <pt x="219" y="230" on="1"/>
        <pt x="15" y="641" on="1"/>
        <pt x="101" y="641" on="1"/>
        <pt x="114" y="605" on="1"/>
        <pt x="254" y="317" on="1"/>
        <pt x="262" y="317" on="1"/>
        <pt x="415" y="603" on="1"/>
        <pt x="430" y="641" on="1"/>
        <pt x="515" y="641" on="1"/>
        <pt x="293" y="230" on="1"/>
        <pt x="292" y="187" on="1"/>
      </contour>
    </TTGlyph>
    <TTGlyph name="Yacute" xMin="15" yMin="0" xMax="515" yMax="863">
      <component glyphName="Y" x="0" y="0" flags="0x1000"/>
      <component glyphName="acute.cap" x="90" y="182" flags="0x1000"/>
    </TTGlyph>
    <TTGlyph name="Ycircumflex" xMin="15" yMin="0" xMax="515" yMax="858">
      <contour>
        <pt x="130" y="767" on="1"/>
        <pt x="197" y="813" on="0"/>
        <pt x="246" y="858" on="1"/>
        <pt x="269" y="858" on="1"/>
        <pt x="314" y="818" on="0"/>
        <pt x="386" y="767" on="1"/>
        <pt x="370" y="733" on="1"/>
        <pt x="361" y="733" on="1"/>
        <pt x="305" y="767" on="0"/>
        <pt x="258" y="799" on="1"/>
        <pt x="219" y="772" on="0"/>
        <pt x="156" y="733" on="1"/>
        <pt x="146" y="733" on="1"/>
      </contour>
      <contour>
        <pt x="295" y="0" on="1"/>
        <pt x="214" y="0" on="1"/>
        <pt x="219" y="187" on="1"/>
        <pt x="218" y="231" on="1"/>
        <pt x="15" y="641" on="1"/>
        <pt x="101" y="641" on="1"/>
        <pt x="114" y="605" on="1"/>
        <pt x="254" y="317" on="1"/>
        <pt x="262" y="317" on="1"/>
        <pt x="415" y="603" on="1"/>
        <pt x="430" y="641" on="1"/>
        <pt x="515" y="641" on="1"/>
        <pt x="292" y="228" on="1"/>
        <pt x="291" y="187" on="1"/>
      </contour>
    </TTGlyph>
    <TTGlyph name="Ydieresis" xMin="15" yMin="0" xMax="515" yMax="833">
      <contour>
        <pt x="159" y="744" on="0"/>
        <pt x="137" y="768" on="0"/>
        <pt x="137" y="788" on="1"/>
        <pt x="137" y="808" on="0"/>
        <pt x="161" y="833" on="0"/>
        <pt x="182" y="833" on="1"/>
        <pt x="202" y="833" on="0"/>
        <pt x="224" y="811" on="0"/>
        <pt x="224" y="791" on="1"/>
        <pt x="224" y="770" on="0"/>
        <pt x="200" y="744" on="0"/>
        <pt x="179" y="744" on="1"/>
      </contour>
      <contour>
        <pt x="316" y="744" on="0"/>
        <pt x="294" y="768" on="0"/>
        <pt x="294" y="788" on="1"/>
        <pt x="294" y="808" on="0"/>
        <pt x="318" y="833" on="0"/>
        <pt x="339" y="833" on="1"/>
        <pt x="359" y="833" on="0"/>
        <pt x="381" y="811" on="0"/>
        <pt x="381" y="791" on="1"/>
        <pt x="381" y="770" on="0"/>
        <pt x="357" y="744" on="0"/>
        <pt x="336" y="744" on="1"/>
      </contour>
      <contour>
        <pt x="295" y="0" on="1"/>
        <pt x="214" y="0" on="1"/>
        <pt x="219" y="187" on="1"/>
        <pt x="218" y="231" on="1"/>
        <pt x="15" y="641" on="1"/>
        <pt x="101" y="641" on="1"/>
        <pt x="114" y="605" on="1"/>
        <pt x="254" y="317" on="1"/>
        <pt x="262" y="317" on="1"/>
        <pt x="415" y="603" on="1"/>
        <pt x="430" y="641" on="1"/>
        <pt x="515" y="641" on="1"/>
        <pt x="292" y="228" on="1"/>
        <pt x="291" y="187" on="1"/>
      </contour>
    </TTGlyph>
    <TTGlyph name="Ydotbelow" xMin="15" yMin="-163" xMax="515" yMax="641">
      <contour>
        <pt x="15" y="641" on="1"/>
        <pt x="101" y="641" on="1"/>
        <pt x="114" y="605" on="1"/>
        <pt x="254" y="317" on="1"/>
        <pt x="262" y="317" on="1"/>
        <pt x="415" y="603" on="1"/>
        <pt x="430" y="641" on="1"/>
        <pt x="515" y="641" on="1"/>
        <pt x="292" y="228" on="1"/>
        <pt x="291" y="187" on="1"/>
        <pt x="295" y="0" on="1"/>
        <pt x="214" y="0" on="1"/>
        <pt x="219" y="187" on="1"/>
        <pt x="218" y="231" on="1"/>
      </contour>
      <contour>
        <pt x="276" y="-70" on="0"/>
        <pt x="300" y="-94" on="0"/>
        <pt x="300" y="-115" on="1"/>
        <pt x="300" y="-137" on="0"/>
        <pt x="275" y="-163" on="0"/>
        <pt x="253" y="-163" on="1"/>
        <pt x="209" y="-163" on="0"/>
        <pt x="209" y="-117" on="1"/>
        <pt x="209" y="-96" on="0"/>
        <pt x="234" y="-70" on="0"/>
        <pt x="256" y="-70" on="1"/>
      </contour>
    </TTGlyph>
    <TTGlyph name="Ygrave" xMin="15" yMin="0" xMax="515" yMax="864">
      <contour>
        <pt x="239" y="766" on="0"/>
        <pt x="150" y="807" on="1"/>
        <pt x="148" y="815" on="1"/>
        <pt x="168" y="862" on="1"/>
        <pt x="177" y="864" on="1"/>
        <pt x="266" y="812" on="0"/>
        <pt x="369" y="761" on="1"/>
        <pt x="355" y="725" on="1"/>
        <pt x="345" y="721" on="1"/>
      </contour>
      <contour>
        <pt x="295" y="0" on="1"/>
        <pt x="214" y="0" on="1"/>
        <pt x="219" y="187" on="1"/>
        <pt x="218" y="231" on="1"/>
        <pt x="15" y="641" on="1"/>
        <pt x="101" y="641" on="1"/>
        <pt x="114" y="605" on="1"/>
        <pt x="254" y="317" on="1"/>
        <pt x="262" y="317" on="1"/>
        <pt x="415" y="603" on="1"/>
        <pt x="430" y="641" on="1"/>
        <pt x="515" y="641" on="1"/>
        <pt x="292" y="228" on="1"/>
        <pt x="291" y="187" on="1"/>
      </contour>
    </TTGlyph>
    <TTGlyph name="Yhookabove" xMin="15" yMin="0" xMax="515" yMax="894">
      <component glyphName="Y" x="0" y="0" flags="0x1000"/>
      <component glyphName="hookabove" x="62" y="181" flags="0x1000"/>
    </TTGlyph>
    <TTGlyph name="Ytilde" xMin="15" yMin="0" xMax="515" yMax="849">
      <component glyphName="Y" x="0" y="0" flags="0x1000"/>
      <component glyphName="tilde" x="63" y="182" flags="0x1000"/>
    </TTGlyph>
    <TTGlyph name="Z" xMin="31" yMin="-3" xMax="492" yMax="642">
      <contour>
        <pt x="127" y="65" on="1"/>
        <pt x="393" y="65" on="1"/>
        <pt x="488" y="72" on="1"/>
        <pt x="492" y="66" on="1"/>
        <pt x="485" y="-2" on="1"/>
        <pt x="369" y="0" on="1"/>
        <pt x="88" y="0" on="1"/>
        <pt x="31" y="-3" on="1"/>
        <pt x="31" y="56" on="1"/>
        <pt x="391" y="575" on="1"/>
        <pt x="144" y="575" on="1"/>
        <pt x="48" y="568" on="1"/>
        <pt x="43" y="574" on="1"/>
        <pt x="49" y="642" on="1"/>
        <pt x="437" y="641" on="1"/>
        <pt x="486" y="642" on="1"/>
        <pt x="486" y="582" on="1"/>
      </contour>
    </TTGlyph>
    <TTGlyph name="Zacute" xMin="31" yMin="-3" xMax="492" yMax="863">
      <component glyphName="Z" x="0" y="0" flags="0x1000"/>
      <component glyphName="acute.cap" x="102" y="182" flags="0x1000"/>
    </TTGlyph>
    <TTGlyph name="Zcaron" xMin="31" yMin="-3" xMax="492" yMax="848">
      <component glyphName="Z" x="0" y="0" flags="0x1000"/>
      <component glyphName="caron.cap" x="75" y="182" flags="0x1000"/>
    </TTGlyph>
    <TTGlyph name="Zdotaccent" xMin="31" yMin="-3" xMax="492" yMax="845">
      <contour>
        <pt x="291" y="845" on="0"/>
        <pt x="315" y="821" on="0"/>
        <pt x="315" y="801" on="1"/>
        <pt x="315" y="778" on="0"/>
        <pt x="290" y="752" on="0"/>
        <pt x="268" y="752" on="1"/>
        <pt x="224" y="752" on="0"/>
        <pt x="224" y="798" on="1"/>
        <pt x="224" y="819" on="0"/>
        <pt x="249" y="845" on="0"/>
        <pt x="271" y="845" on="1"/>
      </contour>
      <contour>
        <pt x="127" y="65" on="1"/>
        <pt x="393" y="65" on="1"/>
        <pt x="488" y="72" on="1"/>
        <pt x="492" y="66" on="1"/>
        <pt x="485" y="-2" on="1"/>
        <pt x="369" y="0" on="1"/>
        <pt x="88" y="0" on="1"/>
        <pt x="31" y="-3" on="1"/>
        <pt x="31" y="56" on="1"/>
        <pt x="391" y="575" on="1"/>
        <pt x="144" y="575" on="1"/>
        <pt x="48" y="568" on="1"/>
        <pt x="43" y="574" on="1"/>
        <pt x="49" y="642" on="1"/>
        <pt x="437" y="641" on="1"/>
        <pt x="486" y="642" on="1"/>
        <pt x="486" y="582" on="1"/>
      </contour>
    </TTGlyph>
    <TTGlyph name="a" xMin="25" yMin="0" xMax="478" yMax="498">
      <contour>
        <pt x="403" y="0" on="1"/>
        <pt x="391" y="54" on="1"/>
        <pt x="365" y="128" on="1"/>
        <pt x="246" y="129" on="1"/>
        <pt x="140" y="128" on="1"/>
        <pt x="113" y="58" on="1"/>
        <pt x="99" y="0" on="1"/>
        <pt x="25" y="0" on="1"/>
        <pt x="217" y="498" on="1"/>
        <pt x="303" y="498" on="1"/>
        <pt x="478" y="0" on="1"/>
      </contour>
      <contour>
        <pt x="261" y="425" on="1"/>
        <pt x="255" y="425" on="1"/>
        <pt x="164" y="189" on="1"/>
        <pt x="252" y="188" on="1"/>
        <pt x="344" y="189" on="1"/>
      </contour>
    </TTGlyph>
    <TTGlyph name="a.sups" xMin="34" yMin="332" xMax="302" yMax="649">
      <contour>
        <pt x="214" y="649" on="0"/>
        <pt x="266" y="605" on="0"/>
        <pt x="266" y="564" on="1"/>
        <pt x="263" y="483" on="1"/>
        <pt x="260" y="435" on="0"/>
        <pt x="260" y="413" on="1"/>
        <pt x="260" y="386" on="0"/>
        <pt x="277" y="386" on="1"/>
        <pt x="289" y="386" on="0"/>
        <pt x="296" y="392" on="1"/>
        <pt x="302" y="388" on="1"/>
        <pt x="294" y="348" on="1"/>
        <pt x="275" y="333" on="0"/>
        <pt x="252" y="333" on="1"/>
        <pt x="230" y="333" on="0"/>
        <pt x="208" y="355" on="0"/>
        <pt x="203" y="381" on="1"/>
        <pt x="200" y="381" on="1"/>
        <pt x="165" y="341" on="0"/>
        <pt x="125" y="332" on="1"/>
        <pt x="82" y="334" on="0"/>
        <pt x="34" y="381" on="0"/>
        <pt x="34" y="421" on="1"/>
        <pt x="34" y="483" on="0"/>
        <pt x="99" y="495" on="1"/>
        <pt x="200" y="514" on="1"/>
        <pt x="201" y="551" on="1"/>
        <pt x="201" y="598" on="0"/>
        <pt x="153" y="598" on="1"/>
        <pt x="115" y="598" on="0"/>
        <pt x="62" y="561" on="1"/>
        <pt x="57" y="563" on="1"/>
        <pt x="48" y="610" on="1"/>
        <pt x="107" y="649" on="0"/>
        <pt x="165" y="649" on="1"/>
      </contour>
      <contour>
        <pt x="98" y="457" on="0"/>
        <pt x="98" y="427" on="1"/>
        <pt x="98" y="407" on="0"/>
        <pt x="120" y="383" on="0"/>
        <pt x="139" y="383" on="1"/>
        <pt x="168" y="383" on="0"/>
        <pt x="198" y="419" on="1"/>
        <pt x="199" y="479" on="1"/>
        <pt x="129" y="463" on="1"/>
      </contour>
    </TTGlyph>
    <TTGlyph name="aacute" xMin="25" yMin="0" xMax="478" yMax="737">
      <component glyphName="a" x="0" y="0" flags="0x1000"/>
      <component glyphName="acute" x="93" y="40" flags="0x1000"/>
    </TTGlyph>
    <TTGlyph name="abreve" xMin="25" yMin="0" xMax="478" yMax="711">
      <component glyphName="a" x="0" y="0" flags="0x1000"/>
      <component glyphName="breve" x="67" y="40" flags="0x1000"/>
    </TTGlyph>
    <TTGlyph name="abreveacute" xMin="25" yMin="0" xMax="478" yMax="807">
      <component glyphName="a" x="0" y="0" flags="0x1000"/>
      <component glyphName="breveacute" x="66" y="40" flags="0x1000"/>
    </TTGlyph>
    <TTGlyph name="abrevedotbelow" xMin="25" yMin="-163" xMax="479" yMax="711">
      <contour>
        <pt x="159" y="567" on="0"/>
        <pt x="136" y="682" on="1"/>
        <pt x="158" y="711" on="1"/>
        <pt x="170" y="711" on="1"/>
        <pt x="189" y="624" on="0"/>
        <pt x="262" y="624" on="1"/>
        <pt x="335" y="624" on="0"/>
        <pt x="354" y="711" on="1"/>
        <pt x="366" y="711" on="1"/>
        <pt x="389" y="682" on="1"/>
        <pt x="362" y="567" on="0"/>
        <pt x="260" y="567" on="1"/>
      </contour>
      <contour>
        <pt x="403" y="0" on="1"/>
        <pt x="391" y="54" on="1"/>
        <pt x="365" y="128" on="1"/>
        <pt x="246" y="129" on="1"/>
        <pt x="140" y="128" on="1"/>
        <pt x="113" y="58" on="1"/>
        <pt x="99" y="0" on="1"/>
        <pt x="25" y="0" on="1"/>
        <pt x="217" y="498" on="1"/>
        <pt x="303" y="498" on="1"/>
        <pt x="479" y="0" on="1"/>
      </contour>
      <contour>
        <pt x="261" y="425" on="1"/>
        <pt x="255" y="425" on="1"/>
        <pt x="164" y="189" on="1"/>
        <pt x="252" y="188" on="1"/>
        <pt x="344" y="189" on="1"/>
      </contour>
      <contour>
        <pt x="275" y="-70" on="0"/>
        <pt x="299" y="-94" on="0"/>
        <pt x="299" y="-115" on="1"/>
        <pt x="299" y="-137" on="0"/>
        <pt x="274" y="-163" on="0"/>
        <pt x="252" y="-163" on="1"/>
        <pt x="208" y="-163" on="0"/>
        <pt x="208" y="-117" on="1"/>
        <pt x="208" y="-96" on="0"/>
        <pt x="233" y="-70" on="0"/>
        <pt x="255" y="-70" on="1"/>
      </contour>
    </TTGlyph>
    <TTGlyph name="abrevegrave" xMin="25" yMin="0" xMax="478" yMax="807">
      <component glyphName="a" x="0" y="0" flags="0x1000"/>
      <component glyphName="brevegrave" x="66" y="40" flags="0x1000"/>
    </TTGlyph>
    <TTGlyph name="abrevehookabove" xMin="25" yMin="0" xMax="479" yMax="856">
      <contour>
        <pt x="221" y="812" on="0"/>
        <pt x="192" y="788" on="1"/>
        <pt x="176" y="814" on="1"/>
        <pt x="216" y="856" on="0"/>
        <pt x="262" y="856" on="1"/>
        <pt x="289" y="856" on="0"/>
        <pt x="325" y="823" on="0"/>
        <pt x="325" y="799" on="1"/>
        <pt x="325" y="767" on="0"/>
        <pt x="273" y="724" on="1"/>
        <pt x="293" y="690" on="1"/>
        <pt x="258" y="671" on="1"/>
        <pt x="226" y="726" on="1"/>
        <pt x="276" y="762" on="0"/>
        <pt x="276" y="791" on="1"/>
        <pt x="276" y="812" on="0"/>
        <pt x="250" y="812" on="1"/>
      </contour>
      <contour>
        <pt x="213" y="562" on="0"/>
        <pt x="149" y="608" on="0"/>
        <pt x="135" y="652" on="1"/>
        <pt x="157" y="680" on="1"/>
        <pt x="169" y="680" on="1"/>
        <pt x="191" y="619" on="0"/>
        <pt x="262" y="619" on="1"/>
        <pt x="329" y="619" on="0"/>
        <pt x="353" y="680" on="1"/>
        <pt x="365" y="680" on="1"/>
        <pt x="388" y="652" on="1"/>
        <pt x="372" y="609" on="0"/>
        <pt x="306" y="562" on="0"/>
        <pt x="259" y="562" on="1"/>
      </contour>
      <contour>
        <pt x="403" y="0" on="1"/>
        <pt x="391" y="54" on="1"/>
        <pt x="365" y="128" on="1"/>
        <pt x="246" y="129" on="1"/>
        <pt x="140" y="128" on="1"/>
        <pt x="113" y="58" on="1"/>
        <pt x="99" y="0" on="1"/>
        <pt x="25" y="0" on="1"/>
        <pt x="217" y="498" on="1"/>
        <pt x="303" y="498" on="1"/>
        <pt x="479" y="0" on="1"/>
      </contour>
      <contour>
        <pt x="261" y="425" on="1"/>
        <pt x="255" y="425" on="1"/>
        <pt x="164" y="189" on="1"/>
        <pt x="252" y="188" on="1"/>
        <pt x="344" y="189" on="1"/>
      </contour>
    </TTGlyph>
    <TTGlyph name="abrevetilde" xMin="25" yMin="0" xMax="479" yMax="824">
      <contour>
        <pt x="117" y="737" on="1"/>
        <pt x="117" y="745" on="1"/>
        <pt x="174" y="812" on="1"/>
        <pt x="183" y="814" on="1"/>
        <pt x="207" y="812" on="0"/>
        <pt x="264" y="794" on="1"/>
        <pt x="317" y="779" on="0"/>
        <pt x="329" y="779" on="1"/>
        <pt x="337" y="779" on="0"/>
        <pt x="353" y="793" on="0"/>
        <pt x="375" y="817" on="0"/>
        <pt x="382" y="824" on="1"/>
        <pt x="390" y="824" on="1"/>
        <pt x="412" y="800" on="1"/>
        <pt x="412" y="792" on="1"/>
        <pt x="355" y="725" on="1"/>
        <pt x="346" y="722" on="1"/>
        <pt x="323" y="724" on="0"/>
        <pt x="266" y="742" on="1"/>
        <pt x="212" y="758" on="0"/>
        <pt x="201" y="758" on="1"/>
        <pt x="188" y="758" on="0"/>
        <pt x="162" y="728" on="1"/>
        <pt x="148" y="713" on="1"/>
        <pt x="140" y="713" on="1"/>
      </contour>
      <contour>
        <pt x="330" y="619" on="0"/>
        <pt x="353" y="678" on="1"/>
        <pt x="365" y="678" on="1"/>
        <pt x="386" y="651" on="1"/>
        <pt x="371" y="608" on="0"/>
        <pt x="306" y="563" on="0"/>
        <pt x="261" y="563" on="1"/>
        <pt x="167" y="563" on="0"/>
        <pt x="139" y="651" on="1"/>
        <pt x="161" y="678" on="1"/>
        <pt x="173" y="678" on="1"/>
        <pt x="193" y="619" on="0"/>
        <pt x="263" y="619" on="1"/>
      </contour>
      <contour>
        <pt x="403" y="0" on="1"/>
        <pt x="391" y="54" on="1"/>
        <pt x="365" y="128" on="1"/>
        <pt x="246" y="129" on="1"/>
        <pt x="140" y="128" on="1"/>
        <pt x="113" y="58" on="1"/>
        <pt x="99" y="0" on="1"/>
        <pt x="25" y="0" on="1"/>
        <pt x="217" y="498" on="1"/>
        <pt x="303" y="498" on="1"/>
        <pt x="479" y="0" on="1"/>
      </contour>
      <contour>
        <pt x="261" y="425" on="1"/>
        <pt x="255" y="425" on="1"/>
        <pt x="164" y="189" on="1"/>
        <pt x="252" y="188" on="1"/>
        <pt x="344" y="189" on="1"/>
      </contour>
    </TTGlyph>
    <TTGlyph name="acaron" xMin="25" yMin="0" xMax="478" yMax="728">
      <component glyphName="a" x="0" y="0" flags="0x1000"/>
      <component glyphName="caron" x="67" y="40" flags="0x1000"/>
    </TTGlyph>
    <TTGlyph name="acircumflex" xMin="25" yMin="0" xMax="479" yMax="729">
      <contour>
        <pt x="128" y="595" on="1"/>
        <pt x="186" y="653" on="0"/>
        <pt x="250" y="729" on="1"/>
        <pt x="274" y="729" on="1"/>
        <pt x="336" y="652" on="0"/>
        <pt x="395" y="595" on="1"/>
        <pt x="373" y="563" on="1"/>
        <pt x="364" y="563" on="1"/>
        <pt x="302" y="622" on="0"/>
        <pt x="262" y="667" on="1"/>
        <pt x="224" y="625" on="0"/>
        <pt x="160" y="563" on="1"/>
        <pt x="150" y="563" on="1"/>
      </contour>
      <contour>
        <pt x="403" y="0" on="1"/>
        <pt x="391" y="54" on="1"/>
        <pt x="365" y="128" on="1"/>
        <pt x="246" y="129" on="1"/>
        <pt x="140" y="128" on="1"/>
        <pt x="113" y="58" on="1"/>
        <pt x="99" y="0" on="1"/>
        <pt x="25" y="0" on="1"/>
        <pt x="217" y="498" on="1"/>
        <pt x="303" y="498" on="1"/>
        <pt x="479" y="0" on="1"/>
      </contour>
      <contour>
        <pt x="261" y="425" on="1"/>
        <pt x="255" y="425" on="1"/>
        <pt x="164" y="189" on="1"/>
        <pt x="252" y="188" on="1"/>
        <pt x="344" y="189" on="1"/>
      </contour>
    </TTGlyph>
    <TTGlyph name="acircumflexacute" xMin="25" yMin="0" xMax="478" yMax="805">
      <component glyphName="a" x="0" y="0" flags="0x1000"/>
      <component glyphName="circumflexacute" x="66" y="40" flags="0x1000"/>
    </TTGlyph>
    <TTGlyph name="acircumflexdotbelow" xMin="25" yMin="-163" xMax="479" yMax="729">
      <contour>
        <pt x="128" y="595" on="1"/>
        <pt x="186" y="653" on="0"/>
        <pt x="250" y="729" on="1"/>
        <pt x="274" y="729" on="1"/>
        <pt x="336" y="652" on="0"/>
        <pt x="395" y="595" on="1"/>
        <pt x="373" y="563" on="1"/>
        <pt x="364" y="563" on="1"/>
        <pt x="302" y="622" on="0"/>
        <pt x="262" y="667" on="1"/>
        <pt x="224" y="625" on="0"/>
        <pt x="160" y="563" on="1"/>
        <pt x="150" y="563" on="1"/>
      </contour>
      <contour>
        <pt x="403" y="0" on="1"/>
        <pt x="391" y="54" on="1"/>
        <pt x="365" y="128" on="1"/>
        <pt x="246" y="129" on="1"/>
        <pt x="140" y="128" on="1"/>
        <pt x="113" y="58" on="1"/>
        <pt x="99" y="0" on="1"/>
        <pt x="25" y="0" on="1"/>
        <pt x="217" y="498" on="1"/>
        <pt x="303" y="498" on="1"/>
        <pt x="479" y="0" on="1"/>
      </contour>
      <contour>
        <pt x="261" y="425" on="1"/>
        <pt x="255" y="425" on="1"/>
        <pt x="164" y="189" on="1"/>
        <pt x="252" y="188" on="1"/>
        <pt x="344" y="189" on="1"/>
      </contour>
      <contour>
        <pt x="275" y="-70" on="0"/>
        <pt x="299" y="-94" on="0"/>
        <pt x="299" y="-115" on="1"/>
        <pt x="299" y="-137" on="0"/>
        <pt x="274" y="-163" on="0"/>
        <pt x="252" y="-163" on="1"/>
        <pt x="208" y="-163" on="0"/>
        <pt x="208" y="-117" on="1"/>
        <pt x="208" y="-96" on="0"/>
        <pt x="233" y="-70" on="0"/>
        <pt x="255" y="-70" on="1"/>
      </contour>
    </TTGlyph>
    <TTGlyph name="acircumflexgrave" xMin="25" yMin="0" xMax="478" yMax="805">
      <component glyphName="a" x="0" y="0" flags="0x1000"/>
      <component glyphName="circumflexgrave" x="66" y="40" flags="0x1000"/>
    </TTGlyph>
    <TTGlyph name="acircumflexhookabove" xMin="25" yMin="0" xMax="479" yMax="842">
      <contour>
        <pt x="317" y="801" on="0"/>
        <pt x="289" y="778" on="1"/>
        <pt x="274" y="803" on="1"/>
        <pt x="311" y="842" on="0"/>
        <pt x="355" y="842" on="1"/>
        <pt x="381" y="842" on="0"/>
        <pt x="415" y="812" on="0"/>
        <pt x="415" y="789" on="1"/>
        <pt x="415" y="757" on="0"/>
        <pt x="366" y="717" on="1"/>
        <pt x="385" y="685" on="1"/>
        <pt x="352" y="667" on="1"/>
        <pt x="322" y="719" on="1"/>
        <pt x="370" y="754" on="0"/>
        <pt x="370" y="781" on="1"/>
        <pt x="370" y="801" on="0"/>
        <pt x="344" y="801" on="1"/>
      </contour>
      <contour>
        <pt x="132" y="605" on="1"/>
        <pt x="199" y="651" on="0"/>
        <pt x="248" y="696" on="1"/>
        <pt x="271" y="696" on="1"/>
        <pt x="316" y="656" on="0"/>
        <pt x="388" y="605" on="1"/>
        <pt x="372" y="571" on="1"/>
        <pt x="363" y="571" on="1"/>
        <pt x="307" y="605" on="0"/>
        <pt x="260" y="637" on="1"/>
        <pt x="221" y="610" on="0"/>
        <pt x="158" y="571" on="1"/>
        <pt x="148" y="571" on="1"/>
      </contour>
      <contour>
        <pt x="403" y="0" on="1"/>
        <pt x="391" y="54" on="1"/>
        <pt x="365" y="128" on="1"/>
        <pt x="246" y="129" on="1"/>
        <pt x="140" y="128" on="1"/>
        <pt x="113" y="58" on="1"/>
        <pt x="99" y="0" on="1"/>
        <pt x="25" y="0" on="1"/>
        <pt x="217" y="498" on="1"/>
        <pt x="303" y="498" on="1"/>
        <pt x="479" y="0" on="1"/>
      </contour>
      <contour>
        <pt x="261" y="425" on="1"/>
        <pt x="255" y="425" on="1"/>
        <pt x="164" y="189" on="1"/>
        <pt x="252" y="188" on="1"/>
        <pt x="344" y="189" on="1"/>
      </contour>
    </TTGlyph>
    <TTGlyph name="acircumflextilde" xMin="25" yMin="0" xMax="479" yMax="824">
      <contour>
        <pt x="117" y="737" on="1"/>
        <pt x="117" y="745" on="1"/>
        <pt x="174" y="812" on="1"/>
        <pt x="183" y="814" on="1"/>
        <pt x="207" y="812" on="0"/>
        <pt x="264" y="794" on="1"/>
        <pt x="317" y="779" on="0"/>
        <pt x="329" y="779" on="1"/>
        <pt x="337" y="779" on="0"/>
        <pt x="353" y="793" on="0"/>
        <pt x="375" y="817" on="0"/>
        <pt x="382" y="824" on="1"/>
        <pt x="390" y="824" on="1"/>
        <pt x="412" y="800" on="1"/>
        <pt x="412" y="792" on="1"/>
        <pt x="355" y="725" on="1"/>
        <pt x="346" y="722" on="1"/>
        <pt x="323" y="724" on="0"/>
        <pt x="266" y="742" on="1"/>
        <pt x="212" y="758" on="0"/>
        <pt x="201" y="758" on="1"/>
        <pt x="188" y="758" on="0"/>
        <pt x="162" y="728" on="1"/>
        <pt x="148" y="713" on="1"/>
        <pt x="140" y="713" on="1"/>
      </contour>
      <contour>
        <pt x="316" y="656" on="0"/>
        <pt x="388" y="605" on="1"/>
        <pt x="372" y="571" on="1"/>
        <pt x="363" y="571" on="1"/>
        <pt x="307" y="605" on="0"/>
        <pt x="260" y="637" on="1"/>
        <pt x="221" y="610" on="0"/>
        <pt x="158" y="571" on="1"/>
        <pt x="148" y="571" on="1"/>
        <pt x="132" y="605" on="1"/>
        <pt x="199" y="651" on="0"/>
        <pt x="248" y="696" on="1"/>
        <pt x="271" y="696" on="1"/>
      </contour>
      <contour>
        <pt x="403" y="0" on="1"/>
        <pt x="391" y="54" on="1"/>
        <pt x="365" y="128" on="1"/>
        <pt x="246" y="129" on="1"/>
        <pt x="140" y="128" on="1"/>
        <pt x="113" y="58" on="1"/>
        <pt x="99" y="0" on="1"/>
        <pt x="25" y="0" on="1"/>
        <pt x="217" y="498" on="1"/>
        <pt x="303" y="498" on="1"/>
        <pt x="479" y="0" on="1"/>
      </contour>
      <contour>
        <pt x="261" y="425" on="1"/>
        <pt x="255" y="425" on="1"/>
        <pt x="164" y="189" on="1"/>
        <pt x="252" y="188" on="1"/>
        <pt x="344" y="189" on="1"/>
      </contour>
    </TTGlyph>
    <TTGlyph name="acute" xMin="94" yMin="519" xMax="297" yMax="697">
      <contour>
        <pt x="297" y="654" on="1"/>
        <pt x="295" y="646" on="1"/>
        <pt x="196" y="569" on="0"/>
        <pt x="125" y="519" on="1"/>
        <pt x="116" y="520" on="1"/>
        <pt x="94" y="552" on="1"/>
        <pt x="192" y="632" on="0"/>
        <pt x="258" y="697" on="1"/>
        <pt x="267" y="696" on="1"/>
      </contour>
    </TTGlyph>
    <TTGlyph name="acute.cap" xMin="84" yMin="538" xMax="305" yMax="681">
      <contour>
        <pt x="305" y="632" on="1"/>
        <pt x="303" y="624" on="1"/>
        <pt x="214" y="583" on="0"/>
        <pt x="108" y="538" on="1"/>
        <pt x="98" y="542" on="1"/>
        <pt x="84" y="578" on="1"/>
        <pt x="187" y="629" on="0"/>
        <pt x="276" y="681" on="1"/>
        <pt x="285" y="679" on="1"/>
      </contour>
    </TTGlyph>
    <TTGlyph name="adieresis" xMin="25" yMin="0" xMax="479" yMax="691">
      <contour>
        <pt x="162" y="602" on="0"/>
        <pt x="140" y="626" on="0"/>
        <pt x="140" y="646" on="1"/>
        <pt x="140" y="666" on="0"/>
        <pt x="164" y="691" on="0"/>
        <pt x="185" y="691" on="1"/>
        <pt x="205" y="691" on="0"/>
        <pt x="227" y="669" on="0"/>
        <pt x="227" y="649" on="1"/>
        <pt x="227" y="628" on="0"/>
        <pt x="203" y="602" on="0"/>
        <pt x="182" y="602" on="1"/>
      </contour>
      <contour>
        <pt x="319" y="602" on="0"/>
        <pt x="297" y="626" on="0"/>
        <pt x="297" y="646" on="1"/>
        <pt x="297" y="666" on="0"/>
        <pt x="321" y="691" on="0"/>
        <pt x="342" y="691" on="1"/>
        <pt x="362" y="691" on="0"/>
        <pt x="384" y="669" on="0"/>
        <pt x="384" y="649" on="1"/>
        <pt x="384" y="628" on="0"/>
        <pt x="360" y="602" on="0"/>
        <pt x="339" y="602" on="1"/>
      </contour>
      <contour>
        <pt x="403" y="0" on="1"/>
        <pt x="391" y="54" on="1"/>
        <pt x="365" y="128" on="1"/>
        <pt x="246" y="129" on="1"/>
        <pt x="140" y="128" on="1"/>
        <pt x="113" y="58" on="1"/>
        <pt x="99" y="0" on="1"/>
        <pt x="25" y="0" on="1"/>
        <pt x="217" y="498" on="1"/>
        <pt x="303" y="498" on="1"/>
        <pt x="479" y="0" on="1"/>
      </contour>
      <contour>
        <pt x="261" y="425" on="1"/>
        <pt x="255" y="425" on="1"/>
        <pt x="164" y="189" on="1"/>
        <pt x="252" y="188" on="1"/>
        <pt x="344" y="189" on="1"/>
      </contour>
    </TTGlyph>
    <TTGlyph name="adotbelow" xMin="25" yMin="-163" xMax="479" yMax="498">
      <contour>
        <pt x="403" y="0" on="1"/>
        <pt x="391" y="54" on="1"/>
        <pt x="365" y="128" on="1"/>
        <pt x="246" y="129" on="1"/>
        <pt x="140" y="128" on="1"/>
        <pt x="113" y="58" on="1"/>
        <pt x="99" y="0" on="1"/>
        <pt x="25" y="0" on="1"/>
        <pt x="217" y="498" on="1"/>
        <pt x="303" y="498" on="1"/>
        <pt x="479" y="0" on="1"/>
      </contour>
      <contour>
        <pt x="261" y="425" on="1"/>
        <pt x="255" y="425" on="1"/>
        <pt x="164" y="189" on="1"/>
        <pt x="252" y="188" on="1"/>
        <pt x="344" y="189" on="1"/>
      </contour>
      <contour>
        <pt x="275" y="-70" on="0"/>
        <pt x="299" y="-94" on="0"/>
        <pt x="299" y="-115" on="1"/>
        <pt x="299" y="-137" on="0"/>
        <pt x="274" y="-163" on="0"/>
        <pt x="252" y="-163" on="1"/>
        <pt x="208" y="-163" on="0"/>
        <pt x="208" y="-117" on="1"/>
        <pt x="208" y="-96" on="0"/>
        <pt x="233" y="-70" on="0"/>
        <pt x="255" y="-70" on="1"/>
      </contour>
    </TTGlyph>
    <TTGlyph name="ae" xMin="2" yMin="0" xMax="674" yMax="498">
      <contour>
        <pt x="668" y="0" on="1"/>
        <pt x="375" y="0" on="1"/>
        <pt x="371" y="53" on="1"/>
        <pt x="350" y="189" on="1"/>
        <pt x="145" y="143" on="1"/>
        <pt x="96" y="57" on="1"/>
        <pt x="76" y="0" on="1"/>
        <pt x="2" y="0" on="1"/>
        <pt x="279" y="498" on="1"/>
        <pt x="595" y="498" on="1"/>
        <pt x="600" y="492" on="1"/>
        <pt x="593" y="434" on="1"/>
        <pt x="460" y="439" on="1"/>
        <pt x="381" y="439" on="1"/>
        <pt x="409" y="263" on="1"/>
        <pt x="585" y="301" on="1"/>
        <pt x="591" y="297" on="1"/>
        <pt x="595" y="237" on="1"/>
        <pt x="418" y="203" on="1"/>
        <pt x="440" y="61" on="1"/>
        <pt x="532" y="61" on="1"/>
        <pt x="669" y="65" on="1"/>
        <pt x="674" y="60" on="1"/>
      </contour>
      <contour>
        <pt x="312" y="425" on="1"/>
        <pt x="306" y="425" on="1"/>
        <pt x="186" y="214" on="1"/>
        <pt x="340" y="248" on="1"/>
      </contour>
    </TTGlyph>
    <TTGlyph name="aeacute" xMin="2" yMin="0" xMax="674" yMax="737">
      <component glyphName="ae" x="0" y="0" flags="0x1000"/>
      <component glyphName="acute" x="244" y="40" flags="0x1000"/>
    </TTGlyph>
    <TTGlyph name="agrave" xMin="25" yMin="0" xMax="479" yMax="737">
      <contour>
        <pt x="260" y="609" on="0"/>
        <pt x="161" y="686" on="1"/>
        <pt x="159" y="694" on="1"/>
        <pt x="189" y="736" on="1"/>
        <pt x="198" y="737" on="1"/>
        <pt x="264" y="672" on="0"/>
        <pt x="362" y="592" on="1"/>
        <pt x="340" y="560" on="1"/>
        <pt x="331" y="559" on="1"/>
      </contour>
      <contour>
        <pt x="403" y="0" on="1"/>
        <pt x="391" y="54" on="1"/>
        <pt x="365" y="128" on="1"/>
        <pt x="246" y="129" on="1"/>
        <pt x="140" y="128" on="1"/>
        <pt x="113" y="58" on="1"/>
        <pt x="99" y="0" on="1"/>
        <pt x="25" y="0" on="1"/>
        <pt x="217" y="498" on="1"/>
        <pt x="303" y="498" on="1"/>
        <pt x="479" y="0" on="1"/>
      </contour>
      <contour>
        <pt x="261" y="425" on="1"/>
        <pt x="255" y="425" on="1"/>
        <pt x="164" y="189" on="1"/>
        <pt x="252" y="188" on="1"/>
        <pt x="344" y="189" on="1"/>
      </contour>
    </TTGlyph>
    <TTGlyph name="ahookabove" xMin="25" yMin="0" xMax="478" yMax="752">
      <component glyphName="a" x="0" y="0" flags="0x1000"/>
      <component glyphName="hookabove" x="65" y="39" flags="0x1000"/>
    </TTGlyph>
    <TTGlyph name="amacron" xMin="25" yMin="0" xMax="478" yMax="674">
      <component glyphName="a" x="0" y="0" flags="0x1000"/>
      <component glyphName="macron" x="66" y="40" flags="0x1000"/>
    </TTGlyph>
    <TTGlyph name="ampersand" xMin="43" yMin="-11" xMax="823" yMax="711">
      <contour>
        <pt x="803" y="272" on="0"/>
        <pt x="754" y="235" on="0"/>
        <pt x="716" y="232" on="1"/>
        <pt x="689" y="232" on="0"/>
        <pt x="605" y="248" on="1"/>
        <pt x="600" y="172" on="0"/>
        <pt x="522" y="54" on="0"/>
        <pt x="390" y="-11" on="0"/>
        <pt x="307" y="-11" on="1"/>
        <pt x="184" y="-11" on="0"/>
        <pt x="43" y="132" on="0"/>
        <pt x="43" y="254" on="1"/>
        <pt x="43" y="328" on="0"/>
        <pt x="96" y="442" on="0"/>
        <pt x="187" y="505" on="0"/>
        <pt x="243" y="505" on="1"/>
        <pt x="296" y="505" on="0"/>
        <pt x="357" y="454" on="0"/>
        <pt x="357" y="414" on="1"/>
        <pt x="357" y="398" on="0"/>
        <pt x="353" y="385" on="1"/>
        <pt x="447" y="454" on="0"/>
        <pt x="591" y="622" on="0"/>
        <pt x="631" y="711" on="1"/>
        <pt x="638" y="711" on="1"/>
        <pt x="661" y="688" on="0"/>
        <pt x="670" y="656" on="1"/>
        <pt x="632" y="571" on="0"/>
        <pt x="461" y="390" on="0"/>
        <pt x="235" y="238" on="0"/>
        <pt x="119" y="195" on="1"/>
        <pt x="135" y="126" on="0"/>
        <pt x="234" y="49" on="0"/>
        <pt x="313" y="49" on="1"/>
        <pt x="379" y="49" on="0"/>
        <pt x="485" y="101" on="0"/>
        <pt x="545" y="197" on="0"/>
        <pt x="546" y="260" on="1"/>
        <pt x="506" y="267" on="0"/>
        <pt x="488" y="267" on="1"/>
        <pt x="436" y="267" on="0"/>
        <pt x="406" y="205" on="1"/>
        <pt x="396" y="204" on="1"/>
        <pt x="381" y="248" on="1"/>
        <pt x="400" y="285" on="0"/>
        <pt x="450" y="322" on="0"/>
        <pt x="488" y="326" on="1"/>
        <pt x="507" y="326" on="0"/>
        <pt x="600" y="309" on="1"/>
        <pt x="686" y="291" on="0"/>
        <pt x="715" y="291" on="1"/>
        <pt x="773" y="291" on="0"/>
        <pt x="797" y="352" on="1"/>
        <pt x="807" y="353" on="1"/>
        <pt x="823" y="310" on="1"/>
      </contour>
      <contour>
        <pt x="183" y="450" on="0"/>
        <pt x="112" y="348" on="0"/>
        <pt x="112" y="264" on="1"/>
        <pt x="112" y="252" on="1"/>
        <pt x="183" y="278" on="0"/>
        <pt x="261" y="324" on="1"/>
        <pt x="304" y="354" on="0"/>
        <pt x="304" y="397" on="1"/>
        <pt x="304" y="424" on="0"/>
        <pt x="270" y="450" on="0"/>
        <pt x="241" y="450" on="1"/>
      </contour>
    </TTGlyph>
    <TTGlyph name="aogonek" xMin="25" yMin="-196" xMax="521" yMax="498">
      <contour>
        <pt x="479" y="-196" on="0"/>
        <pt x="435" y="-196" on="1"/>
        <pt x="403" y="-196" on="0"/>
        <pt x="361" y="-157" on="0"/>
        <pt x="361" y="-123" on="1"/>
        <pt x="361" y="-102" on="0"/>
        <pt x="385" y="-47" on="0"/>
        <pt x="415" y="0" on="1"/>
        <pt x="403" y="0" on="1"/>
        <pt x="391" y="54" on="1"/>
        <pt x="365" y="128" on="1"/>
        <pt x="246" y="129" on="1"/>
        <pt x="140" y="128" on="1"/>
        <pt x="113" y="58" on="1"/>
        <pt x="99" y="0" on="1"/>
        <pt x="25" y="0" on="1"/>
        <pt x="217" y="498" on="1"/>
        <pt x="303" y="498" on="1"/>
        <pt x="479" y="0" on="1"/>
        <pt x="466" y="0" on="1"/>
        <pt x="415" y="-71" on="0"/>
        <pt x="415" y="-108" on="1"/>
        <pt x="415" y="-141" on="0"/>
        <pt x="445" y="-141" on="1"/>
        <pt x="477" y="-141" on="0"/>
        <pt x="505" y="-99" on="1"/>
        <pt x="510" y="-99" on="1"/>
        <pt x="521" y="-143" on="1"/>
      </contour>
      <contour>
        <pt x="261" y="425" on="1"/>
        <pt x="255" y="425" on="1"/>
        <pt x="164" y="189" on="1"/>
        <pt x="252" y="188" on="1"/>
        <pt x="344" y="189" on="1"/>
      </contour>
    </TTGlyph>
    <TTGlyph name="approxequal" xMin="63" yMin="126" xMax="444" yMax="407">
      <component glyphName="asciitilde" x="13" y="86" flags="0x1000"/>
      <component glyphName="asciitilde" x="13" y="-80" flags="0x1000"/>
    </TTGlyph>
    <TTGlyph name="aring" xMin="25" yMin="0" xMax="478" yMax="737">
      <component glyphName="a" x="0" y="0" flags="0x1000"/>
      <component glyphName="ring" x="66" y="40" flags="0x1000"/>
    </TTGlyph>
    <TTGlyph name="aringacute" xMin="25" yMin="0" xMax="479" yMax="866">
      <contour>
        <pt x="168" y="796" on="1"/>
        <pt x="294" y="835" on="0"/>
        <pt x="375" y="866" on="1"/>
        <pt x="383" y="863" on="1"/>
        <pt x="396" y="814" on="1"/>
        <pt x="392" y="806" on="1"/>
        <pt x="302" y="780" on="0"/>
        <pt x="185" y="753" on="1"/>
        <pt x="177" y="758" on="1"/>
      </contour>
      <contour>
        <pt x="176" y="692" on="0"/>
        <pt x="222" y="737" on="0"/>
        <pt x="261" y="737" on="1"/>
        <pt x="300" y="737" on="0"/>
        <pt x="344" y="692" on="0"/>
        <pt x="344" y="656" on="1"/>
        <pt x="344" y="617" on="0"/>
        <pt x="295" y="572" on="0"/>
        <pt x="258" y="572" on="1"/>
        <pt x="222" y="572" on="0"/>
        <pt x="176" y="615" on="0"/>
        <pt x="176" y="654" on="1"/>
      </contour>
      <contour>
        <pt x="305" y="698" on="0"/>
        <pt x="259" y="698" on="1"/>
        <pt x="214" y="698" on="0"/>
        <pt x="214" y="655" on="1"/>
        <pt x="214" y="633" on="0"/>
        <pt x="239" y="610" on="0"/>
        <pt x="260" y="610" on="1"/>
        <pt x="280" y="610" on="0"/>
        <pt x="305" y="632" on="0"/>
        <pt x="305" y="653" on="1"/>
      </contour>
      <contour>
        <pt x="403" y="0" on="1"/>
        <pt x="391" y="54" on="1"/>
        <pt x="365" y="128" on="1"/>
        <pt x="246" y="129" on="1"/>
        <pt x="140" y="128" on="1"/>
        <pt x="113" y="58" on="1"/>
        <pt x="99" y="0" on="1"/>
        <pt x="25" y="0" on="1"/>
        <pt x="217" y="498" on="1"/>
        <pt x="303" y="498" on="1"/>
        <pt x="479" y="0" on="1"/>
      </contour>
      <contour>
        <pt x="261" y="425" on="1"/>
        <pt x="255" y="425" on="1"/>
        <pt x="164" y="189" on="1"/>
        <pt x="252" y="188" on="1"/>
        <pt x="344" y="189" on="1"/>
      </contour>
    </TTGlyph>
    <TTGlyph name="arrowdown" xMin="54" yMin="-4" xMax="462" yMax="464">
      <contour>
        <pt x="265" y="-4" on="1"/>
        <pt x="252" y="-4" on="1"/>
        <pt x="54" y="190" on="1"/>
        <pt x="67" y="234" on="1"/>
        <pt x="79" y="234" on="1"/>
        <pt x="233" y="86" on="1"/>
        <pt x="229" y="458" on="1"/>
        <pt x="235" y="464" on="1"/>
        <pt x="286" y="460" on="1"/>
        <pt x="283" y="85" on="1"/>
        <pt x="437" y="234" on="1"/>
        <pt x="450" y="234" on="1"/>
        <pt x="462" y="190" on="1"/>
      </contour>
    </TTGlyph>
    <TTGlyph name="arrowdownleft" xMin="98" yMin="57" xMax="454" yMax="412">
      <component glyphName="arrowdown" x="-74" y="250" scalex="0.706970214844" scale01="-0.706970214844" scale10="0.706970214844" scaley="0.706970214844" flags="0x1000"/>
    </TTGlyph>
    <TTGlyph name="arrowdownright" xMin="61" yMin="55" xMax="416" yMax="411">
      <component glyphName="arrowdown" x="223" y="-117" scalex="0.706970214844" scale01="0.706970214844" scale10="-0.706970214844" scaley="0.706970214844" flags="0x1000"/>
    </TTGlyph>
    <TTGlyph name="arrowleft" xMin="22" yMin="27" xMax="490" yMax="435">
      <component glyphName="arrowdown" x="26" y="489" scalex="0.0" scale01="-1.0" scale10="1.0" scaley="0.0" flags="0x1000"/>
    </TTGlyph>
    <TTGlyph name="arrowright" xMin="23" yMin="30" xMax="491" yMax="438">
      <component glyphName="arrowdown" x="487" y="-24" scalex="0.0" scale01="1.0" scale10="-1.0" scaley="0.0" flags="0x1000"/>
    </TTGlyph>
    <TTGlyph name="arrowup" xMin="53" yMin="0" xMax="461" yMax="468">
      <component glyphName="arrowdown" x="515" y="464" scale="-1.0" flags="0x1000"/>
    </TTGlyph>
    <TTGlyph name="arrowupleft" xMin="97" yMin="50" xMax="452" yMax="406">
      <component glyphName="arrowdown" x="290" y="578" scalex="-0.706970214844" scale01="-0.706970214844" scale10="0.706970214844" scaley="-0.706970214844" flags="0x1000"/>
    </TTGlyph>
    <TTGlyph name="arrowupright" xMin="61" yMin="54" xMax="417" yMax="409">
      <component glyphName="arrowdown" x="589" y="216" scalex="-0.706970214844" scale01="0.706970214844" scale10="-0.706970214844" scaley="-0.706970214844" flags="0x1000"/>
    </TTGlyph>
    <TTGlyph name="asciicircum" xMin="20" yMin="112" xMax="404" yMax="492">
      <contour>
        <pt x="398" y="126" on="1"/>
        <pt x="352" y="115" on="1"/>
        <pt x="220" y="432" on="1"/>
        <pt x="214" y="432" on="1"/>
        <pt x="74" y="117" on="1"/>
        <pt x="66" y="112" on="1"/>
        <pt x="20" y="130" on="1"/>
        <pt x="178" y="487" on="1"/>
        <pt x="186" y="492" on="1"/>
        <pt x="252" y="492" on="1"/>
        <pt x="404" y="134" on="1"/>
      </contour>
    </TTGlyph>
    <TTGlyph name="asciitilde" xMin="50" yMin="206" xMax="431" yMax="321">
      <contour>
        <pt x="139" y="257" on="0"/>
        <pt x="119" y="242" on="0"/>
        <pt x="96" y="221" on="1"/>
        <pt x="96" y="221" on="0"/>
        <pt x="81" y="206" on="1"/>
        <pt x="72" y="206" on="1"/>
        <pt x="50" y="233" on="1"/>
        <pt x="50" y="242" on="1"/>
        <pt x="123" y="315" on="1"/>
        <pt x="133" y="319" on="1"/>
        <pt x="158" y="316" on="0"/>
        <pt x="231" y="294" on="1"/>
        <pt x="317" y="270" on="0"/>
        <pt x="333" y="270" on="1"/>
        <pt x="343" y="270" on="0"/>
        <pt x="365" y="287" on="0"/>
        <pt x="394" y="314" on="0"/>
        <pt x="401" y="321" on="1"/>
        <pt x="409" y="321" on="1"/>
        <pt x="431" y="294" on="1"/>
        <pt x="431" y="285" on="1"/>
        <pt x="358" y="211" on="1"/>
        <pt x="348" y="209" on="1"/>
        <pt x="326" y="212" on="0"/>
        <pt x="241" y="235" on="1"/>
        <pt x="163" y="257" on="0"/>
        <pt x="149" y="257" on="1"/>
      </contour>
    </TTGlyph>
</ttFont>
